<?xml version="1.0" encoding="UTF-8"?>
<!-- Generator: visioncortex VTracer 0.6.4 -->
<svg version="1.1" xmlns="http://www.w3.org/2000/svg" width="1440" height="622">
<path d="M0 0 C7.9 2.33 12.95 3.11 20.82 -0.18 C27.54 -2.58 35.03 -2.27 41.63 0.39 C49.79 4.7 54.64 10 57.76 18.77 C59.76 27.31 58.72 34.98 54.13 42.46 C49.6 48.78 44.27 52.71 36.76 54.77 C27.54 55.78 19.29 54.88 11.73 49.26 C6.06 44.1 3.2 37.91 2.07 30.39 C1.21 26.76 1.21 26.76 -1.02 25.82 C-29.88 17.16 -59.44 19.83 -86.03 34.05 C-109.63 47.35 -124.08 70.02 -131.43 95.66 C-139.5 126.51 -132.47 157.49 -116.87 184.64 C-112.12 192.69 -106.81 200.27 -101.24 207.77 C-100.58 208.76 -99.92 209.75 -99.24 210.77 C-96.09 210.07 -93.23 208.99 -90.24 207.77 C-88.22 209.93 -86.2 212.1 -84.18 214.27 C-83.62 214.87 -83.06 215.47 -82.48 216.09 C-79.52 219.26 -76.62 222.47 -73.77 225.74 C-62.94 238.18 -51.35 249.78 -39.22 260.94 C-37.36 262.66 -35.51 264.39 -33.67 266.12 C-27.9 271.52 -22.02 276.67 -15.86 281.62 C-13.24 283.77 -10.74 285.99 -8.24 288.27 C-3.07 292.98 2.32 297.38 7.76 301.77 C9.49 303.19 11.22 304.6 12.95 306.02 C14.88 307.6 16.82 309.19 18.76 310.77 C19.36 311.26 19.96 311.75 20.58 312.25 C29.89 319.86 39.28 327.37 48.76 334.77 C51.05 336.56 53.34 338.35 55.63 340.14 C56.48 340.81 56.48 340.81 57.35 341.49 C62.71 345.7 68 350.01 73.25 354.35 C79.57 360.24 79.57 360.24 87.3 362.79 C90.45 361.48 92.52 359.72 95.07 357.46 C99.74 353.41 104.53 349.62 109.51 345.96 C117.21 340.25 124.64 334.25 132.04 328.17 C134.27 326.35 136.51 324.56 138.76 322.77 C149.68 314.05 160.51 305.24 171.12 296.16 C172.84 294.7 174.57 293.23 176.29 291.77 C182.65 286.36 188.92 280.88 195.06 275.22 C197.23 273.25 199.42 271.31 201.63 269.39 C212.43 259.97 222.67 249.95 232.82 239.83 C233.7 238.96 234.58 238.08 235.49 237.18 C239.85 232.8 244.05 228.36 248.08 223.67 C250.97 220.39 254.08 217.34 257.2 214.27 C257.83 213.64 258.47 213.01 259.12 212.36 C260.67 210.82 262.21 209.3 263.76 207.77 C267.72 210.24 267.72 210.24 271.76 212.77 C271.97 212.12 272.19 211.46 272.41 210.79 C274.25 206.67 276.77 203.16 279.32 199.46 C298.85 170.59 311.42 139.13 305.31 103.8 C300.25 77.98 288.25 54.23 266.09 39.13 C240.82 22.57 212.24 17.27 182.68 23.39 C181.05 23.71 179.41 23.95 177.76 24.18 C175.17 24.69 173.76 25.04 171.76 26.77 C170.32 30 169.42 33.17 168.57 36.61 C166.82 43.41 162.37 47.85 156.76 51.77 C149.63 55.96 140.83 55.95 132.95 54.11 C125.32 51.42 120.15 46.78 116.38 39.64 C112.83 31.72 112.82 23.56 115.53 15.36 C118.68 8.7 123.84 3.23 130.57 0.14 C138.57 -2.48 146.73 -2.27 154.43 1.11 C161.76 3.18 169.06 1.03 176.26 -0.67 C209.69 -8.41 244.19 -4.38 273.62 13.93 C282.45 19.68 290.18 26.48 297.76 33.77 C298.41 34.36 299.07 34.95 299.74 35.56 C318.19 52.7 327.15 79.53 330.76 103.77 C330.96 105.03 330.96 105.03 331.16 106.32 C336.41 147.46 321.15 185.41 297.37 218.12 C296.49 219.33 296.49 219.33 295.6 220.57 C295.08 221.28 294.55 222 294.01 222.73 C292.73 224.81 292.02 226.34 291.76 228.77 C292.42 229.43 293.08 230.09 293.76 230.77 C294.42 231.43 295.08 232.09 295.76 232.77 C295.23 237.25 292.26 240.02 289.38 243.27 C288.84 243.89 288.3 244.51 287.74 245.15 C283 250.55 278.17 255.88 273.27 261.14 C271.59 262.95 269.91 264.76 268.24 266.57 C252.74 283.27 252.74 283.27 244.21 290.6 C241.56 292.95 238.98 295.36 236.41 297.79 C230.62 303.26 224.78 308.53 218.55 313.5 C215.29 316.15 212.12 318.89 208.95 321.64 C203.73 326.16 198.39 330.47 192.94 334.69 C188.96 337.79 185.09 340.99 181.26 344.27 C175.15 349.5 168.86 354.47 162.52 359.4 C159.63 361.64 156.76 363.89 153.88 366.14 C153.03 366.82 153.03 366.82 152.15 367.5 C147.62 371.06 143.16 374.69 138.7 378.33 C132.92 383.05 127.08 387.63 121.14 392.14 C118.54 394.14 116 396.2 113.46 398.28 C112.37 399.18 112.37 399.18 111.25 400.09 C109.82 401.28 108.39 402.46 106.96 403.66 C106.31 404.19 105.66 404.73 105 405.28 C104.42 405.76 103.84 406.24 103.25 406.73 C101.76 407.77 101.76 407.77 99.76 407.77 C98.92 410.71 98.62 413.34 98.6 416.4 C98.58 417.77 98.58 417.77 98.57 419.16 C98.56 420.14 98.56 421.11 98.55 422.12 C98.55 423.13 98.54 424.13 98.54 425.17 C98.53 427.3 98.52 429.43 98.52 431.56 C98.51 434.82 98.48 438.09 98.45 441.35 C98.44 443.42 98.43 445.49 98.43 447.55 C98.42 448.53 98.4 449.51 98.39 450.52 C98.4 451.88 98.4 451.88 98.4 453.27 C98.4 454.07 98.39 454.87 98.39 455.69 C98.85 458.3 99.69 459.16 101.76 460.77 C104.23 461.71 104.23 461.71 107.07 462.35 C108.14 462.62 109.2 462.89 110.3 463.17 C111.44 463.45 112.58 463.73 113.76 464.02 C131.04 468.49 147.06 474.26 162.76 482.77 C163.85 483.36 164.94 483.95 166.07 484.55 C172.86 488.36 178.85 492.71 184.76 497.77 C185.59 498.46 186.43 499.15 187.29 499.86 C201.99 512.41 212.78 530.2 214.63 549.7 C214.69 550.73 214.69 550.73 214.76 551.77 C214.84 552.96 214.84 552.96 214.92 554.18 C215.53 572.27 209.65 588 197.51 601.22 C185.56 612.79 170.19 618.31 153.69 618.12 C135.12 617.48 120.71 608.22 108.25 595.14 C83.27 565.99 76.13 526.53 73.99 489.37 C73.76 486.78 73.32 484.31 72.76 481.77 C66.25 480.24 59.8 479.13 53.18 478.25 C51.13 477.97 49.07 477.69 47.02 477.41 C45.95 477.27 44.89 477.12 43.79 476.97 C24.27 474.29 4.94 471.38 -14.24 466.77 C-15.33 466.51 -16.41 466.26 -17.53 465.99 C-67.89 453.87 -116.85 429.42 -146.59 385.53 C-148.83 382.09 -148.83 382.09 -152.25 380.07 C-154.69 379.7 -156.42 380.11 -158.8 380.71 C-172.25 383.58 -185.58 381.11 -197.24 373.77 C-206.63 366.99 -213.87 356.93 -216.79 345.64 C-218.96 331.81 -217.82 318.36 -209.99 306.52 C-201.81 295.72 -192.68 288.86 -179.24 285.77 C-168.64 284.74 -157.82 284.7 -148.24 289.77 C-147.37 290.22 -146.5 290.66 -145.61 291.12 C-134.63 297.24 -127.57 305.89 -123.14 317.72 C-119.44 330.71 -120.04 344.43 -126.69 356.37 C-127.58 357.83 -128.51 359.27 -129.48 360.67 C-130.65 363.91 -129.63 365.7 -128.24 368.77 C-126.42 371.47 -126.42 371.47 -124.18 374.02 C-123.38 374.97 -122.57 375.92 -121.74 376.9 C-117.96 381.24 -114.16 385.55 -110.24 389.77 C-109.31 390.78 -109.31 390.78 -108.36 391.82 C-62.7 439.58 11.68 448.25 73.76 455.77 C73.72 449.45 73.64 443.14 73.55 436.82 C73.52 434.67 73.5 432.52 73.49 430.37 C73.47 427.28 73.42 424.19 73.37 421.1 C73.37 419.66 73.37 419.66 73.36 418.2 C73.27 413.95 73.18 411.45 70.9 407.78 C68.18 405.23 65.35 402.9 62.38 400.64 C61.12 399.67 59.86 398.7 58.6 397.72 C57.96 397.23 57.32 396.74 56.66 396.23 C53.72 393.97 50.8 391.68 47.88 389.39 C47.31 388.95 46.74 388.5 46.15 388.04 C40.93 383.93 35.79 379.74 30.65 375.54 C26.57 372.21 22.44 368.96 18.26 365.77 C12.67 361.51 7.21 357.11 1.78 352.66 C-2.58 349.1 -6.99 345.6 -11.43 342.14 C-17.13 337.7 -22.67 333.08 -28.16 328.38 C-30.97 325.99 -33.82 323.65 -36.68 321.33 C-47.34 312.63 -57.64 303.59 -67.7 294.2 C-70.09 291.99 -72.51 289.82 -74.93 287.64 C-80.27 282.75 -85.43 277.69 -90.55 272.58 C-91.31 271.83 -92.06 271.09 -92.84 270.31 C-96.95 266.19 -100.88 261.98 -104.68 257.58 C-106.79 255.13 -108.99 252.77 -111.18 250.39 C-115.77 245.36 -120.07 240.15 -124.24 234.77 C-122.91 233.34 -121.57 231.9 -120.24 230.47 C-119.03 228.82 -119.03 228.82 -119.52 226.89 C-120.31 224.58 -121.28 223.1 -122.76 221.18 C-123.28 220.49 -123.81 219.8 -124.34 219.09 C-124.91 218.34 -125.47 217.6 -126.05 216.83 C-151.31 182.59 -164.38 143.01 -158.05 100.33 C-154.46 78.46 -146.35 58.02 -132.24 40.77 C-131.8 40.22 -131.35 39.67 -130.89 39.11 C-110.51 14.58 -79.93 -0.58 -48.38 -4.07 C-32.13 -5.31 -15.67 -4.67 0 0 Z M-188.24 318.77 C-193.05 325.44 -194.17 330.64 -193.24 338.77 C-191.07 345.6 -187.39 351.01 -181.24 354.77 C-174.99 357.94 -169.02 358.6 -162.24 356.77 C-155.27 353.97 -150.8 350.06 -147.31 343.41 C-144.32 336.02 -144.75 329.74 -147.74 322.39 C-151.19 316.38 -156.62 311.85 -163.24 309.77 C-173.78 308.52 -181.26 310.63 -188.24 318.77 Z M98.76 485.77 C96.88 517.39 106.22 554.62 127.07 579.02 C135.1 587.58 143.39 592.66 155.07 594.21 C167.11 592.78 176.37 588.56 184.07 579.16 C189.89 571.02 191.69 560.23 190.32 550.42 C188.36 541.22 184.54 534.13 178.76 526.77 C178.25 526.09 177.73 525.42 177.21 524.72 C160.13 503.57 132.13 494.87 107.21 487.31 C106.23 487.01 105.25 486.71 104.25 486.41 C101.7 485.65 101.7 485.65 98.76 485.77 Z " fill="#0E61D4" transform="translate(217.2421875,4.23046875)"/>
<path d="M0 0 C1.62 0.01 1.62 0.01 3.27 0.01 C5.1 0.01 5.1 0.01 6.97 0.01 C8.31 0.02 9.65 0.03 10.98 0.05 C12.35 0.05 13.71 0.05 15.08 0.05 C18.67 0.06 22.26 0.08 25.86 0.1 C29.52 0.12 33.19 0.13 36.86 0.14 C44.05 0.16 51.25 0.2 58.44 0.24 C60.21 3.29 60.69 5.46 60.65 8.98 C60.65 9.91 60.65 10.85 60.64 11.81 C60.63 12.81 60.62 13.81 60.6 14.84 C60.6 15.87 60.59 16.91 60.59 17.97 C60.57 21.27 60.54 24.57 60.51 27.87 C60.48 31.17 60.45 34.48 60.44 37.78 C60.42 39.84 60.41 41.89 60.38 43.95 C60.38 44.88 60.37 45.81 60.36 46.76 C60.35 47.99 60.35 47.99 60.34 49.24 C60.31 51.31 60.31 51.31 61.44 53.24 C62.06 53.25 62.68 53.26 63.32 53.27 C69.76 53.35 76.2 53.45 82.64 53.56 C85.05 53.6 87.45 53.63 89.86 53.66 C93.31 53.71 96.76 53.77 100.21 53.83 C101.29 53.84 102.37 53.85 103.48 53.86 C104.48 53.88 105.48 53.9 106.51 53.92 C107.39 53.93 108.28 53.95 109.18 53.96 C111.44 54.24 111.44 54.24 114.44 56.24 C114.8 58.83 114.8 58.83 114.78 62.16 C114.78 63.4 114.78 64.64 114.78 65.92 C114.77 67.28 114.75 68.64 114.74 70 C114.73 71.39 114.73 72.77 114.72 74.16 C114.71 77.81 114.68 81.47 114.65 85.12 C114.62 88.85 114.61 92.57 114.59 96.3 C114.56 103.61 114.51 110.93 114.44 118.24 C111.98 119.47 110.29 119.4 107.54 119.45 C106 119.48 106 119.48 104.44 119.51 C102.78 119.53 102.78 119.53 101.09 119.56 C99.96 119.58 98.83 119.6 97.67 119.62 C94.05 119.69 90.44 119.74 86.82 119.8 C84.37 119.85 81.92 119.89 79.47 119.93 C73.46 120.04 67.45 120.14 61.44 120.24 C60.49 123.11 60.33 124.87 60.35 127.85 C60.35 128.78 60.35 129.71 60.36 130.67 C60.37 132.17 60.37 132.17 60.38 133.71 C60.38 134.74 60.39 135.77 60.39 136.84 C60.4 140.14 60.42 143.44 60.44 146.74 C60.47 151.08 60.49 155.43 60.51 159.77 C60.52 161.28 60.52 161.28 60.53 162.81 C60.53 163.74 60.54 164.67 60.54 165.63 C60.55 166.45 60.55 167.27 60.56 168.12 C60.44 170.24 60.44 170.24 59.44 173.24 C56.78 174.57 54.73 174.37 51.74 174.39 C50.55 174.39 49.35 174.4 48.12 174.41 C46.18 174.41 46.18 174.41 44.19 174.41 C42.86 174.41 41.52 174.42 40.18 174.42 C37.38 174.42 34.57 174.43 31.77 174.43 C28.17 174.43 24.57 174.44 20.97 174.46 C18.21 174.47 15.45 174.47 12.69 174.47 C10.71 174.47 8.74 174.48 6.77 174.49 C5.57 174.49 4.38 174.49 3.15 174.48 C2.09 174.48 1.04 174.49 -0.05 174.49 C-2.56 174.24 -2.56 174.24 -4.56 172.24 C-4.83 170.03 -4.83 170.03 -4.88 167.24 C-4.9 166.2 -4.91 165.16 -4.94 164.09 C-4.95 162.96 -4.96 161.83 -4.97 160.67 C-4.99 159.52 -5.01 158.37 -5.03 157.18 C-5.09 153.49 -5.14 149.8 -5.18 146.12 C-5.22 143.62 -5.26 141.12 -5.3 138.63 C-5.39 132.5 -5.48 126.37 -5.56 120.24 C-6.19 120.23 -6.82 120.22 -7.47 120.22 C-14.04 120.13 -20.61 120.03 -27.18 119.92 C-29.63 119.88 -32.09 119.85 -34.54 119.82 C-38.06 119.77 -41.58 119.72 -45.11 119.65 C-46.21 119.64 -47.31 119.63 -48.44 119.62 C-49.46 119.6 -50.48 119.58 -51.53 119.56 C-52.43 119.55 -53.33 119.53 -54.26 119.52 C-56.56 119.24 -56.56 119.24 -59.56 117.24 C-59.93 114.7 -59.93 114.7 -59.93 111.45 C-59.93 110.23 -59.94 109.02 -59.95 107.76 C-59.94 106.45 -59.93 105.13 -59.92 103.77 C-59.92 102.41 -59.92 101.05 -59.92 99.69 C-59.92 96.84 -59.91 93.99 -59.89 91.14 C-59.87 87.48 -59.87 83.82 -59.88 80.16 C-59.88 77.35 -59.87 74.54 -59.86 71.74 C-59.86 69.73 -59.86 67.72 -59.86 65.72 C-59.85 64.5 -59.84 63.29 -59.83 62.04 C-59.83 60.96 -59.82 59.89 -59.82 58.78 C-59.56 56.24 -59.56 56.24 -57.56 54.24 C-55.34 53.96 -55.34 53.96 -52.56 53.92 C-51.51 53.9 -50.47 53.88 -49.4 53.86 C-48.27 53.85 -47.15 53.84 -45.99 53.83 C-44.83 53.81 -43.68 53.79 -42.5 53.77 C-38.81 53.71 -35.12 53.66 -31.43 53.62 C-28.94 53.58 -26.44 53.54 -23.94 53.5 C-17.81 53.4 -11.69 53.32 -5.56 53.24 C-5.55 52.61 -5.54 51.97 -5.53 51.32 C-5.45 44.73 -5.35 38.15 -5.24 31.56 C-5.2 29.1 -5.17 26.64 -5.13 24.18 C-5.09 20.65 -5.03 17.12 -4.97 13.59 C-4.96 12.49 -4.95 11.38 -4.94 10.24 C-4.92 9.22 -4.9 8.2 -4.88 7.15 C-4.86 6.25 -4.85 5.35 -4.83 4.42 C-4.41 1.07 -3.3 0.31 0 0 Z " fill="#075DD3" transform="translate(309.5563049316406,113.75949096679688)"/>
<path d="M0 0 C96.42 0 96.42 0 123.54 25.45 C141.94 44.49 151.53 67.44 152.25 93.94 C152.2 95.63 152.11 97.31 152 99 C151.92 100.24 151.84 101.48 151.76 102.75 C149.55 129.57 136.7 151 117 169 C83.89 196.58 40.83 189 0 189 C0 126.63 0 64.26 0 0 Z M35 34 C35 73.93 35 113.86 35 155 C65.18 155.08 65.18 155.08 91 142 C91.59 141.58 92.18 141.17 92.79 140.74 C103.91 132.25 111.49 117.18 113.71 103.61 C115.68 85.68 111.08 70.05 100.12 55.75 C89.46 43.06 78.1 38.02 62 34 C53.09 34 44.18 34 35 34 Z " fill="#0B5FD3" transform="translate(463,309)"/>
<path d="M0 0 C39.6 0 79.2 0 120 0 C120 11.22 120 22.44 120 34 C92.28 34 64.56 34 36 34 C36 46.54 36 59.08 36 72 C59.1 72 82.2 72 106 72 C106 83.22 106 94.44 106 106 C82.9 106 59.8 106 36 106 C36 122.17 36 138.34 36 155 C63.72 155 91.44 155 120 155 C120 166.22 120 177.44 120 189 C80.4 189 40.8 189 0 189 C0 126.63 0 64.26 0 0 Z " fill="#0C60D4" transform="translate(641,309)"/>
<path d="M0 0 C39.27 0 78.54 0 119 0 C119 11.22 119 22.44 119 34 C91.28 34 63.56 34 35 34 C35 46.54 35 59.08 35 72 C58.43 72 81.86 72 106 72 C106 83.22 106 94.44 106 106 C82.57 106 59.14 106 35 106 C35 122.17 35 138.34 35 155 C62.72 155 90.44 155 119 155 C119 166.22 119 177.44 119 189 C79.73 189 40.46 189 0 189 C0 126.63 0 64.26 0 0 Z " fill="#0A5ED3" transform="translate(1321,309)"/>
<path d="M0 0 C14.15 12.01 21.13 25.68 23.43 44.06 C9.9 44.06 -3.63 44.06 -17.57 44.06 C-19.88 39.44 -22.19 34.82 -24.57 30.06 C-27.5 27.27 -29.16 25.78 -32.57 24.06 C-33.2 23.72 -33.83 23.39 -34.48 23.05 C-43.3 19.29 -55.54 19.67 -64.57 22.62 C-76.88 27.96 -83.26 37.18 -88.48 49.16 C-96.18 69.51 -96.57 94.99 -88.29 115.2 C-81.59 128.57 -71.92 135.76 -58.27 140.93 C-40.61 145.9 -20.64 140.53 -4.57 133.06 C-3.3 132.34 -2.03 131.61 -0.76 130.87 C2.43 129.06 2.43 129.06 4.43 129.06 C4.43 140.94 4.43 152.82 4.43 165.06 C-11.35 172.95 -11.35 172.95 -17.57 174.43 C-19.37 174.88 -19.37 174.88 -21.2 175.33 C-45.59 180.58 -73.24 178.67 -94.57 165.06 C-115.08 150.72 -126.02 129.68 -130.58 105.52 C-131.91 97.91 -132.04 90.39 -131.95 82.68 C-131.94 81.97 -131.94 81.25 -131.94 80.51 C-131.72 51.81 -124.86 24.46 -104.05 3.52 C-76.62 -20.45 -28.97 -22.7 0 0 Z " fill="#0C60D4" transform="translate(914.57421875,321.94140625)"/>
<path d="M0 0 C38.28 0 76.56 0 116 0 C116 35.28 116 35.28 104.76 50.28 C99.93 56.9 95.81 63.86 91.7 70.94 C89.7 74.37 87.68 77.78 85.66 81.19 C85.26 81.85 84.87 82.52 84.46 83.2 C80.09 90.56 75.59 97.82 71.08 105.09 C64.71 115.4 58.54 125.81 52.38 136.24 C51.99 136.9 51.61 137.55 51.21 138.23 C50.16 140.01 49.11 141.79 48.06 143.57 C45.76 147.41 43.37 151.2 41 155 C65.75 155 90.5 155 116 155 C116 166.22 116 177.44 116 189 C76.4 189 36.8 189 -4 189 C-4 155.44 -4 155.44 4.43 145.06 C7.53 141 10.02 136.52 12.62 132.12 C13.82 130.15 15.02 128.17 16.23 126.2 C16.84 125.18 17.46 124.17 18.09 123.13 C21.38 117.74 24.69 112.37 28 107 C33.02 98.85 38.03 90.68 43 82.5 C47.78 74.64 52.58 66.78 57.39 58.95 C58.4 57.31 59.4 55.68 60.41 54.04 C61.04 53.02 61.66 52 62.31 50.95 C62.85 50.07 63.4 49.18 63.96 48.27 C66.94 43.49 69.98 38.75 73 34 C48.91 33.67 24.82 33.34 0 33 C0 22.11 0 11.22 0 0 Z " fill="#0D61D4" transform="translate(1065,309)"/>
<path d="M0 0 C26.4 0 52.8 0 80 0 C80 11.22 80 22.44 80 34 C72.74 34 65.48 34 58 34 C58 73.93 58 113.86 58 155 C65.26 155 72.52 155 80 155 C80 166.22 80 177.44 80 189 C53.6 189 27.2 189 0 189 C0 177.78 0 166.56 0 155 C7.26 155 14.52 155 22 155 C22 115.07 22 75.14 22 34 C14.74 34 7.48 34 0 34 C0 22.78 0 11.56 0 0 Z " fill="#1062D4" transform="translate(957,309)"/>
<path d="M0 0 C26.4 0 52.8 0 80 0 C80 11.22 80 22.44 80 34 C72.74 34 65.48 34 58 34 C58 73.93 58 113.86 58 155 C65.26 155 72.52 155 80 155 C80 166.22 80 177.44 80 189 C53.6 189 27.2 189 0 189 C0 177.78 0 166.56 0 155 C7.59 155 15.18 155 23 155 C23 115.07 23 75.14 23 34 C15.41 34 7.82 34 0 34 C0 22.78 0 11.56 0 0 Z " fill="#0E61D4" transform="translate(1206,309)"/>
<path d="M0 0 C1.31 -0 2.62 -0.01 3.96 -0.01 C6.72 -0.01 9.48 -0.01 12.24 0.01 C15.76 0.02 19.28 0.01 22.8 -0 C26.18 -0.02 29.56 -0.01 32.94 0 C34.2 -0.01 35.46 -0.01 36.75 -0.02 C37.93 -0.01 39.11 0 40.32 0.01 C41.36 0.01 42.39 0.02 43.45 0.02 C47.78 0.58 51.16 2.14 54.23 5.26 C55.63 7.81 55.9 9.76 56.09 12.65 C56.16 13.54 56.22 14.43 56.29 15.35 C56.35 16.36 56.35 16.36 56.4 17.4 C51.12 19.48 46.01 19.98 40.4 20.4 C40.4 18.09 40.4 15.78 40.4 13.4 C24.89 13.4 9.38 13.4 -6.6 13.4 C-6.6 26.93 -6.6 40.46 -6.6 54.4 C8.91 54.4 24.42 54.4 40.4 54.4 C40.4 49.78 40.4 45.16 40.4 40.4 C32.15 40.4 23.9 40.4 15.4 40.4 C15.4 36.44 15.4 32.48 15.4 28.4 C28.93 28.4 42.46 28.4 56.4 28.4 C56.44 32.52 56.48 36.65 56.53 40.9 C56.55 42.18 56.56 43.47 56.58 44.79 C56.61 51.01 56.44 56.5 54.4 62.4 C50.1 66.7 46.59 67.52 40.67 67.56 C38.9 67.57 38.9 67.57 37.09 67.59 C35.18 67.6 35.18 67.6 33.23 67.6 C31.92 67.61 30.61 67.61 29.26 67.62 C26.48 67.63 23.7 67.64 20.93 67.64 C17.38 67.64 13.84 67.67 10.29 67.7 C6.9 67.72 3.5 67.72 0.11 67.73 C-1.16 67.74 -2.43 67.75 -3.73 67.76 C-15.83 67.73 -15.83 67.73 -20.6 64.4 C-24.22 58.9 -24.04 52.41 -24 46.05 C-24 45.09 -24 44.12 -24 43.12 C-24.01 41.08 -24 39.05 -23.99 37.01 C-23.97 33.91 -23.99 30.81 -24.01 27.71 C-24.01 25.72 -24 23.73 -24 21.74 C-24 20.82 -24.01 19.91 -24.01 18.96 C-23.95 13.45 -23.71 8.12 -20.6 3.4 C-14.49 -0.85 -7.2 -0.03 0 0 Z " fill="#1B69D6" transform="translate(1125.59765625,516.6015625)"/>
<path d="M0 0 C1.24 -0.01 2.48 -0.02 3.75 -0.03 C5.11 -0.03 6.46 -0.04 7.82 -0.04 C9.21 -0.05 10.6 -0.05 11.99 -0.06 C14.91 -0.07 17.83 -0.08 20.75 -0.08 C24.47 -0.08 28.2 -0.11 31.93 -0.14 C34.8 -0.16 37.68 -0.16 40.55 -0.16 C41.93 -0.17 43.3 -0.17 44.67 -0.19 C59.09 -0.32 59.09 -0.32 63.99 3.16 C67.61 8.66 67.43 15.15 67.39 21.5 C67.39 22.47 67.39 23.44 67.39 24.44 C67.4 26.48 67.39 28.51 67.38 30.55 C67.36 33.65 67.38 36.75 67.4 39.85 C67.4 41.84 67.39 43.83 67.39 45.82 C67.39 46.74 67.4 47.65 67.4 48.6 C67.34 54.11 67.1 59.44 63.99 64.16 C57.78 68.55 50.06 67.6 42.73 67.56 C41.35 67.56 39.96 67.56 38.57 67.57 C35.67 67.57 32.77 67.57 29.87 67.55 C26.17 67.54 22.46 67.55 18.76 67.56 C15.9 67.57 13.03 67.57 10.17 67.56 C8.81 67.56 7.44 67.56 6.08 67.57 C4.16 67.58 2.25 67.56 0.34 67.55 C-0.74 67.55 -1.83 67.54 -2.95 67.54 C-7.34 67 -10.74 65.48 -13.83 62.29 C-16.7 57.15 -16.17 51.23 -16.18 45.51 C-16.18 44.58 -16.19 43.65 -16.19 42.69 C-16.2 40.73 -16.2 38.76 -16.2 36.8 C-16.2 33.8 -16.22 30.81 -16.24 27.82 C-16.24 25.9 -16.24 23.99 -16.24 22.08 C-16.25 21.19 -16.26 20.3 -16.26 19.38 C-16.25 14.26 -15.82 9.98 -14.01 5.16 C-9.55 0.82 -6.08 0.04 0 0 Z M0.99 13.16 C0.99 26.69 0.99 40.22 0.99 54.16 C17.16 54.16 33.33 54.16 49.99 54.16 C49.99 40.63 49.99 27.1 49.99 13.16 C33.82 13.16 17.65 13.16 0.99 13.16 Z " fill="#1D6BD7" transform="translate(482.0126953125,516.8388671875)"/>
<path d="M0 0 C1.24 -0.01 2.48 -0.02 3.75 -0.03 C5.11 -0.03 6.46 -0.04 7.82 -0.04 C9.21 -0.05 10.6 -0.05 11.99 -0.06 C14.91 -0.07 17.83 -0.08 20.75 -0.08 C24.47 -0.08 28.2 -0.11 31.93 -0.14 C34.8 -0.16 37.68 -0.16 40.55 -0.16 C41.93 -0.17 43.3 -0.17 44.67 -0.19 C58.93 -0.31 58.93 -0.31 63.99 3.16 C67.56 8.8 67.43 14.35 67.39 20.88 C67.39 21.9 67.39 22.91 67.39 23.96 C67.4 26.1 67.39 28.24 67.38 30.39 C67.36 33.65 67.38 36.92 67.4 40.18 C67.4 42.27 67.39 44.36 67.39 46.44 C67.39 47.41 67.4 48.38 67.4 49.38 C67.35 55.03 67.05 59.33 63.99 64.16 C57.68 68.47 50.11 67.6 42.73 67.56 C41.35 67.56 39.96 67.56 38.57 67.57 C35.67 67.57 32.77 67.57 29.87 67.55 C26.17 67.54 22.46 67.55 18.76 67.56 C15.9 67.57 13.03 67.57 10.17 67.56 C8.81 67.56 7.44 67.56 6.08 67.57 C4.16 67.58 2.25 67.56 0.34 67.55 C-0.74 67.55 -1.83 67.54 -2.95 67.54 C-7.27 67 -10.63 65.45 -13.83 62.47 C-16.67 56.94 -16.17 49.76 -16.18 43.64 C-16.18 42.85 -16.19 42.07 -16.19 41.26 C-16.2 39.6 -16.2 37.95 -16.2 36.3 C-16.2 33.8 -16.22 31.3 -16.24 28.8 C-16.31 7.58 -16.31 7.58 -11.58 2.6 C-7.55 0.34 -4.55 0.03 0 0 Z M0.99 13.16 C0.99 26.69 0.99 40.22 0.99 54.16 C17.49 54.16 33.99 54.16 50.99 54.16 C50.99 40.63 50.99 27.1 50.99 13.16 C34.49 13.16 17.99 13.16 0.99 13.16 Z " fill="#1A69D6" transform="translate(808.0126953125,516.8388671875)"/>
<path d="M0 0 C1.39 -0 2.78 -0 4.16 -0.01 C7.06 -0.01 9.96 -0.01 12.86 0.01 C16.57 0.02 20.27 0.01 23.97 -0 C26.84 -0.01 29.7 -0.01 32.56 -0 C33.93 -0 35.29 -0 36.66 -0.01 C38.57 -0.02 40.48 -0 42.39 0.01 C43.48 0.01 44.56 0.02 45.68 0.02 C50.13 0.57 53.52 2.09 56.59 5.37 C58.4 10.13 58.19 14.79 58.18 19.83 C58.18 20.94 58.19 22.05 58.2 23.2 C58.2 25.54 58.2 27.89 58.19 30.24 C58.18 33.82 58.21 37.4 58.24 40.99 C58.25 43.27 58.25 45.55 58.24 47.83 C58.25 48.9 58.26 49.97 58.28 51.07 C58.22 56.92 58.04 61 53.75 65.4 C49.56 67.12 45.99 67.65 41.48 67.67 C39.66 67.69 39.66 67.69 37.79 67.7 C36.49 67.7 35.19 67.7 33.84 67.7 C32.48 67.7 31.11 67.71 29.75 67.71 C26.9 67.72 24.04 67.72 21.19 67.71 C17.55 67.71 13.9 67.73 10.26 67.75 C7.44 67.76 4.63 67.76 1.81 67.76 C-0.18 67.76 -2.17 67.78 -4.16 67.79 C-16.2 67.73 -16.2 67.73 -21.25 64.4 C-25.18 59.27 -24.69 53.49 -24.65 47.3 C-24.66 46.24 -24.66 45.17 -24.66 44.08 C-24.66 41.83 -24.66 39.59 -24.65 37.34 C-24.63 33.91 -24.64 30.48 -24.66 27.05 C-24.66 24.86 -24.66 22.68 -24.65 20.49 C-24.66 18.96 -24.66 18.96 -24.67 17.4 C-24.58 7.73 -24.58 7.73 -21.25 3.4 C-14.85 -0.84 -7.42 -0.04 0 0 Z M-8.25 13.4 C-8.25 26.93 -8.25 40.46 -8.25 54.4 C8.25 54.4 24.75 54.4 41.75 54.4 C41.75 40.87 41.75 27.34 41.75 13.4 C25.25 13.4 8.75 13.4 -8.25 13.4 Z " fill="#1B6AD6" transform="translate(1014.25390625,516.6015625)"/>
<path d="M0 0 C13.35 0 13.35 0 17.02 3.35 C17.49 3.83 17.95 4.32 18.44 4.81 C19.53 5.83 20.62 6.84 21.71 7.86 C22.25 8.38 22.79 8.9 23.35 9.44 C26.01 11.95 28.82 14.28 31.62 16.62 C32.71 17.54 33.8 18.46 34.88 19.38 C38.6 22.52 42.38 25.59 46.15 28.66 C49.5 31.41 52.82 34.2 56.12 37 C56.69 37.48 57.26 37.96 57.85 38.46 C61.86 41.86 61.86 41.86 63 43 C63.33 28.81 63.66 14.62 64 0 C68.95 0 73.9 0 79 0 C79 22.11 79 44.22 79 67 C65.52 67 65.52 67 61.62 63.25 C60.73 62.43 59.84 61.61 58.91 60.77 C58.45 60.32 57.98 59.87 57.5 59.41 C54.76 56.83 51.87 54.43 49 52 C47.8 50.97 46.6 49.94 45.41 48.91 C42.47 46.39 39.5 43.93 36.5 41.5 C20.55 28.55 20.55 28.55 16 24 C15.67 38.19 15.34 52.38 15 67 C10.05 67 5.1 67 0 67 C0 44.89 0 22.78 0 0 Z " fill="#216ED7" transform="translate(580,517)"/>
<path d="M0 0 C1.72 -0 1.72 -0 3.48 -0.01 C5.91 -0.01 8.33 -0.01 10.76 0.01 C14.46 0.02 18.16 0.01 21.86 -0.01 C24.22 -0.01 26.58 -0.01 28.94 0 C30.04 -0.01 31.14 -0.01 32.27 -0.02 C38.26 0.04 42.74 0.38 47.97 3.4 C52.08 9.5 51.26 16.27 50.97 23.4 C49.43 23.74 47.89 24.07 46.34 24.4 C45.49 24.58 44.63 24.77 43.74 24.96 C40.97 25.4 40.97 25.4 34.97 25.4 C34.97 21.44 34.97 17.48 34.97 13.4 C21.44 13.4 7.91 13.4 -6.03 13.4 C-6.03 26.93 -6.03 40.46 -6.03 54.4 C7.5 54.4 21.03 54.4 34.97 54.4 C34.97 49.45 34.97 44.5 34.97 39.4 C40.25 40.39 45.53 41.38 50.97 42.4 C51.03 44.91 51.09 47.43 51.16 50.02 C51.2 51.19 51.2 51.19 51.24 52.39 C51.29 57.09 50.81 60.47 47.97 64.4 C41.77 67.95 35.96 67.84 28.94 67.8 C27.79 67.8 26.64 67.8 25.45 67.81 C23.03 67.81 20.61 67.8 18.18 67.79 C14.48 67.77 10.78 67.79 7.08 67.81 C4.72 67.81 2.36 67.8 0 67.8 C-1.1 67.8 -2.2 67.81 -3.34 67.82 C-9.28 67.76 -13.94 67.61 -19.03 64.4 C-22.96 59.27 -22.47 53.49 -22.43 47.3 C-22.43 46.24 -22.44 45.17 -22.44 44.08 C-22.44 41.83 -22.43 39.59 -22.42 37.34 C-22.41 33.91 -22.42 30.48 -22.44 27.05 C-22.44 24.86 -22.44 22.68 -22.43 20.49 C-22.44 18.96 -22.44 18.96 -22.45 17.4 C-22.35 7.73 -22.35 7.73 -19.03 3.4 C-13.04 -0.38 -6.92 -0.04 0 0 Z " fill="#1D6BD7" transform="translate(712.03125,516.6015625)"/>
<path d="M0 0 C1.72 -0 1.72 -0 3.48 -0.01 C5.91 -0.01 8.33 -0.01 10.76 0.01 C14.46 0.02 18.16 0.01 21.86 -0.01 C24.22 -0.01 26.58 -0.01 28.94 0 C30.04 -0.01 31.14 -0.01 32.27 -0.02 C38.26 0.04 42.74 0.38 47.97 3.4 C52.08 9.5 51.26 16.27 50.97 23.4 C49.43 23.74 47.89 24.07 46.34 24.4 C45.49 24.58 44.63 24.77 43.74 24.96 C40.97 25.4 40.97 25.4 34.97 25.4 C34.97 21.44 34.97 17.48 34.97 13.4 C21.44 13.4 7.91 13.4 -6.03 13.4 C-6.03 26.93 -6.03 40.46 -6.03 54.4 C7.5 54.4 21.03 54.4 34.97 54.4 C34.97 49.45 34.97 44.5 34.97 39.4 C40.25 40.39 45.53 41.38 50.97 42.4 C51.03 44.91 51.09 47.43 51.16 50.02 C51.2 51.19 51.2 51.19 51.24 52.39 C51.29 57.09 50.81 60.47 47.97 64.4 C41.77 67.95 35.96 67.84 28.94 67.8 C27.79 67.8 26.64 67.8 25.45 67.81 C23.03 67.81 20.61 67.8 18.18 67.79 C14.48 67.77 10.78 67.79 7.08 67.81 C4.72 67.81 2.36 67.8 0 67.8 C-1.1 67.8 -2.2 67.81 -3.34 67.82 C-9.28 67.76 -13.94 67.61 -19.03 64.4 C-22.96 59.27 -22.47 53.49 -22.43 47.3 C-22.43 46.24 -22.44 45.17 -22.44 44.08 C-22.44 41.83 -22.43 39.59 -22.42 37.34 C-22.41 33.91 -22.42 30.48 -22.44 27.05 C-22.44 24.86 -22.44 22.68 -22.43 20.49 C-22.44 18.96 -22.44 18.96 -22.45 17.4 C-22.35 7.73 -22.35 7.73 -19.03 3.4 C-13.04 -0.38 -6.92 -0.04 0 0 Z " fill="#1E6BD7" transform="translate(1283.03125,516.6015625)"/>
<path d="M0 0 C4.03 0.22 5.76 0.56 8.77 3.4 C10.69 6.65 12.34 9.92 13.94 13.34 C16.39 18.31 19.25 23.06 22.03 27.85 C23.78 30.87 25.5 33.91 27.23 36.95 C29.79 41.45 32.37 45.94 34.97 50.41 C35.53 51.38 36.09 52.35 36.67 53.34 C37.71 55.14 38.76 56.94 39.82 58.73 C40.28 59.53 40.74 60.32 41.21 61.14 C41.61 61.83 42.01 62.51 42.42 63.22 C43.27 65.04 43.27 65.04 43.27 68.04 C37.33 68.04 31.39 68.04 25.27 68.04 C22.96 63.75 20.65 59.46 18.27 55.04 C4.41 54.71 -9.45 54.38 -23.73 54.04 C-25.12 58.2 -25.12 58.2 -26.46 62.38 C-27.61 65 -28.41 66.31 -30.73 68.04 C-36.14 68.75 -41.3 68.5 -46.73 68.04 C-45.49 64.03 -44.02 60.49 -41.96 56.83 C-41.41 55.85 -40.86 54.86 -40.29 53.84 C-39.69 52.8 -39.09 51.75 -38.48 50.67 C-37.55 49.03 -37.55 49.03 -36.61 47.35 C-31.66 38.61 -26.62 29.93 -21.52 21.27 C-18.2 15.63 -15 9.93 -11.91 4.15 C-9.36 -0.4 -4.8 0.09 0 0 Z M-2.73 16.04 C-4.9 19.83 -7.07 23.62 -9.23 27.42 C-9.85 28.5 -10.47 29.58 -11.11 30.69 C-11.99 32.24 -11.99 32.24 -12.88 33.82 C-13.43 34.77 -13.97 35.72 -14.54 36.7 C-15.88 38.9 -15.88 38.9 -15.73 41.04 C-6.82 41.04 2.09 41.04 11.27 41.04 C5.04 28.4 5.04 28.4 -1.73 16.04 C-2.06 16.04 -2.39 16.04 -2.73 16.04 Z " fill="#1E6BD7" transform="translate(1396.728515625,515.9580078125)"/>
<path d="M0 0 C5.61 0 11.22 0 17 0 C17 17.82 17 35.64 17 54 C33.17 54 49.34 54 66 54 C66 58.29 66 62.58 66 67 C44.22 67 22.44 67 0 67 C0 44.89 0 22.78 0 0 Z " fill="#1E6CD7" transform="translate(906,517)"/>
<path d="M0 0 C5.28 0 10.56 0 16 0 C16 22.11 16 44.22 16 67 C10.72 67 5.44 67 0 67 C0 44.89 0 22.78 0 0 Z " fill="#1767D6" transform="translate(1213,517)"/>
</svg>
