<?xml version="1.0" encoding="UTF-8"?>
<!-- Generator: visioncortex VTracer 0.6.4 -->
<svg version="1.1" xmlns="http://www.w3.org/2000/svg" width="2108" height="371">
<path d="M0 0 C25.74 0 51.48 0 78 0 C78 33.99 78 67.98 78 103 C81.63 100.69 85.26 98.38 89 96 C116.74 82.13 151.66 78.59 181.39 87.68 C192.49 91.74 202.13 97.15 211 105 C211.97 105.78 212.94 106.55 213.95 107.36 C236.35 126.03 245.97 159.4 248.81 187.32 C251.15 221.15 247.97 256.79 225.05 283.68 C224.37 284.44 223.7 285.21 223 286 C222.32 286.82 221.65 287.64 220.95 288.48 C203.63 308.87 177.79 320.7 151.47 323.8 C122.75 326.11 94.89 324.08 72 305 C71.67 311.6 71.34 318.2 71 325 C47.57 325 24.14 325 0 325 C0 217.75 0 110.5 0 0 Z M94 159 C93.4 159.46 92.8 159.91 92.18 160.38 C82.44 168.76 77.33 183.64 76 196 C74.64 214.66 78.07 230.68 89 246 C89.58 246.87 90.15 247.73 90.75 248.62 C99.37 257.72 110.63 262.25 122.97 263.24 C137.45 263.59 148.7 259.07 159.19 249.25 C172.54 235.18 175.44 216.91 175.21 198.22 C174.78 183.1 168.74 171.43 158 161 C146.54 150.79 133.01 147.96 118 148.8 C108.93 149.69 101.03 153.33 94 159 Z " fill="#009A56" transform="translate(1378,6)"/>
<path d="M0 0 C22.65 20.45 35.72 48.75 37.88 79.21 C39.29 110.68 31.86 144.55 10.25 168.56 C8.83 170.04 7.42 171.52 6 173 C5.22 174.01 4.43 175.02 3.62 176.06 C-0.44 180.61 -5.24 184.21 -10 188 C-11.55 189.55 -11.24 190.96 -11.31 193.12 C-10.99 213.48 1.29 231.02 12.03 247.4 C13 249 13 249 13 250 C-9.54 248.81 -30.37 234.82 -49.17 223.67 C-53.21 221.29 -57.28 218.98 -61.38 216.69 C-62.03 216.32 -62.68 215.95 -63.36 215.58 C-68.41 212.75 -71.1 211.87 -76.96 211.79 C-78.41 211.76 -79.86 211.74 -81.3 211.71 C-82.44 211.69 -82.44 211.69 -83.6 211.67 C-110.47 211.15 -135.28 207.47 -159 194 C-159.98 193.45 -160.96 192.89 -161.98 192.32 C-187.37 177.02 -204.6 151.51 -211.88 123 C-219.53 91.07 -216.4 57.79 -200.28 28.91 C-196.36 22.54 -191.82 16.71 -187 11 C-186.33 10.19 -185.67 9.38 -184.98 8.54 C-165.29 -14.58 -133.29 -29.41 -103.17 -31.87 C-65.22 -34.13 -29.09 -25.51 0 0 Z " fill="#4983C4" transform="translate(492,121)"/>
<path d="M0 0 C25.41 0 50.82 0 77 0 C77 106.92 77 213.84 77 324 C53.57 324 30.14 324 6 324 C5.67 317.4 5.34 310.8 5 304 C2.34 306.29 2.34 306.29 -0.38 308.62 C-8.32 315.26 -16 319.88 -25.81 323.25 C-26.52 323.5 -27.23 323.74 -27.97 324 C-39.64 327.78 -51.56 328.41 -63.75 328.38 C-64.45 328.37 -65.15 328.37 -65.88 328.37 C-92.34 328.28 -113.78 319.4 -133 301 C-133.75 300.33 -134.5 299.65 -135.27 298.96 C-154.57 280.94 -164.95 253.57 -169 228 C-169.18 226.85 -169.37 225.69 -169.56 224.5 C-171.55 207.8 -171.58 188.25 -167 172 C-166.65 170.77 -166.65 170.77 -166.3 169.51 C-161.31 152.38 -154.37 137.88 -143 124 C-142.31 123.15 -141.63 122.3 -140.92 121.42 C-124.09 101.6 -100.54 91.04 -75 88 C-69.91 87.69 -64.85 87.62 -59.75 87.62 C-59.07 87.63 -58.38 87.63 -57.68 87.63 C-47.2 87.67 -37.87 88.3 -28 92 C-27.3 92.26 -26.59 92.53 -25.87 92.8 C-17.3 96.05 -9.22 99.89 -1 104 C-0.5 52.52 -0.5 52.52 0 0 Z M-83 164 C-90.7 172.85 -95.7 185.17 -96 197 C-96.04 198.05 -96.08 199.1 -96.12 200.18 C-96.47 218.63 -95.45 238.4 -82.45 252.71 C-71.25 263.26 -56.14 264.57 -41.52 264.25 C-28 263.68 -17.22 259.89 -7.33 250.61 C4.16 237.74 5.74 218.67 5.14 202.15 C4.18 187.15 -0.27 172.86 -11 162 C-30.46 145.16 -64.83 144.58 -83 164 Z " fill="#4983C4" transform="translate(170,0)"/>
<path d="M0 0 C25.08 0 50.16 0 76 0 C76.05 10.09 76.1 20.18 76.15 30.57 C76.18 36.98 76.22 43.39 76.26 49.79 C76.32 59.95 76.38 70.11 76.42 80.27 C76.45 87.68 76.49 95.08 76.54 102.48 C76.57 106.39 76.59 110.31 76.6 114.22 C76.62 117.92 76.64 121.61 76.67 125.31 C76.68 127.29 76.68 129.27 76.69 131.25 C76.81 144.49 77.74 157.35 84.75 168.88 C91.22 174.99 99.3 176.5 108 177 C115.19 176.63 121.55 174.85 127 170 C137.75 157.9 136.14 138 136.21 122.95 C136.21 121.6 136.22 120.24 136.24 118.89 C136.26 115.27 136.28 111.64 136.3 108.02 C136.33 104.21 136.35 100.41 136.38 96.6 C136.43 89.42 136.47 82.23 136.52 75.05 C136.58 65.32 136.64 55.6 136.71 45.88 C136.81 30.58 136.9 15.29 137 0 C161.09 0 185.18 0 210 0 C210 80.19 210 160.38 210 243 C185.91 243 161.82 243 137 243 C136.67 236.07 136.34 229.14 136 222 C134.89 223.18 133.77 224.35 132.62 225.56 C118.82 239.24 102.99 242.93 84 243 C60.8 242.39 39.8 237.59 22.8 220.84 C3.21 199.75 -0.18 169.92 -0.11 142.36 C-0.11 140.8 -0.11 139.24 -0.11 137.69 C-0.11 133.48 -0.11 129.28 -0.1 125.08 C-0.1 120.68 -0.09 116.28 -0.09 111.88 C-0.09 103.55 -0.08 95.23 -0.07 86.91 C-0.06 75.65 -0.05 64.4 -0.05 53.14 C-0.04 35.43 -0.02 17.71 0 0 Z " fill="#009A56" transform="translate(1654,87)"/>
<path d="M0 0 C24.09 0 48.18 0 73 0 C73.33 6.93 73.66 13.86 74 21 C75.65 19.02 77.3 17.04 79 15 C94.66 1.32 112.94 -1.09 133.05 0.12 C154.34 1.61 174.69 7.98 189.22 24.53 C205 45.2 209.35 70.09 209.23 95.53 C209.23 97.15 209.23 98.77 209.23 100.38 C209.23 104.73 209.22 109.08 209.2 113.43 C209.19 118 209.19 122.56 209.19 127.12 C209.18 135.74 209.16 144.36 209.14 152.98 C209.12 164.64 209.11 176.3 209.1 187.96 C209.08 206.31 209.04 224.65 209 243 C183.92 243 158.84 243 133 243 C132.96 232.47 132.93 221.93 132.89 211.08 C132.86 204.4 132.83 197.71 132.79 191.03 C132.74 180.42 132.69 169.82 132.65 159.21 C132.63 151.49 132.6 143.76 132.55 136.04 C132.53 131.95 132.51 127.87 132.5 123.78 C132.5 119.93 132.48 116.07 132.45 112.22 C132.44 110.81 132.43 109.41 132.43 108 C132.45 94.05 131.06 81.75 121.44 71.19 C114.31 65.83 104.64 65.39 96.11 66.38 C90.03 67.59 85.12 69.4 81.12 74.31 C73.82 85.87 73.85 98.07 73.79 111.31 C73.79 112.75 73.78 114.19 73.76 115.63 C73.74 119.52 73.72 123.4 73.7 127.29 C73.67 131.36 73.65 135.43 73.62 139.5 C73.57 147.2 73.53 154.9 73.48 162.6 C73.42 173.01 73.36 183.42 73.29 193.83 C73.19 210.22 73.1 226.61 73 243 C48.91 243 24.82 243 0 243 C0 162.81 0 82.62 0 0 Z " fill="#009A56" transform="translate(1899,87)"/>
<path d="M0 0 C0.92 0.45 1.84 0.9 2.79 1.36 C28.4 14.48 48.3 38.44 57.81 65.44 C58.57 67.95 59.3 70.47 60 73 C60.32 74.13 60.64 75.25 60.97 76.41 C69.05 110.81 61.07 148.21 43 178 C26.91 203.17 1.01 220.39 -27.99 226.93 C-63.85 234.54 -101.09 230.51 -132.46 210.88 C-160.68 192.09 -179.52 164.14 -186.34 130.96 C-192.12 99.99 -186.25 68.47 -168.8 42.19 C-166.06 38.29 -163.08 34.63 -160 31 C-159.16 29.99 -158.32 28.99 -157.45 27.95 C-146.37 15.09 -133.07 5.66 -118 -2 C-116.57 -2.74 -116.57 -2.74 -115.11 -3.49 C-104.19 -8.77 -92.03 -12.47 -80 -14 C-79.07 -14.12 -78.14 -14.24 -77.18 -14.37 C-50.58 -17.13 -23.79 -12 0 0 Z M-107 73 C-109.68 76.51 -111.92 80.1 -114 84 C-114.41 84.76 -114.82 85.52 -115.24 86.3 C-121.39 98.88 -121.08 112.59 -116.88 125.75 C-114.52 132.33 -111.39 137.6 -107 143 C-106.37 143.83 -105.75 144.67 -105.1 145.52 C-96.07 156.17 -81.63 162.29 -68 163.75 C-50.7 164.82 -35.19 160.33 -22 149 C-11.03 138.88 -6.1 124.07 -4.65 109.51 C-4.25 94.84 -9.07 81.43 -18.56 70.25 C-30.09 58.29 -45.4 52.09 -61.94 51.69 C-79.92 51.87 -95.16 59.81 -107 73 Z " fill="#4983C4" transform="translate(1119,101)"/>
<path d="M0 0 C2.53 0 5.06 -0.02 7.59 -0.05 C31.4 -0.14 51.96 6.33 73.37 16.32 C71.06 26.6 67.75 36.48 64.37 46.44 C63.3 49.59 62.24 52.74 61.18 55.89 C60.93 56.63 60.68 57.37 60.42 58.14 C58.62 63.5 56.92 68.88 55.37 74.32 C51.66 74.32 49.55 73.17 46.18 71.63 C40.81 69.24 35.41 67.24 29.8 65.5 C29.14 65.3 28.47 65.09 27.79 64.88 C12.43 60.23 -5.8 59.99 -20.17 67.67 C-32.99 75.65 -40.22 87.91 -43.68 102.43 C-47.25 118.95 -45.02 135.94 -36.2 150.38 C-35.03 152.04 -33.85 153.69 -32.63 155.32 C-32.17 155.97 -31.71 156.62 -31.24 157.3 C-23.61 167.25 -9.88 173.58 2.37 175.32 C21.24 177.34 39.2 166.63 55.37 158.32 C58.99 166.91 62.47 175.56 65.87 184.25 C66.33 185.43 66.79 186.6 67.26 187.81 C70.33 195.63 73.36 203.47 76.37 211.32 C55.29 231.81 25.63 240.77 -3.32 240.63 C-4.54 240.62 -5.77 240.62 -7.03 240.61 C-38 240.2 -65.77 229.42 -88.32 208.13 C-111.9 183.69 -120.93 148.52 -120.63 115.32 C-119.61 82.26 -107.13 52.61 -82.91 29.75 C-58.98 9.52 -31.18 -0.08 0 0 Z " fill="#4983C4" transform="translate(674.634033203125,87.684326171875)"/>
<path d="M0 0 C1.12 0 2.25 0 3.41 0 C6.9 0.01 10.39 0.02 13.89 0.04 C16.3 0.04 18.71 0.04 21.12 0.05 C26.93 0.06 32.75 0.08 38.57 0.1 C39.25 7.28 39.72 14.37 39.67 21.58 C39.67 22.41 39.67 23.23 39.67 24.09 C39.66 26.67 39.65 29.26 39.64 31.85 C39.63 33.62 39.63 35.4 39.62 37.18 C39.61 41.48 39.59 45.79 39.57 50.1 C41.14 50.08 41.14 50.08 42.74 50.06 C55.09 49.99 67.19 50.53 79.57 51.1 C79.57 69.58 79.57 88.06 79.57 107.1 C66.04 107.1 52.51 107.1 38.57 107.1 C38.61 119.48 38.67 131.86 38.76 144.23 C38.8 149.98 38.83 155.73 38.85 161.48 C38.86 167.03 38.89 172.58 38.94 178.13 C38.96 180.24 38.97 182.36 38.97 184.47 C38.97 187.44 39 190.41 39.03 193.38 C39.02 194.25 39.02 195.11 39.01 196.01 C39.11 201.74 40.19 206.37 43.57 211.1 C53.61 217.72 67.48 215.64 78.57 216.1 C78.57 238.21 78.57 260.32 78.57 283.1 C10 283.64 10 283.64 -12.05 262.73 C-32.77 239.83 -33.6 210.06 -33.52 180.83 C-33.52 178.69 -33.52 176.56 -33.52 174.43 C-33.52 168.85 -33.51 163.28 -33.49 157.7 C-33.48 152 -33.48 146.29 -33.47 140.59 C-33.46 129.42 -33.45 118.26 -33.43 107.1 C-41.02 107.1 -48.61 107.1 -56.43 107.1 C-56.43 88.62 -56.43 70.14 -56.43 51.1 C-48.84 51.1 -41.25 51.1 -33.43 51.1 C-33.76 34.6 -34.09 18.1 -34.43 1.1 C-10.29 -0.05 -10.29 -0.05 0 0 Z " fill="#4983C4" transform="translate(828.42578125,45.90234375)"/>
<path d="M0 0 C0 24.42 0 48.84 0 74 C-13.86 75.49 -13.86 75.49 -28 77 C-41.33 82.33 -48.82 86.67 -55.21 99.42 C-62.18 116.34 -61.47 135.65 -61.51 153.57 C-61.53 156.08 -61.55 158.59 -61.57 161.09 C-61.61 167.62 -61.64 174.16 -61.67 180.69 C-61.7 188.56 -61.76 196.43 -61.81 204.3 C-61.89 216.2 -61.94 228.1 -62 240 C-86.75 240 -111.5 240 -137 240 C-137 162.45 -137 84.9 -137 5 C-112.91 5 -88.82 5 -64 5 C-63.67 13.25 -63.34 21.5 -63 30 C-61.7 28.19 -60.4 26.37 -59.06 24.5 C-48.23 9.91 -34.37 3 -16.62 -0.46 C-11.16 -1.25 -5.26 -1.75 0 0 Z " fill="#4782C4" transform="translate(1347,89)"/>
<path d="M0 0 C-0.59 10.64 -5.26 18.31 -12.91 25.6 C-25.92 35.71 -41.65 40.06 -58 39 C-72.83 36.89 -86.42 30.09 -96.1 18.48 C-105 6.16 -105 6.16 -105 1 C-97.45 1.46 -91.1 4.06 -84.12 6.88 C-52.98 19.31 -34.41 13.41 -4.25 0.84 C-2 0 -2 0 0 0 Z " fill="#F7FAFD" transform="translate(453,239)"/>
</svg>
