<svg xmlns="http://www.w3.org/2000/svg" fill="none" viewBox="8.505 9.954732510288066 222.58800000000002 36.66255144032922" style="max-height: 500px" width="222.58800000000002" height="36.66255144032922">
<mask height="59" width="243" y="0" x="0" maskUnits="userSpaceOnUse" style="mask-type:alpha" id="mask0_1025_2891">
<rect fill="#D9D9D9" height="59" width="242.247"/>
</mask>
<g mask="url(#mask0_1025_2891)">
<path fill="#E42929" d="M131.508 26.4181H125.31V16.9434H131.48V18.6232H127.232V20.8652H130.856V22.4616H127.232V24.7384H131.508V26.4181Z"/>
<path fill="#E42929" d="M137.421 19.3242H139.177V26.4181H138.164L137.65 25.7309C137.04 26.3001 136.345 26.5847 135.582 26.5847C134.818 26.5847 134.228 26.3418 133.798 25.8628C133.368 25.3769 133.146 24.7175 133.146 23.8638V19.3312H134.902V23.7596C134.902 24.1553 134.999 24.4607 135.193 24.6759C135.388 24.8841 135.644 24.9952 135.971 24.9952C136.505 24.9952 136.984 24.7522 137.421 24.2663V19.3381V19.3242Z"/>
<path fill="#E42929" d="M143.05 26.4181H141.294V19.3242H142.307L142.821 20.0252C143.314 19.4491 143.932 19.1576 144.66 19.1576H145.028V20.8512H144.66C143.945 20.8512 143.411 21.0664 143.05 21.4968V26.4111V26.4181Z"/>
<path fill="#E42929" d="M149.103 24.9813C149.52 24.9813 149.839 24.8771 150.068 24.6758C150.297 24.4746 150.415 24.2039 150.415 23.8707V21.8647C150.415 21.5315 150.297 21.2608 150.068 21.0595C149.839 20.8582 149.513 20.7541 149.103 20.7541C148.694 20.7541 148.354 20.8582 148.125 21.0664C147.896 21.2747 147.778 21.5384 147.778 21.8647V23.8707C147.778 24.1969 147.896 24.4607 148.125 24.6689C148.354 24.8772 148.68 24.9813 149.103 24.9813ZM149.103 26.5777C148.132 26.5777 147.368 26.3417 146.827 25.8628C146.285 25.3839 146.015 24.7453 146.015 23.954V21.7883C146.015 20.997 146.285 20.3585 146.827 19.8795C147.368 19.4006 148.125 19.1646 149.103 19.1646C150.082 19.1646 150.825 19.4075 151.366 19.8795C151.908 20.3585 152.178 20.9901 152.178 21.7883V23.954C152.178 24.7453 151.908 25.3839 151.366 25.8628C150.825 26.3417 150.075 26.5777 149.103 26.5777Z"/>
<path fill="#E42929" d="M155.733 21.5037V24.2385C156.232 24.7314 156.732 24.9812 157.246 24.9812C157.551 24.9812 157.815 24.8771 158.037 24.6689C158.259 24.4607 158.37 24.183 158.37 23.8429V21.8924C158.37 21.5523 158.259 21.2747 158.037 21.0664C157.815 20.8582 157.551 20.7541 157.246 20.7541C156.732 20.7541 156.225 21.0039 155.733 21.4968M155.733 28.5837H153.977V19.3242H154.99L155.504 20.0252C156.108 19.4491 156.809 19.1576 157.614 19.1576C158.363 19.1576 158.967 19.3866 159.432 19.8378C159.897 20.2959 160.126 20.9345 160.126 21.7536V23.9748C160.126 24.7938 159.897 25.4324 159.432 25.8905C158.967 26.3486 158.363 26.5708 157.614 26.5708C156.864 26.5708 156.239 26.3487 155.733 25.9044V28.5698V28.5837Z"/>
<path fill="#E42929" d="M163.486 21.7606V22.1146H166.005V21.7606C166.005 21.4552 165.894 21.2122 165.672 21.0317C165.45 20.8513 165.145 20.761 164.742 20.761C164.34 20.761 164.034 20.8513 163.819 21.0317C163.597 21.2122 163.486 21.4552 163.486 21.7606ZM164.811 26.5777C163.867 26.5777 163.111 26.3487 162.556 25.8906C162 25.4324 161.723 24.7938 161.723 23.9817V21.7883C161.723 20.997 162 20.3585 162.563 19.8795C163.139 19.4006 163.888 19.1646 164.811 19.1646C165.735 19.1646 166.429 19.3936 166.963 19.8517C167.498 20.3099 167.761 20.9484 167.761 21.7606V23.4542H163.486V23.954C163.486 24.2802 163.604 24.5301 163.833 24.7106C164.062 24.891 164.388 24.9813 164.811 24.9813C165.471 24.9813 165.86 24.7453 165.991 24.2663H167.755C167.685 24.9951 167.394 25.5643 166.88 25.9739C166.373 26.3765 165.679 26.5847 164.818 26.5847"/>
<path fill="#E42929" d="M171.837 24.9813C172.468 24.9813 172.996 24.7522 173.419 24.2941V23.5097H171.955C171.566 23.5097 171.281 23.5792 171.108 23.718C170.934 23.8568 170.844 24.0303 170.844 24.2386C170.844 24.7314 171.17 24.9813 171.83 24.9813M171.476 26.5777C170.809 26.5777 170.24 26.3903 169.768 26.0224C169.317 25.6546 169.088 25.134 169.088 24.4676C169.088 23.7319 169.331 23.1627 169.817 22.7601C170.303 22.3644 171.018 22.1631 171.955 22.1631H173.419V21.7189C173.419 21.0803 173.037 20.761 172.281 20.761C171.913 20.761 171.628 20.8304 171.434 20.9762C171.24 21.122 171.142 21.3163 171.142 21.5731H169.421C169.421 20.8235 169.664 20.2335 170.157 19.8101C170.65 19.3797 171.351 19.1646 172.274 19.1646C173.197 19.1646 173.919 19.3867 174.419 19.824C174.919 20.2613 175.168 20.8582 175.168 21.6009V26.4181H174.155L173.641 25.7309C173.03 26.3001 172.302 26.5847 171.462 26.5847"/>
<path fill="#E42929" d="M178.985 26.4181H177.229V19.3242H178.242L178.756 20.0252C179.339 19.4491 180.04 19.1576 180.852 19.1576C181.615 19.1576 182.219 19.4005 182.657 19.8864C183.094 20.3723 183.316 21.0456 183.316 21.8993V26.4042H181.553V22.0035C181.553 21.6009 181.456 21.2885 181.254 21.0664C181.053 20.8512 180.789 20.7402 180.456 20.7402C179.915 20.7402 179.422 20.9901 178.985 21.4829V26.3972V26.4181Z"/>
<path fill="#E42929" d="M191.757 26.6193C190.682 26.6193 189.793 26.3347 189.092 25.7655C188.398 25.1964 188.051 24.3912 188.051 23.3431H189.974C189.974 23.8914 190.161 24.2871 190.543 24.5231C190.931 24.7452 191.376 24.8632 191.868 24.8632C192.361 24.8632 192.736 24.766 193.014 24.5786C193.291 24.3912 193.43 24.1413 193.43 23.8359C193.43 23.5444 193.278 23.3153 192.972 23.1487C192.826 23.0585 192.646 22.9752 192.431 22.8919C192.313 22.8294 192.202 22.7808 192.091 22.7531C192.063 22.7461 191.938 22.6976 191.702 22.6073C191.473 22.524 191.313 22.4615 191.223 22.4268L190.834 22.2811C190.133 22.0104 189.564 21.7119 189.127 21.3857C188.578 20.9623 188.301 20.3653 188.301 19.6018C188.301 18.7341 188.613 18.047 189.245 17.5264C189.876 17.0058 190.73 16.749 191.799 16.749C192.868 16.749 193.791 17.0127 194.423 17.5472C195.054 18.0817 195.367 18.8799 195.367 19.9419H193.444C193.444 19.456 193.291 19.0951 192.993 18.8591C192.694 18.6231 192.285 18.5051 191.764 18.5051C191.285 18.5051 190.911 18.5953 190.633 18.7688C190.355 18.9424 190.223 19.1853 190.223 19.4907C190.223 19.7961 190.341 20.0113 190.591 20.164C190.744 20.2542 190.883 20.3237 191.008 20.3792C191.035 20.3861 191.063 20.4 191.105 20.4139C191.14 20.4278 191.167 20.4417 191.195 20.4555C191.216 20.4694 191.237 20.4764 191.258 20.4764L191.827 20.6777L192.209 20.8165C192.451 20.8998 192.729 21.0039 193.048 21.1288L193.791 21.4551C194.09 21.587 194.319 21.7258 194.478 21.8577C195.172 22.3921 195.499 23.0169 195.45 23.7387C195.45 24.6133 195.124 25.3144 194.478 25.835C193.826 26.3555 192.924 26.6193 191.757 26.6193Z"/>
<path fill="#E42929" d="M199.99 26.5777C199.081 26.5777 198.352 26.3417 197.803 25.8697C197.255 25.3977 196.984 24.7592 196.984 23.954V21.7883C196.984 20.9832 197.255 20.3446 197.803 19.8726C198.352 19.4006 199.081 19.1646 199.99 19.1646C200.899 19.1646 201.6 19.4006 202.121 19.8656C202.641 20.3376 202.898 20.9831 202.898 21.8161V21.8994H201.135V21.8161C201.135 21.4899 201.038 21.233 200.837 21.0456C200.635 20.8582 200.351 20.761 199.983 20.761C199.15 20.761 198.741 21.0942 198.741 21.7606V23.9817C198.741 24.6481 199.157 24.9813 199.983 24.9813C200.344 24.9813 200.629 24.8841 200.83 24.6967C201.031 24.5093 201.135 24.2524 201.135 23.9401V23.8082H202.898V23.9054C202.898 24.7244 202.628 25.3838 202.086 25.8697C201.552 26.3487 200.858 26.5847 199.99 26.5847"/>
<path fill="#E42929" d="M206.403 26.4181H204.646V16.874H206.403V19.824C206.937 19.3798 207.555 19.1577 208.27 19.1577C209.033 19.1577 209.637 19.4006 210.074 19.8865C210.512 20.3724 210.734 21.0457 210.734 21.8994V26.4043H208.971V22.0036C208.971 21.601 208.874 21.2886 208.672 21.0665C208.471 20.8513 208.207 20.7403 207.874 20.7403C207.333 20.7403 206.84 20.9902 206.403 21.483V26.3973V26.4181Z"/>
<path fill="#E42929" d="M215.551 24.9813C215.967 24.9813 216.286 24.8771 216.516 24.6758C216.745 24.4746 216.863 24.2039 216.863 23.8707V21.8647C216.863 21.5315 216.752 21.2608 216.516 21.0595C216.286 20.8582 215.96 20.7541 215.551 20.7541C215.141 20.7541 214.801 20.8582 214.572 21.0664C214.343 21.2747 214.225 21.5384 214.225 21.8647V23.8707C214.225 24.1969 214.343 24.4607 214.572 24.6689C214.801 24.8772 215.127 24.9813 215.551 24.9813ZM215.551 26.5777C214.579 26.5777 213.815 26.3417 213.274 25.8628C212.733 25.3839 212.462 24.7453 212.462 23.954V21.7883C212.462 20.997 212.733 20.3585 213.274 19.8795C213.815 19.4006 214.572 19.1646 215.551 19.1646C216.529 19.1646 217.272 19.4075 217.814 19.8795C218.355 20.3585 218.626 20.9901 218.626 21.7883V23.954C218.626 24.7453 218.355 25.3839 217.814 25.8628C217.272 26.3417 216.516 26.5777 215.551 26.5777Z"/>
<path fill="#E42929" d="M223.193 24.9813C223.61 24.9813 223.929 24.8771 224.158 24.6758C224.387 24.4746 224.505 24.2039 224.505 23.8707V21.8647C224.505 21.5315 224.394 21.2608 224.158 21.0595C223.929 20.8582 223.603 20.7541 223.193 20.7541C222.784 20.7541 222.444 20.8582 222.215 21.0664C221.986 21.2747 221.868 21.5384 221.868 21.8647V23.8707C221.868 24.1969 221.986 24.4607 222.215 24.6689C222.444 24.8772 222.77 24.9813 223.193 24.9813ZM223.193 26.5777C222.222 26.5777 221.458 26.3417 220.917 25.8628C220.375 25.3839 220.104 24.7453 220.104 23.954V21.7883C220.104 20.997 220.375 20.3585 220.917 19.8795C221.458 19.4006 222.215 19.1646 223.193 19.1646C224.172 19.1646 224.915 19.4075 225.456 19.8795C225.998 20.3585 226.268 20.9901 226.268 21.7883V23.954C226.268 24.7453 225.998 25.3839 225.456 25.8628C224.915 26.3417 224.165 26.5777 223.193 26.5777Z"/>
<path fill="#E42929" d="M229.823 16.874H228.066V26.4181H229.823V16.874Z"/>
<path fill="#E42929" d="M127.946 38.5999C128.363 38.5999 128.682 38.4958 128.911 38.2945C129.14 38.0932 129.258 37.8225 129.258 37.4893V35.4833C129.258 35.1501 129.147 34.8794 128.911 34.6781C128.682 34.4768 128.356 34.3727 127.946 34.3727C127.537 34.3727 127.197 34.4768 126.968 34.6851C126.738 34.8933 126.62 35.1571 126.62 35.4833V37.4893C126.62 37.8156 126.738 38.0793 126.968 38.2876C127.197 38.4958 127.523 38.5999 127.946 38.5999ZM127.946 40.1964C126.974 40.1964 126.211 39.9604 125.67 39.4814C125.128 39.0025 124.857 38.3639 124.857 37.5726V35.407C124.857 34.6157 125.128 33.9771 125.67 33.4981C126.211 33.0192 126.968 32.7832 127.946 32.7832C128.925 32.7832 129.668 33.0261 130.209 33.4981C130.75 33.9771 131.021 34.6087 131.021 35.407V37.5726C131.021 38.3639 130.75 39.0025 130.209 39.4814C129.668 39.9604 128.918 40.1964 127.946 40.1964Z"/>
<path fill="#E42929" d="M134.742 40.0366H132.986V34.4768H131.944V32.9497H132.986C132.986 32.2556 133.208 31.6656 133.659 31.1936C134.11 30.7146 134.811 30.4786 135.769 30.4786C135.824 30.4786 135.998 30.4856 136.283 30.5064V32.0751H135.998C135.568 32.0751 135.255 32.1376 135.068 32.2695C134.88 32.4013 134.769 32.6304 134.742 32.9497H136.178V34.4768H134.742V40.0366Z"/>
<path fill="#E42929" d="M146.245 36.9062V33.6855C146.245 33.2273 146.085 32.8456 145.759 32.554C145.432 32.2625 144.981 32.1167 144.391 32.1167C143.801 32.1167 143.35 32.2625 143.024 32.554C142.698 32.8456 142.538 33.2273 142.538 33.6855V36.9062C142.538 37.3643 142.698 37.746 143.024 38.0376C143.35 38.3291 143.801 38.4749 144.391 38.4749C144.981 38.4749 145.432 38.3291 145.759 38.0376C146.085 37.746 146.245 37.3643 146.245 36.9062ZM140.615 36.8159V33.7826C140.615 32.7068 140.948 31.8669 141.622 31.263C142.295 30.6591 143.218 30.3537 144.391 30.3537C145.564 30.3537 146.487 30.6522 147.161 31.263C147.834 31.8738 148.167 32.7068 148.167 33.7826V36.8159C148.167 37.8918 147.834 38.7317 147.161 39.3356C146.487 39.9395 145.564 40.2449 144.391 40.2449C143.218 40.2449 142.295 39.9464 141.622 39.3356C140.948 38.7317 140.615 37.8918 140.615 36.8159Z"/>
<path fill="#E42929" d="M151.901 40.0367H150.145V32.9428H151.158L151.672 33.6439C152.255 33.0678 152.956 32.7762 153.768 32.7762C154.531 32.7762 155.135 33.0192 155.573 33.5051C156.01 33.9909 156.232 34.6643 156.232 35.518V40.0228H154.476V35.6221C154.476 35.2195 154.379 34.9072 154.177 34.6851C153.976 34.4699 153.712 34.3588 153.379 34.3588C152.838 34.3588 152.345 34.6087 151.908 35.1015V40.0159L151.901 40.0367Z"/>
<path fill="#E42929" d="M160.973 40.1964C160.064 40.1964 159.335 39.9604 158.787 39.4884C158.238 39.0164 157.968 38.3778 157.968 37.5726V35.407C157.968 34.6018 158.238 33.9632 158.787 33.4912C159.335 33.0192 160.064 32.7832 160.973 32.7832C161.883 32.7832 162.584 33.0192 163.104 33.4842C163.625 33.9562 163.882 34.6018 163.882 35.4347V35.518H162.119V35.4347C162.119 35.1085 162.021 34.8517 161.82 34.6643C161.619 34.4768 161.334 34.3797 160.966 34.3797C160.133 34.3797 159.724 34.7128 159.724 35.3792V37.6004C159.724 38.2667 160.14 38.5999 160.966 38.5999C161.327 38.5999 161.612 38.5027 161.813 38.3153C162.014 38.1279 162.119 37.8711 162.119 37.5587V37.4269H163.882V37.524C163.882 38.3431 163.611 39.0025 163.07 39.4884C162.535 39.9673 161.841 40.2033 160.973 40.2033"/>
<path fill="#E42929" d="M168.4 38.5999C168.817 38.5999 169.136 38.4958 169.365 38.2945C169.594 38.0932 169.712 37.8225 169.712 37.4893V35.4833C169.712 35.1501 169.601 34.8794 169.365 34.6781C169.136 34.4768 168.81 34.3727 168.4 34.3727C167.991 34.3727 167.651 34.4768 167.422 34.6851C167.193 34.8933 167.075 35.1571 167.075 35.4833V37.4893C167.075 37.8156 167.193 38.0793 167.422 38.2876C167.651 38.4958 167.977 38.5999 168.4 38.5999ZM168.4 40.1964C167.429 40.1964 166.665 39.9604 166.124 39.4814C165.582 39.0025 165.312 38.3639 165.312 37.5726V35.407C165.312 34.6157 165.582 33.9771 166.124 33.4981C166.665 33.0192 167.422 32.7832 168.4 32.7832C169.379 32.7832 170.122 33.0261 170.663 33.4981C171.205 33.9771 171.475 34.6087 171.475 35.407V37.5726C171.475 38.3639 171.205 39.0025 170.663 39.4814C170.122 39.9604 169.372 40.1964 168.4 40.1964Z"/>
<path fill="#E42929" d="M175.029 30.4925H173.272V40.0366H175.029V30.4925Z"/>
<path fill="#E42929" d="M179.916 38.5999C180.332 38.5999 180.652 38.4958 180.881 38.2945C181.11 38.0932 181.228 37.8225 181.228 37.4893V35.4833C181.228 35.1501 181.117 34.8794 180.881 34.6781C180.652 34.4768 180.326 34.3727 179.916 34.3727C179.506 34.3727 179.166 34.4768 178.937 34.6851C178.708 34.8933 178.59 35.1571 178.59 35.4833V37.4893C178.59 37.8156 178.708 38.0793 178.937 38.2876C179.166 38.4958 179.493 38.5999 179.916 38.5999ZM179.916 40.1964C178.944 40.1964 178.181 39.9604 177.639 39.4814C177.098 39.0025 176.827 38.3639 176.827 37.5726V35.407C176.827 34.6157 177.098 33.9771 177.639 33.4981C178.181 33.0192 178.937 32.7832 179.916 32.7832C180.895 32.7832 181.637 33.0261 182.179 33.4981C182.72 33.9771 182.991 34.6087 182.991 35.407V37.5726C182.991 38.3639 182.72 39.0025 182.179 39.4814C181.637 39.9604 180.888 40.1964 179.916 40.1964Z"/>
<path fill="#E42929" d="M188.981 37.1143V35.1222C188.481 34.6225 187.981 34.3795 187.467 34.3795C187.162 34.3795 186.898 34.4836 186.676 34.6919C186.454 34.9001 186.343 35.1778 186.343 35.5179V36.7256C186.343 37.0658 186.454 37.3434 186.676 37.5516C186.898 37.7599 187.162 37.864 187.467 37.864C187.981 37.864 188.488 37.6141 188.981 37.1213M189.73 32.9427H190.744V39.5993C190.744 40.4808 190.473 41.161 189.932 41.64C189.39 42.1189 188.654 42.3549 187.71 42.3549C186.766 42.3549 186.093 42.1467 185.559 41.7372C185.024 41.3276 184.76 40.7585 184.76 40.0366V39.9811H186.523V40.0227C186.523 40.2309 186.627 40.4045 186.829 40.5433C187.03 40.6821 187.322 40.7515 187.703 40.7515C188.557 40.7515 188.988 40.3628 188.988 39.5854V38.7733C188.481 39.2175 187.856 39.4396 187.106 39.4396C186.357 39.4396 185.753 39.2106 185.288 38.7594C184.823 38.3013 184.594 37.6627 184.594 36.8436V35.3721C184.594 34.553 184.823 33.9145 185.288 33.4564C185.753 32.9982 186.357 32.7692 187.106 32.7692C187.912 32.7692 188.613 33.0607 189.217 33.6368L189.73 32.9358V32.9427Z"/>
<path fill="#E42929" d="M195.248 42.2023H193.811V41.5637L194.477 40.0366L192.041 33.7688V32.9427H193.665L195.345 37.6419L196.928 32.9427H198.524V33.7688L195.248 42.2023Z"/>
<mask height="414" width="585" y="-264" x="-243" maskUnits="userSpaceOnUse" style="mask-type:luminance" id="mask1_1025_2891">
<path fill="white" d="M341.428 -263.765H-242.942V149.43H341.428V-263.765Z"/>
</mask>
<g mask="url(#mask1_1025_2891)">
<path fill="#E42929" d="M45.1582 34.6435C45.1582 40.6823 50.0517 45.5758 56.0906 45.5758V34.6435H45.1582Z"/>
<path fill="#E42929" d="M45.1582 23.2045C45.1582 28.9657 49.8296 33.6302 55.5838 33.6302H56.0906V23.2045H45.1582Z"/>
<path fill="#E42929" d="M33.2197 11.2657V22.198H44.1521C44.1521 16.1592 39.2585 11.2657 33.2197 11.2657Z"/>
<path fill="#E42929" d="M33.2197 45.5758C39.2585 45.5758 44.1521 40.6823 44.1521 34.6435H33.2197V45.5758Z"/>
<path fill="#E42929" d="M45.1582 22.198H56.0906V11.2657C50.0517 11.2657 45.1582 16.1592 45.1582 22.198Z"/>
</g>
<path fill="#E42929" d="M67.5302 34.6435H57.1045V45.5758H67.5302V34.6435Z"/>
<mask height="414" width="585" y="-264" x="-243" maskUnits="userSpaceOnUse" style="mask-type:luminance" id="mask2_1025_2891">
<path fill="white" d="M341.428 -263.765H-242.942V149.43H341.428V-263.765Z"/>
</mask>
<g mask="url(#mask2_1025_2891)">
<path fill="#E42929" d="M26.9941 23.2044H21.7812V33.6301H26.9941C29.8261 33.6301 32.1375 31.3673 32.2069 28.5492V28.2784C32.1375 25.4603 29.8261 23.1975 26.9941 23.1975"/>
</g>
<path fill="#E42929" d="M32.2069 11.2654H21.7812V22.1978H32.2069V11.2654Z"/>
<mask height="414" width="585" y="-264" x="-243" maskUnits="userSpaceOnUse" style="mask-type:luminance" id="mask3_1025_2891">
<path fill="white" d="M341.428 -263.765H-242.942V149.43H341.428V-263.765Z"/>
</mask>
<g mask="url(#mask3_1025_2891)">
<path fill="#E42929" d="M9.83496 34.6435C9.83496 40.6823 14.7285 45.5758 20.7673 45.5758V34.6435H9.83496Z"/>
</g>
<path fill="#E42929" d="M20.7683 23.2043H9.83594V33.63H20.7683V23.2043Z"/>
<path fill="#E42929" d="M32.2069 34.6435H21.7812V45.5758H32.2069V34.6435Z"/>
<mask height="414" width="585" y="-264" x="-243" maskUnits="userSpaceOnUse" style="mask-type:luminance" id="mask4_1025_2891">
<path fill="white" d="M341.428 -263.765H-242.942V149.43H341.428V-263.765Z"/>
</mask>
<g mask="url(#mask4_1025_2891)">
<path fill="#E42929" d="M9.83496 22.198H20.7673V11.2657C14.7285 11.2657 9.83496 16.1592 9.83496 22.198Z"/>
</g>
<path fill="#E42929" d="M67.5302 11.2654H57.1045V22.1978H67.5302V11.2654Z"/>
<path fill="#E42929" d="M102.853 11.2654H92.4277V22.1978H102.853V11.2654Z"/>
<mask height="414" width="585" y="-264" x="-243" maskUnits="userSpaceOnUse" style="mask-type:luminance" id="mask5_1025_2891">
<path fill="white" d="M341.428 -263.765H-242.942V149.43H341.428V-263.765Z"/>
</mask>
<g mask="url(#mask5_1025_2891)">
<path fill="#E42929" d="M80.4834 22.198H91.4158V11.2657C85.3769 11.2657 80.4834 16.1592 80.4834 22.198Z"/>
<path fill="#E42929" d="M103.868 45.5758C109.907 45.5758 114.801 40.6823 114.801 34.6435H103.868V45.5758Z"/>
</g>
<path fill="#E42929" d="M102.853 34.6435H92.4277V45.5758H102.853V34.6435Z"/>
<mask height="414" width="585" y="-264" x="-243" maskUnits="userSpaceOnUse" style="mask-type:luminance" id="mask6_1025_2891">
<path fill="white" d="M341.428 -263.765H-242.942V149.43H341.428V-263.765Z"/>
</mask>
<g mask="url(#mask6_1025_2891)">
<path fill="#E42929" d="M103.866 11.2657V22.198H114.799C114.799 16.1592 109.905 11.2657 103.866 11.2657Z"/>
</g>
<path fill="#E42929" d="M114.801 23.2043H103.868V33.63H114.801V23.2043Z"/>
<mask height="414" width="585" y="-264" x="-243" maskUnits="userSpaceOnUse" style="mask-type:luminance" id="mask7_1025_2891">
<path fill="white" d="M341.428 -263.765H-242.942V149.43H341.428V-263.765Z"/>
</mask>
<g mask="url(#mask7_1025_2891)">
<path fill="#E42929" d="M80.4834 34.6433C80.4834 40.6821 85.3769 45.5756 91.4158 45.5756V34.6433H80.4834Z"/>
<path fill="#E42929" d="M69.0438 23.2043H68.5371V33.6299H79.4695C79.4695 27.8688 74.7981 23.2043 69.0438 23.2043Z"/>
<path fill="#E42929" d="M68.5371 45.5756C74.5759 45.5756 79.4695 40.6821 79.4695 34.6433H68.5371V45.5756Z"/>
</g>
<path fill="#E42929" d="M67.5302 23.2043H57.1045V33.63H67.5302V23.2043Z"/>
<mask height="414" width="585" y="-264" x="-243" maskUnits="userSpaceOnUse" style="mask-type:luminance" id="mask8_1025_2891">
<path fill="white" d="M341.428 -263.765H-242.942V149.43H341.428V-263.765Z"/>
</mask>
<g mask="url(#mask8_1025_2891)">
<path fill="#E42929" d="M68.5439 11.2657V22.198H79.4763C79.4763 16.1592 74.5828 11.2657 68.5439 11.2657Z"/>
</g>
<path fill="#E42929" d="M91.4158 23.2043H80.4834V33.63H91.4158V23.2043Z"/>
</g>
</svg>