<?xml version="1.0" encoding="UTF-8"?>
<!-- Generator: visioncortex VTracer 0.6.4 -->
<svg version="1.1" xmlns="http://www.w3.org/2000/svg" width="415" height="85">
<path d="M0,0 L22,0 L22,1 L25,1 L25,2 L26,2 L26,3 L27,3 L27,4 L28,4 L28,6 L29,6 L29,8 L30,8 L30,18 L41,18 L41,19 L43,19 L43,20 L44,20 L44,21 L45,21 L45,22 L46,22 L46,24 L47,24 L47,48 L46,48 L46,50 L45,50 L45,51 L44,51 L44,52 L43,52 L43,53 L41,53 L41,54 L30,54 L30,64 L29,64 L29,67 L28,67 L28,68 L27,68 L27,69 L26,69 L26,70 L25,70 L25,71 L23,71 L23,72 L0,72 L0,71 L-2,71 L-2,70 L-3,70 L-3,69 L-4,69 L-4,68 L-5,68 L-5,67 L-6,67 L-6,65 L-7,65 L-7,54 L-18,54 L-18,53 L-20,53 L-20,52 L-21,52 L-21,51 L-22,51 L-22,50 L-23,50 L-23,49 L-24,49 L-24,45 L-25,45 L-25,27 L-24,27 L-24,24 L-23,24 L-23,22 L-22,22 L-22,21 L-21,21 L-21,20 L-20,20 L-20,19 L-18,19 L-18,18 L-7,18 L-7,7 L-6,7 L-6,5 L-5,5 L-5,4 L-4,4 L-4,3 L-3,3 L-3,2 L-2,2 L-2,1 L0,1 Z M0,5 L0,6 L-1,6 L-1,7 L-2,7 L-2,22 L-16,22 L-16,23 L-18,23 L-18,24 L-19,24 L-19,25 L-20,25 L-20,47 L-19,47 L-19,48 L-18,48 L-18,49 L-16,49 L-16,50 L-2,50 L-2,65 L-1,65 L-1,66 L0,66 L0,67 L23,67 L23,66 L24,66 L24,65 L25,65 L25,50 L39,50 L39,49 L41,49 L41,48 L42,48 L42,46 L43,46 L43,26 L42,26 L42,24 L41,24 L41,23 L39,23 L39,22 L25,22 L25,7 L24,7 L24,6 L23,6 L23,5 Z " fill="#F02024" transform="translate(34,6)"/>
<path d="M0,0 L6,0 L6,1 L9,1 L9,2 L10,2 L10,3 L12,3 L12,4 L13,4 L13,5 L14,5 L14,4 L15,4 L15,3 L17,3 L17,2 L18,2 L18,1 L21,1 L21,0 L27,0 L27,1 L30,1 L30,2 L32,2 L32,3 L33,3 L33,4 L34,4 L34,5 L35,5 L35,6 L36,6 L36,8 L37,8 L37,10 L38,10 L38,32 L37,32 L37,33 L36,33 L36,34 L34,34 L34,33 L33,33 L33,32 L32,32 L32,11 L31,11 L31,9 L30,9 L30,8 L29,8 L29,7 L27,7 L27,6 L22,6 L22,7 L20,7 L20,8 L19,8 L19,9 L18,9 L18,10 L17,10 L17,13 L16,13 L16,33 L14,33 L14,34 L13,34 L13,33 L11,33 L11,13 L10,13 L10,10 L9,10 L9,9 L8,9 L8,8 L7,8 L7,7 L5,7 L5,6 L0,6 L0,7 L-2,7 L-2,8 L-3,8 L-3,9 L-4,9 L-4,11 L-5,11 L-5,32 L-6,32 L-6,33 L-8,33 L-8,34 L-9,34 L-9,33 L-10,33 L-10,32 L-11,32 L-11,10 L-10,10 L-10,7 L-9,7 L-9,6 L-8,6 L-8,5 L-7,5 L-7,4 L-6,4 L-6,3 L-5,3 L-5,2 L-3,2 L-3,1 L0,1 Z " fill="#030707" transform="translate(109,26)"/>
<path d="M0,0 L4,0 L4,1 L5,1 L5,34 L4,34 L4,36 L3,36 L3,38 L2,38 L2,39 L1,39 L1,41 L0,41 L0,42 L-2,42 L-2,43 L-3,43 L-3,44 L-5,44 L-5,45 L-8,45 L-8,46 L-16,46 L-16,45 L-19,45 L-19,44 L-20,44 L-20,43 L-22,43 L-22,42 L-23,42 L-23,41 L-24,41 L-24,40 L-25,40 L-25,39 L-26,39 L-26,37 L-27,37 L-27,35 L-28,35 L-28,31 L-29,31 L-29,27 L-28,27 L-28,23 L-27,23 L-27,21 L-26,21 L-26,20 L-25,20 L-25,18 L-24,18 L-24,17 L-23,17 L-23,16 L-21,16 L-21,15 L-20,15 L-20,14 L-18,14 L-18,13 L-15,13 L-15,12 L-9,12 L-9,13 L-5,13 L-5,14 L-3,14 L-3,15 L-2,15 L-2,16 L-1,16 L-1,1 L0,1 Z M-14,18 L-14,19 L-17,19 L-17,20 L-19,20 L-19,21 L-20,21 L-20,22 L-21,22 L-21,24 L-22,24 L-22,28 L-23,28 L-23,30 L-22,30 L-22,34 L-21,34 L-21,36 L-20,36 L-20,37 L-19,37 L-19,38 L-17,38 L-17,39 L-15,39 L-15,40 L-9,40 L-9,39 L-6,39 L-6,38 L-5,38 L-5,37 L-4,37 L-4,36 L-3,36 L-3,35 L-2,35 L-2,33 L-1,33 L-1,25 L-2,25 L-2,23 L-3,23 L-3,22 L-4,22 L-4,21 L-5,21 L-5,20 L-6,20 L-6,19 L-9,19 L-9,18 Z " fill="#030606" transform="translate(219,14)"/>
<path d="M0,0 L8,0 L8,1 L11,1 L11,2 L12,2 L12,3 L14,3 L14,4 L15,4 L15,5 L16,5 L16,6 L17,6 L17,7 L18,7 L18,9 L19,9 L19,11 L20,11 L20,19 L-7,19 L-7,20 L-6,20 L-6,23 L-5,23 L-5,24 L-4,24 L-4,25 L-3,25 L-3,26 L-1,26 L-1,27 L3,27 L3,28 L4,28 L4,27 L8,27 L8,26 L10,26 L10,25 L11,25 L11,24 L12,24 L12,23 L13,23 L13,22 L17,22 L17,23 L18,23 L18,26 L17,26 L17,28 L16,28 L16,29 L15,29 L15,30 L13,30 L13,31 L12,31 L12,32 L10,32 L10,33 L5,33 L5,34 L2,34 L2,33 L-2,33 L-2,32 L-4,32 L-4,31 L-6,31 L-6,30 L-7,30 L-7,29 L-8,29 L-8,28 L-9,28 L-9,27 L-10,27 L-10,26 L-11,26 L-11,24 L-12,24 L-12,21 L-13,21 L-13,12 L-12,12 L-12,10 L-11,10 L-11,8 L-10,8 L-10,7 L-9,7 L-9,6 L-8,6 L-8,5 L-7,5 L-7,4 L-6,4 L-6,3 L-5,3 L-5,2 L-3,2 L-3,1 L0,1 Z M1,6 L1,7 L-2,7 L-2,8 L-3,8 L-3,9 L-4,9 L-4,10 L-5,10 L-5,11 L-6,11 L-6,13 L-7,13 L-7,14 L14,14 L14,12 L13,12 L13,11 L12,11 L12,9 L11,9 L11,8 L9,8 L9,7 L6,7 L6,6 Z " fill="#030606" transform="translate(166,26)"/>
<path d="M0,0 L8,0 L8,1 L10,1 L10,2 L11,2 L11,1 L13,1 L13,0 L21,0 L21,1 L23,1 L23,2 L24,2 L24,3 L25,3 L25,4 L26,4 L26,5 L27,5 L27,8 L28,8 L28,13 L27,13 L27,15 L26,15 L26,17 L25,17 L25,18 L24,18 L24,19 L23,19 L23,20 L22,20 L22,21 L21,21 L21,22 L20,22 L20,23 L19,23 L19,24 L18,24 L18,25 L17,25 L17,26 L16,26 L16,27 L15,27 L15,28 L14,28 L14,29 L13,29 L13,30 L11,30 L11,31 L10,31 L10,30 L8,30 L8,29 L7,29 L7,28 L6,28 L6,27 L5,27 L5,26 L4,26 L4,25 L3,25 L3,24 L2,24 L2,23 L1,23 L1,22 L0,22 L0,21 L-1,21 L-1,20 L-2,20 L-2,19 L-3,19 L-3,18 L-4,18 L-4,17 L-5,17 L-5,15 L-6,15 L-6,13 L-7,13 L-7,8 L-6,8 L-6,5 L-5,5 L-5,4 L-4,4 L-4,3 L-3,3 L-3,2 L-2,2 L-2,1 L0,1 Z M2,7 L2,8 L7,8 L7,7 Z M14,7 L14,8 L13,8 L13,9 L12,9 L12,10 L9,10 L9,9 L8,9 L8,8 L7,8 L7,9 L3,9 L3,10 L2,10 L2,11 L1,11 L1,13 L2,13 L2,14 L3,14 L3,15 L4,15 L4,16 L5,16 L5,17 L6,17 L6,18 L7,18 L7,19 L8,19 L8,20 L9,20 L9,21 L10,21 L10,22 L11,22 L11,21 L12,21 L12,20 L13,20 L13,19 L14,19 L14,18 L15,18 L15,17 L16,17 L16,16 L17,16 L17,15 L18,15 L18,14 L19,14 L19,13 L20,13 L20,11 L21,11 L21,9 L20,9 L20,8 L19,8 L19,7 Z M1,8 L1,9 L2,9 L2,8 Z M0,10 L0,11 L1,11 L1,10 Z " fill="#EF2024" transform="translate(35,30)"/>
<path d="M0,0 L7,0 L7,1 L10,1 L10,2 L12,2 L12,3 L13,3 L13,4 L14,4 L14,5 L15,5 L15,6 L16,6 L16,7 L17,7 L17,8 L18,8 L18,10 L19,10 L19,12 L20,12 L20,32 L19,32 L19,33 L18,33 L18,34 L16,34 L16,33 L15,33 L15,32 L14,32 L14,30 L13,30 L13,31 L11,31 L11,32 L9,32 L9,33 L5,33 L5,34 L2,34 L2,33 L-3,33 L-3,32 L-5,32 L-5,31 L-6,31 L-6,30 L-7,30 L-7,29 L-9,29 L-9,27 L-10,27 L-10,26 L-11,26 L-11,25 L-12,25 L-12,22 L-13,22 L-13,11 L-12,11 L-12,9 L-11,9 L-11,8 L-10,8 L-10,6 L-9,6 L-9,5 L-8,5 L-8,4 L-7,4 L-7,3 L-5,3 L-5,2 L-3,2 L-3,1 L0,1 Z M0,6 L0,7 L-2,7 L-2,8 L-4,8 L-4,9 L-5,9 L-5,11 L-6,11 L-6,12 L-7,12 L-7,21 L-6,21 L-6,23 L-5,23 L-5,24 L-4,24 L-4,25 L-3,25 L-3,26 L-2,26 L-2,27 L2,27 L2,28 L5,28 L5,27 L8,27 L8,26 L10,26 L10,25 L11,25 L11,24 L12,24 L12,23 L13,23 L13,21 L14,21 L14,13 L13,13 L13,11 L12,11 L12,10 L11,10 L11,9 L10,9 L10,8 L9,8 L9,7 L6,7 L6,6 Z " fill="#030606" transform="translate(362,26)"/>
<path d="M0,0 L1,0 L1,1 L3,1 L3,3 L4,3 L4,15 L5,15 L5,14 L7,14 L7,13 L16,13 L16,14 L18,14 L18,15 L19,15 L19,16 L21,16 L21,17 L22,17 L22,18 L23,18 L23,20 L24,20 L24,22 L25,22 L25,46 L23,46 L23,47 L22,47 L22,46 L20,46 L20,44 L19,44 L19,23 L18,23 L18,21 L17,21 L17,20 L15,20 L15,19 L8,19 L8,20 L7,20 L7,21 L6,21 L6,22 L5,22 L5,23 L4,23 L4,44 L3,44 L3,46 L1,46 L1,47 L0,47 L0,46 L-2,46 L-2,1 L0,1 Z " fill="#030707" transform="translate(319,13)"/>
<path d="M0,0 L8,0 L8,1 L11,1 L11,2 L13,2 L13,3 L14,3 L14,4 L15,4 L15,5 L16,5 L16,7 L15,7 L15,8 L14,8 L14,9 L11,9 L11,8 L10,8 L10,7 L7,7 L7,6 L1,6 L1,7 L-1,7 L-1,8 L-3,8 L-3,9 L-4,9 L-4,10 L-5,10 L-5,12 L-6,12 L-6,16 L-7,16 L-7,18 L-6,18 L-6,22 L-5,22 L-5,23 L-4,23 L-4,24 L-3,24 L-3,25 L-2,25 L-2,26 L0,26 L0,27 L9,27 L9,26 L11,26 L11,25 L12,25 L12,24 L14,24 L14,25 L15,25 L15,27 L16,27 L16,28 L15,28 L15,30 L13,30 L13,31 L12,31 L12,32 L10,32 L10,33 L-1,33 L-1,32 L-4,32 L-4,31 L-5,31 L-5,30 L-7,30 L-7,29 L-8,29 L-8,28 L-9,28 L-9,26 L-10,26 L-10,25 L-11,25 L-11,23 L-12,23 L-12,19 L-13,19 L-13,15 L-12,15 L-12,11 L-11,11 L-11,9 L-10,9 L-10,7 L-9,7 L-9,6 L-8,6 L-8,5 L-7,5 L-7,4 L-6,4 L-6,3 L-4,3 L-4,2 L-3,2 L-3,1 L0,1 Z " fill="#030606" transform="translate(295,26)"/>
<path d="M0,0 L7,0 L7,1 L10,1 L10,2 L12,2 L12,3 L14,3 L14,4 L15,4 L15,8 L14,8 L14,9 L11,9 L11,8 L9,8 L9,7 L7,7 L7,6 L1,6 L1,7 L-2,7 L-2,8 L-3,8 L-3,9 L-4,9 L-4,10 L-5,10 L-5,11 L-6,11 L-6,14 L-7,14 L-7,20 L-6,20 L-6,22 L-5,22 L-5,24 L-4,24 L-4,25 L-3,25 L-3,26 L-1,26 L-1,27 L8,27 L8,26 L10,26 L10,25 L12,25 L12,24 L13,24 L13,25 L15,25 L15,29 L14,29 L14,30 L13,30 L13,31 L11,31 L11,32 L9,32 L9,33 L-2,33 L-2,32 L-4,32 L-4,31 L-6,31 L-6,30 L-7,30 L-7,29 L-8,29 L-8,28 L-9,28 L-9,27 L-10,27 L-10,25 L-11,25 L-11,24 L-12,24 L-12,21 L-13,21 L-13,13 L-12,13 L-12,10 L-11,10 L-11,8 L-10,8 L-10,7 L-9,7 L-9,6 L-8,6 L-8,5 L-7,5 L-7,4 L-6,4 L-6,3 L-5,3 L-5,2 L-3,2 L-3,1 L0,1 Z " fill="#030606" transform="translate(252,26)"/>
<path d="M0,0 L1,0 L1,1 L3,1 L3,13 L14,13 L14,14 L15,14 L15,17 L14,17 L14,18 L13,18 L13,19 L3,19 L3,32 L4,32 L4,35 L5,35 L5,36 L6,36 L6,37 L7,37 L7,38 L8,38 L8,39 L10,39 L10,40 L14,40 L14,41 L17,41 L17,43 L18,43 L18,44 L17,44 L17,46 L15,46 L15,47 L13,47 L13,46 L8,46 L8,45 L6,45 L6,44 L5,44 L5,43 L3,43 L3,42 L2,42 L2,41 L1,41 L1,39 L0,39 L0,38 L-1,38 L-1,36 L-2,36 L-2,33 L-3,33 L-3,2 L-2,2 L-2,1 L0,1 Z " fill="#030606" transform="translate(389,13)"/>
<path d="M0,0 L1,0 L1,1 L3,1 L3,34 L1,34 L1,35 L0,35 L0,34 L-2,34 L-2,32 L-3,32 L-3,3 L-2,3 L-2,1 L0,1 Z " fill="#030505" transform="translate(232,25)"/>
<path d="M0,0 L1,0 L1,31 L0,31 L0,43 L-1,43 L-1,23 L0,23 Z " fill="#000000" transform="translate(384,15)"/>
<path d="M0,0 L5,0 L5,2 L6,2 L6,6 L5,6 L5,7 L3,7 L3,8 L2,8 L2,7 L0,7 L0,6 L-1,6 L-1,1 L0,1 Z " fill="#030606" transform="translate(274,52)"/>
<path d="M0,0 L1,0 L1,45 L0,45 Z " fill="#000000" transform="translate(315,14)"/>
<path d="M0,0 L1,0 L1,15 L0,15 L0,16 L-23,16 L-23,15 L-1,15 L-1,14 L0,14 Z " fill="#F80303" transform="translate(57,56)"/>
<path d="M0,0 L5,0 L5,2 L6,2 L6,5 L5,5 L5,7 L3,7 L3,8 L2,8 L2,7 L0,7 Z " fill="#030606" transform="translate(230,14)"/>
<path d="M0,0 L23,0 L23,1 L24,1 L24,16 L23,16 L23,2 L22,2 L22,1 L0,1 Z " fill="#F90405" transform="translate(34,12)"/>
<path d="M0,0 L25,0 L25,1 L23,1 L23,2 L22,2 L22,1 L18,1 L18,2 L17,2 L17,1 L1,1 L1,2 L2,2 L2,3 L3,3 L3,4 L4,4 L4,5 L2,5 L2,4 L1,4 L1,3 L0,3 Z " fill="#000000" transform="translate(161,46)"/>
<path d="M0,0 L1,0 L1,33 L0,33 Z " fill="#000000" transform="translate(225,15)"/>
<path d="M0,0 L1,0 L1,29 L0,29 Z " fill="#000000" transform="translate(227,28)"/>
<path d="M0,0 L1,0 L1,11 L0,11 L0,20 L-1,20 L-1,10 L0,10 L0,8 L-1,8 L-1,3 L0,3 Z " fill="#000000" transform="translate(347,37)"/>
<path d="M0,0 L23,0 L23,1 L0,1 Z " fill="#F82F34" transform="translate(34,79)"/>
<path d="M0,0 L1,0 L1,22 L0,22 Z " fill="#000000" transform="translate(148,36)"/>
<path d="M0,0 L1,0 L1,22 L0,22 Z " fill="#000000" transform="translate(96,36)"/>
<path d="M0,0 L1,0 L1,22 L0,22 Z " fill="#C60433" transform="translate(15,31)"/>
<path d="M0,0 L22,0 L22,1 L0,1 Z " fill="#CD0031" transform="translate(34,4)"/>
<path d="M0,0 L1,0 L1,21 L0,21 Z " fill="#000000" transform="translate(139,37)"/>
<path d="M0,0 L1,0 L1,21 L0,21 Z " fill="#000000" transform="translate(105,37)"/>
<path d="M0,0 L1,0 L1,21 L0,21 Z " fill="#000000" transform="translate(336,36)"/>
<path d="M0,0 L1,0 L1,21 L0,21 Z " fill="#000000" transform="translate(324,36)"/>
<path d="M0,0 L1,0 L1,20 L0,20 Z " fill="#000000" transform="translate(126,39)"/>
<path d="M0,0 L1,0 L1,1 L16,1 L16,0 L17,0 L17,1 L18,1 L18,2 L0,2 Z " fill="#000000" transform="translate(161,37)"/>
<path d="M0,0 L9,0 L9,1 L1,1 L1,12 L0,12 Z " fill="#000000" transform="translate(393,33)"/>
<path d="M0,0 L1,0 L1,20 L0,20 Z " fill="#FF4040" transform="translate(75,32)"/>
<path d="M0,0 L1,0 L1,20 L0,20 Z " fill="#FF0000" transform="translate(7,32)"/>
<path d="M0,0 L1,0 L1,10 L10,10 L10,11 L0,11 Z " fill="#000000" transform="translate(393,14)"/>
<path d="M0,0 L10,0 L10,10 L9,10 L9,1 L0,1 Z " fill="#FF0505" transform="translate(16,61)"/>
<path d="M0,0 L10,0 L10,1 L1,1 L1,9 L0,9 Z " fill="#FB0609" transform="translate(65,61)"/>
<path d="M0,0 L14,0 L14,1 L1,1 L1,2 L2,2 L2,3 L0,3 L0,2 L-1,2 L-1,1 L0,1 Z " fill="#E5002E" transform="translate(59,29)"/>
<path d="M0,0 L1,0 L1,8 L10,8 L10,9 L0,9 Z " fill="#FC0909" transform="translate(65,14)"/>
<path d="M0,0 L1,0 L1,9 L-9,9 L-9,8 L0,8 Z " fill="#FD0909" transform="translate(25,14)"/>
<path d="M0,0 L1,0 L1,15 L0,15 Z " fill="#F60202" transform="translate(33,56)"/>
<path d="M0,0 L1,0 L1,13 L0,13 L0,12 L-2,12 L-2,11 L0,11 Z " fill="#000000" transform="translate(216,15)"/>
<path d="M0,0 L1,0 L1,15 L0,15 Z " fill="#F70207" transform="translate(33,13)"/>
<path d="M0,0 L14,0 L14,1 L0,1 Z " fill="#F73535" transform="translate(59,54)"/>
<path d="M0,0 L13,0 L13,1 L0,1 Z " fill="#F2393E" transform="translate(18,54)"/>
<path d="M0,0 L13,0 L13,1 L0,1 Z " fill="#F50036" transform="translate(18,29)"/>
<path d="M0,0 L1,0 L1,4 L2,4 L2,8 L0,8 Z " fill="#000000" transform="translate(187,37)"/>
<path d="M0,0 L1,0 L1,3 L0,3 L0,11 L-1,11 L-1,2 L0,2 Z " fill="#000000" transform="translate(238,36)"/>
<path d="M0,0 L11,0 L11,1 L0,1 Z " fill="#000000" transform="translate(294,60)"/>
<path d="M0,0 L11,0 L11,1 L0,1 Z " fill="#000000" transform="translate(250,60)"/>
<path d="M0,0 L1,0 L1,9 L2,9 L2,10 L0,10 Z " fill="#000000" transform="translate(324,16)"/>
<path d="M0,0 L9,0 L9,1 L0,1 Z " fill="#000000" transform="translate(295,51)"/>
<path d="M0,0 L9,0 L9,1 L0,1 Z " fill="#000000" transform="translate(251,51)"/>
<path d="M0,0 L1,0 L1,9 L0,9 Z " fill="#000000" transform="translate(356,38)"/>
<path d="M0,0 L1,0 L1,9 L0,9 Z " fill="#000000" transform="translate(151,38)"/>
<path d="M0,0 L9,0 L9,1 L0,1 Z " fill="#000000" transform="translate(326,24)"/>
<path d="M0,0 L8,0 L8,1 L0,1 Z " fill="#000000" transform="translate(203,61)"/>
<path d="M0,0 L1,0 L1,8 L0,8 Z " fill="#000000" transform="translate(374,39)"/>
<path d="M0,0 L1,0 L1,8 L0,8 Z " fill="#000000" transform="translate(216,39)"/>
<path d="M0,0 L8,0 L8,1 L0,1 Z " fill="#FF1020" transform="translate(48,28)"/>
<path d="M0,0 L8,0 L8,1 L0,1 Z " fill="#FF1030" transform="translate(35,28)"/>
<path d="M0,0 L8,0 L8,1 L0,1 Z " fill="#000000" transform="translate(295,24)"/>
<path d="M0,0 L8,0 L8,1 L0,1 Z " fill="#000000" transform="translate(166,24)"/>
<path d="M0,0 L7,0 L7,1 L0,1 Z " fill="#000000" transform="translate(327,33)"/>
<path d="M0,0 L7,0 L7,1 L0,1 Z " fill="#000000" transform="translate(362,24)"/>
<path d="M0,0 L7,0 L7,1 L0,1 Z " fill="#000000" transform="translate(252,24)"/>
<path d="M0,0 L1,0 L1,6 L0,6 Z " fill="#000000" transform="translate(246,40)"/>
<path d="M0,0 L1,0 L1,6 L0,6 Z " fill="#E90000" transform="translate(64,37)"/>
<path d="M0,0 L6,0 L6,1 L0,1 Z " fill="#000000" transform="translate(362,33)"/>
<path d="M0,0 L6,0 L6,1 L0,1 Z " fill="#000000" transform="translate(296,33)"/>
<path d="M0,0 L6,0 L6,1 L0,1 Z " fill="#000000" transform="translate(253,33)"/>
<path d="M0,0 L6,0 L6,1 L0,1 Z " fill="#000000" transform="translate(204,24)"/>
<path d="M0,0 L6,0 L6,1 L0,1 Z " fill="#000000" transform="translate(130,24)"/>
<path d="M0,0 L6,0 L6,1 L0,1 Z " fill="#000000" transform="translate(109,24)"/>
<path d="M0,0 L1,0 L1,1 L2,1 L2,2 L3,2 L3,3 L1,3 L1,2 L0,2 Z " fill="#A5000C" transform="translate(10,56)"/>
<path d="M0,0 L1,0 L1,5 L0,5 Z " fill="#000000" transform="translate(271,53)"/>
<path d="M0,0 L5,0 L5,1 L0,1 Z " fill="#000000" transform="translate(205,52)"/>
<path d="M0,0 L5,0 L5,1 L0,1 Z " fill="#000000" transform="translate(274,50)"/>
<path d="M0,0 L1,0 L1,5 L0,5 Z " fill="#EE0000" transform="translate(26,38)"/>
<path d="M0,0 L5,0 L5,1 L0,1 Z " fill="#C3102A" transform="translate(49,38)"/>
<path d="M0,0 L2,0 L2,1 L1,1 L1,2 L0,2 L0,3 L-1,3 L-1,1 L0,1 Z " fill="#000000" transform="translate(292,35)"/>
<path d="M0,0 L3,0 L3,1 L1,1 L1,2 L-1,2 L-1,1 L0,1 Z " fill="#000000" transform="translate(164,34)"/>
<path d="M0,0 L5,0 L5,1 L0,1 Z " fill="#000000" transform="translate(205,33)"/>
<path d="M0,0 L5,0 L5,1 L0,1 Z " fill="#000000" transform="translate(167,33)"/>
<path d="M0,0 L5,0 L5,1 L0,1 Z " fill="#000000" transform="translate(131,33)"/>
<path d="M0,0 L5,0 L5,1 L0,1 Z " fill="#000000" transform="translate(109,33)"/>
<path d="M0,0 L2,0 L2,1 L1,1 L1,2 L0,2 L0,3 L-1,3 L-1,1 L0,1 Z " fill="#CC0000" transform="translate(30,31)"/>
<path d="M0,0 L2,0 L2,1 L1,1 L1,2 L0,2 L0,3 L-1,3 L-1,1 L0,1 Z " fill="#000000" transform="translate(101,28)"/>
<path d="M0,0 L1,0 L1,1 L2,1 L2,4 L1,4 L1,2 L0,2 Z " fill="#000000" transform="translate(227,17)"/>
<path d="M0,0 L5,0 L5,1 L0,1 Z " fill="#000000" transform="translate(230,12)"/>
<path d="M0,0 L4,0 L4,1 L0,1 Z " fill="#000000" transform="translate(397,60)"/>
<path d="M0,0 L4,0 L4,1 L0,1 Z " fill="#000000" transform="translate(367,60)"/>
<path d="M0,0 L4,0 L4,1 L0,1 Z " fill="#000000" transform="translate(359,60)"/>
<path d="M0,0 L4,0 L4,1 L0,1 Z " fill="#000000" transform="translate(172,60)"/>
<path d="M0,0 L4,0 L4,1 L0,1 Z " fill="#000000" transform="translate(164,60)"/>
<path d="M0,0 L1,0 L1,4 L0,4 Z " fill="#000000" transform="translate(281,54)"/>
<path d="M0,0 L1,0 L1,4 L0,4 Z " fill="#000000" transform="translate(268,51)"/>
<path d="M0,0 L1,0 L1,2 L0,2 L0,3 L-1,3 L-1,1 L0,1 Z " fill="#000000" transform="translate(222,52)"/>
<path d="M0,0 L4,0 L4,1 L0,1 Z " fill="#000000" transform="translate(399,51)"/>
<path d="M0,0 L4,0 L4,1 L0,1 Z " fill="#000000" transform="translate(360,51)"/>
<path d="M0,0 L4,0 L4,1 L0,1 Z " fill="#000000" transform="translate(170,51)"/>
<path d="M0,0 L4,0 L4,1 L0,1 Z " fill="#000000" transform="translate(165,51)"/>
<path d="M0,0 L1,0 L1,4 L0,4 Z " fill="#FF1010" transform="translate(82,50)"/>
<path d="M0,0 L1,0 L1,4 L0,4 Z " fill="#000000" transform="translate(281,45)"/>
<path d="M0,0 L1,0 L1,4 L0,4 Z " fill="#000000" transform="translate(189,45)"/>
<path d="M0,0 L1,0 L1,4 L0,4 Z " fill="#000000" transform="translate(290,44)"/>
<path d="M0,0 L1,0 L1,4 L0,4 Z " fill="#000000" transform="translate(198,44)"/>
<path d="M0,0 L1,0 L1,4 L0,4 Z " fill="#000000" transform="translate(280,41)"/>
<path d="M0,0 L1,0 L1,4 L0,4 Z " fill="#000000" transform="translate(290,38)"/>
<path d="M0,0 L1,0 L1,4 L0,4 Z " fill="#000000" transform="translate(198,38)"/>
<path d="M0,0 L1,0 L1,4 L0,4 Z " fill="#000000" transform="translate(189,37)"/>
<path d="M0,0 L1,0 L1,4 L0,4 Z " fill="#000000" transform="translate(345,35)"/>
<path d="M0,0 L1,0 L1,4 L0,4 Z " fill="#E91010" transform="translate(82,30)"/>
<path d="M0,0 L1,0 L1,2 L0,2 L0,3 L-1,3 L-1,1 L0,1 Z " fill="#000000" transform="translate(192,32)"/>
<path d="M0,0 L1,0 L1,4 L0,4 Z " fill="#000000" transform="translate(268,30)"/>
<path d="M0,0 L2,0 L2,1 L1,1 L1,2 L-1,2 L-1,1 L0,1 Z " fill="#000000" transform="translate(244,28)"/>
<path d="M0,0 L4,0 L4,1 L0,1 Z " fill="#000000" transform="translate(210,25)"/>
<path d="M0,0 L1,0 L1,3 L0,3 Z " fill="#E21515" transform="translate(64,70)"/>
<path d="M0,0 L3,0 L3,1 L0,1 Z " fill="#000000" transform="translate(364,61)"/>
<path d="M0,0 L3,0 L3,1 L0,1 Z " fill="#000000" transform="translate(168,61)"/>
<path d="M0,0 L3,0 L3,1 L0,1 Z " fill="#000000" transform="translate(211,60)"/>
<path d="M0,0 L3,0 L3,1 L0,1 Z " fill="#000000" transform="translate(200,60)"/>
<path d="M0,0 L3,0 L3,1 L0,1 Z " fill="#000000" transform="translate(373,58)"/>
<path d="M0,0 L1,0 L1,3 L0,3 Z " fill="#000000" transform="translate(312,52)"/>
<path d="M0,0 L1,0 L1,2 L-1,2 L-1,1 L0,1 Z " fill="#F30C0C" transform="translate(74,52)"/>
<path d="M0,0 L1,0 L1,3 L0,3 Z " fill="#FF0015" transform="translate(8,52)"/>
<path d="M0,0 L3,0 L3,1 L0,1 Z " fill="#000000" transform="translate(364,52)"/>
<path d="M0,0 L3,0 L3,1 L0,1 Z " fill="#000000" transform="translate(367,51)"/>
<path d="M0,0 L3,0 L3,1 L0,1 Z " fill="#000000" transform="translate(210,51)"/>
<path d="M0,0 L1,0 L1,1 L2,1 L2,2 L0,2 Z " fill="#000000" transform="translate(200,49)"/>
<path d="M0,0 L1,0 L1,3 L0,3 Z " fill="#000000" transform="translate(185,49)"/>
<path d="M0,0 L1,0 L1,3 L0,3 Z " fill="#000000" transform="translate(348,48)"/>
<path d="M0,0 L1,0 L1,1 L2,1 L2,2 L0,2 Z " fill="#000000" transform="translate(248,48)"/>
<path d="M0,0 L1,0 L1,3 L0,3 Z " fill="#000000" transform="translate(238,47)"/>
<path d="M0,0 L1,0 L1,3 L0,3 Z " fill="#000000" transform="translate(152,47)"/>
<path d="M0,0 L1,0 L1,3 L0,3 Z " fill="#000000" transform="translate(385,46)"/>
<path d="M0,0 L1,0 L1,3 L0,3 Z " fill="#000000" transform="translate(394,45)"/>
<path d="M0,0 L1,0 L1,3 L0,3 Z " fill="#FF1515" transform="translate(63,43)"/>
<path d="M0,0 L3,0 L3,1 L0,1 Z " fill="#FF0015" transform="translate(44,41)"/>
<path d="M0,0 L1,0 L1,3 L0,3 Z " fill="#000000" transform="translate(281,37)"/>
<path d="M0,0 L1,0 L1,3 L0,3 Z " fill="#000000" transform="translate(247,37)"/>
<path d="M0,0 L1,0 L1,3 L0,3 Z " fill="#000000" transform="translate(127,36)"/>
<path d="M0,0 L1,0 L1,3 L0,3 Z " fill="#000000" transform="translate(117,36)"/>
<path d="M0,0 L3,0 L3,1 L0,1 Z " fill="#000000" transform="translate(306,36)"/>
<path d="M0,0 L3,0 L3,1 L0,1 Z " fill="#000000" transform="translate(263,36)"/>
<path d="M0,0 L1,0 L1,3 L0,3 Z " fill="#FF1515" transform="translate(27,35)"/>
<path d="M0,0 L2,0 L2,1 L1,1 L1,2 L0,2 Z " fill="#000000" transform="translate(358,35)"/>
<path d="M0,0 L3,0 L3,1 L0,1 Z " fill="#000000" transform="translate(368,34)"/>
<path d="M0,0 L3,0 L3,1 L0,1 Z " fill="#000000" transform="translate(250,34)"/>
<path d="M0,0 L3,0 L3,1 L0,1 Z " fill="#000000" transform="translate(210,34)"/>
<path d="M0,0 L3,0 L3,1 L0,1 Z " fill="#000000" transform="translate(202,34)"/>
<path d="M0,0 L3,0 L3,1 L0,1 Z " fill="#000000" transform="translate(172,34)"/>
<path d="M0,0 L1,0 L1,3 L0,3 Z " fill="#000000" transform="translate(97,33)"/>
<path d="M0,0 L2,0 L2,2 L1,2 L1,1 L0,1 Z " fill="#F10E0E" transform="translate(73,30)"/>
<path d="M0,0 L1,0 L1,3 L0,3 Z " fill="#D4002A" transform="translate(8,29)"/>
<path d="M0,0 L1,0 L1,3 L0,3 Z " fill="#000000" transform="translate(405,27)"/>
<path d="M0,0 L3,0 L3,1 L0,1 Z " fill="#000000" transform="translate(369,25)"/>
<path d="M0,0 L3,0 L3,1 L0,1 Z " fill="#000000" transform="translate(359,25)"/>
<path d="M0,0 L3,0 L3,1 L0,1 Z " fill="#000000" transform="translate(303,25)"/>
<path d="M0,0 L3,0 L3,1 L0,1 Z " fill="#000000" transform="translate(292,25)"/>
<path d="M0,0 L3,0 L3,1 L0,1 Z " fill="#000000" transform="translate(259,25)"/>
<path d="M0,0 L3,0 L3,1 L0,1 Z " fill="#000000" transform="translate(249,25)"/>
<path d="M0,0 L3,0 L3,1 L0,1 Z " fill="#000000" transform="translate(201,25)"/>
<path d="M0,0 L3,0 L3,1 L0,1 Z " fill="#000000" transform="translate(174,25)"/>
<path d="M0,0 L3,0 L3,1 L0,1 Z " fill="#000000" transform="translate(163,25)"/>
<path d="M0,0 L3,0 L3,1 L0,1 Z " fill="#000000" transform="translate(127,25)"/>
<path d="M0,0 L3,0 L3,1 L0,1 Z " fill="#000000" transform="translate(115,25)"/>
<path d="M0,0 L1,0 L1,3 L0,3 Z " fill="#000000" transform="translate(237,16)"/>
<path d="M0,0 L1,0 L1,3 L0,3 Z " fill="#000000" transform="translate(228,14)"/>
<path d="M0,0 L1,0 L1,3 L0,3 Z " fill="#FF0015" transform="translate(64,11)"/>
<path d="M0,0 L2,0 L2,1 L0,1 Z " fill="#FF2020" transform="translate(57,78)"/>
<path d="M0,0 L2,0 L2,1 L0,1 Z " fill="#FF2020" transform="translate(32,78)"/>
<path d="M0,0 L1,0 L1,2 L0,2 Z " fill="#BF2020" transform="translate(26,71)"/>
<path d="M0,0 L2,0 L2,1 L0,1 Z " fill="#000000" transform="translate(402,61)"/>
<path d="M0,0 L2,0 L2,1 L0,1 Z " fill="#000000" transform="translate(378,61)"/>
<path d="M0,0 L2,0 L2,1 L0,1 Z " fill="#000000" transform="translate(143,61)"/>
<path d="M0,0 L2,0 L2,1 L0,1 Z " fill="#000000" transform="translate(100,61)"/>
<path d="M0,0 L2,0 L2,1 L0,1 Z " fill="#FF0000" transform="translate(46,61)"/>
<path d="M0,0 L2,0 L2,1 L0,1 Z " fill="#FF0000" transform="translate(43,61)"/>
<path d="M0,0 L2,0 L2,1 L0,1 Z " fill="#000000" transform="translate(404,60)"/>
<path d="M0,0 L2,0 L2,1 L0,1 Z " fill="#000000" transform="translate(342,60)"/>
<path d="M0,0 L2,0 L2,1 L0,1 Z " fill="#000000" transform="translate(339,60)"/>
<path d="M0,0 L2,0 L2,1 L0,1 Z " fill="#000000" transform="translate(320,60)"/>
<path d="M0,0 L2,0 L2,1 L0,1 Z " fill="#000000" transform="translate(317,60)"/>
<path d="M0,0 L2,0 L2,1 L0,1 Z " fill="#000000" transform="translate(277,60)"/>
<path d="M0,0 L2,0 L2,1 L0,1 Z " fill="#000000" transform="translate(274,60)"/>
<path d="M0,0 L2,0 L2,1 L0,1 Z " fill="#000000" transform="translate(233,60)"/>
<path d="M0,0 L2,0 L2,1 L0,1 Z " fill="#000000" transform="translate(230,60)"/>
<path d="M0,0 L2,0 L2,1 L0,1 Z " fill="#000000" transform="translate(123,60)"/>
<path d="M0,0 L2,0 L2,1 L0,1 Z " fill="#000000" transform="translate(120,60)"/>
<path d="M0,0 L2,0 L2,1 L0,1 Z " fill="#FF0000" transform="translate(75,60)"/>
<path d="M0,0 L2,0 L2,1 L0,1 Z " fill="#FF0000" transform="translate(14,60)"/>
<path d="M0,0 L2,0 L2,1 L0,1 Z " fill="#000000" transform="translate(395,59)"/>
<path d="M0,0 L2,0 L2,1 L0,1 Z " fill="#000000" transform="translate(371,59)"/>
<path d="M0,0 L2,0 L2,1 L0,1 Z " fill="#000000" transform="translate(357,59)"/>
<path d="M0,0 L2,0 L2,1 L0,1 Z " fill="#000000" transform="translate(305,59)"/>
<path d="M0,0 L2,0 L2,1 L0,1 Z " fill="#000000" transform="translate(291,59)"/>
<path d="M0,0 L2,0 L2,1 L0,1 Z " fill="#000000" transform="translate(261,59)"/>
<path d="M0,0 L2,0 L2,1 L0,1 Z " fill="#000000" transform="translate(248,59)"/>
<path d="M0,0 L2,0 L2,1 L0,1 Z " fill="#000000" transform="translate(214,59)"/>
<path d="M0,0 L2,0 L2,1 L0,1 Z " fill="#000000" transform="translate(176,59)"/>
<path d="M0,0 L2,0 L2,1 L0,1 Z " fill="#000000" transform="translate(162,59)"/>
<path d="M0,0 L1,0 L1,2 L0,2 Z " fill="#000000" transform="translate(407,57)"/>
<path d="M0,0 L1,0 L1,2 L0,2 Z " fill="#000000" transform="translate(345,57)"/>
<path d="M0,0 L1,0 L1,2 L0,2 Z " fill="#000000" transform="translate(337,57)"/>
<path d="M0,0 L2,0 L2,1 L0,1 Z " fill="#000000" transform="translate(246,58)"/>
<path d="M0,0 L1,0 L1,2 L0,2 Z " fill="#000000" transform="translate(236,57)"/>
<path d="M0,0 L1,0 L1,2 L0,2 Z " fill="#000000" transform="translate(228,57)"/>
<path d="M0,0 L2,0 L2,1 L0,1 Z " fill="#000000" transform="translate(197,58)"/>
<path d="M0,0 L2,0 L2,1 L0,1 Z " fill="#000000" transform="translate(160,58)"/>
<path d="M0,0 L1,0 L1,2 L0,2 Z " fill="#000000" transform="translate(118,57)"/>
<path d="M0,0 L2,0 L2,1 L0,1 Z " fill="#000000" transform="translate(392,57)"/>
<path d="M0,0 L2,0 L2,1 L0,1 Z " fill="#000000" transform="translate(354,57)"/>
<path d="M0,0 L2,0 L2,1 L0,1 Z " fill="#000000" transform="translate(308,57)"/>
<path d="M0,0 L2,0 L2,1 L0,1 Z " fill="#000000" transform="translate(288,57)"/>
<path d="M0,0 L2,0 L2,1 L0,1 Z " fill="#000000" transform="translate(217,57)"/>
<path d="M0,0 L2,0 L2,1 L0,1 Z " fill="#000000" transform="translate(179,57)"/>
<path d="M0,0 L2,0 L2,1 L0,1 Z " fill="#000000" transform="translate(266,56)"/>
<path d="M0,0 L1,0 L1,2 L0,2 Z " fill="#000000" transform="translate(407,54)"/>
<path d="M0,0 L1,0 L1,2 L0,2 Z " fill="#D40000" transform="translate(81,54)"/>
<path d="M0,0 L1,0 L1,2 L0,2 Z " fill="#000000" transform="translate(388,52)"/>
<path d="M0,0 L1,0 L1,2 L0,2 Z " fill="#000000" transform="translate(350,52)"/>
<path d="M0,0 L1,0 L1,2 L0,2 Z " fill="#000000" transform="translate(284,52)"/>
<path d="M0,0 L1,0 L1,2 L0,2 Z " fill="#000000" transform="translate(280,52)"/>
<path d="M0,0 L1,0 L1,2 L0,2 Z " fill="#000000" transform="translate(184,52)"/>
<path d="M0,0 L2,0 L2,1 L0,1 Z " fill="#EF1010" transform="translate(16,53)"/>
<path d="M0,0 L2,0 L2,1 L0,1 Z " fill="#000000" transform="translate(404,52)"/>
<path d="M0,0 L1,0 L1,2 L0,2 Z " fill="#000000" transform="translate(240,51)"/>
<path d="M0,0 L1,0 L1,2 L0,2 Z " fill="#000000" transform="translate(191,51)"/>
<path d="M0,0 L1,0 L1,2 L0,2 Z " fill="#000000" transform="translate(223,50)"/>
<path d="M0,0 L2,0 L2,1 L0,1 Z " fill="#000000" transform="translate(202,51)"/>
<path d="M0,0 L1,0 L1,2 L0,2 Z " fill="#000000" transform="translate(153,50)"/>
<path d="M0,0 L2,0 L2,1 L0,1 Z " fill="#000000" transform="translate(397,50)"/>
<path d="M0,0 L1,0 L1,2 L0,2 Z " fill="#000000" transform="translate(386,49)"/>
<path d="M0,0 L2,0 L2,1 L0,1 Z " fill="#000000" transform="translate(370,50)"/>
<path d="M0,0 L2,0 L2,1 L0,1 Z " fill="#000000" transform="translate(293,50)"/>
<path d="M0,0 L1,0 L1,2 L0,2 Z " fill="#000000" transform="translate(282,49)"/>
<path d="M0,0 L2,0 L2,1 L0,1 Z " fill="#000000" transform="translate(260,50)"/>
<path d="M0,0 L1,0 L1,2 L0,2 Z " fill="#000000" transform="translate(190,49)"/>
<path d="M0,0 L2,0 L2,1 L0,1 Z " fill="#000000" transform="translate(174,50)"/>
<path d="M0,0 L2,0 L2,1 L0,1 Z " fill="#000000" transform="translate(305,49)"/>
<path d="M0,0 L2,0 L2,1 L0,1 Z " fill="#000000" transform="translate(265,49)"/>
<path d="M0,0 L2,0 L2,1 L0,1 Z " fill="#000000" transform="translate(262,49)"/>
<path d="M0,0 L1,0 L1,2 L0,2 Z " fill="#000000" transform="translate(224,48)"/>
<path d="M0,0 L1,0 L1,2 L0,2 Z " fill="#000000" transform="translate(373,47)"/>
<path d="M0,0 L1,0 L1,2 L0,2 Z " fill="#000000" transform="translate(357,47)"/>
<path d="M0,0 L2,0 L2,1 L0,1 Z " fill="#000000" transform="translate(307,48)"/>
<path d="M0,0 L1,0 L1,2 L0,2 Z " fill="#000000" transform="translate(215,47)"/>
<path d="M0,0 L1,0 L1,2 L0,2 Z " fill="#000000" transform="translate(247,46)"/>
<path d="M0,0 L1,0 L1,2 L0,2 Z " fill="#D40000" transform="translate(28,45)"/>
<path d="M0,0 L1,0 L1,2 L0,2 Z " fill="#DF0020" transform="translate(27,43)"/>
<path d="M0,0 L1,0 L1,2 L0,2 Z " fill="#000000" transform="translate(197,42)"/>
<path d="M0,0 L1,0 L1,2 L0,2 Z " fill="#FF1919" transform="translate(53,41)"/>
<path d="M0,0 L1,0 L1,2 L0,2 Z " fill="#FF1919" transform="translate(37,41)"/>
<path d="M0,0 L1,0 L1,2 L0,2 Z " fill="#FF0000" transform="translate(54,39)"/>
<path d="M0,0 L1,0 L1,2 L0,2 Z " fill="#000000" transform="translate(373,37)"/>
<path d="M0,0 L1,0 L1,2 L0,2 Z " fill="#000000" transform="translate(215,37)"/>
<path d="M0,0 L1,0 L1,2 L0,2 Z " fill="#000000" transform="translate(382,36)"/>
<path d="M0,0 L1,0 L1,2 L0,2 Z " fill="#000000" transform="translate(152,36)"/>
<path d="M0,0 L1,0 L1,2 L0,2 Z " fill="#000000" transform="translate(348,35)"/>
<path d="M0,0 L1,0 L1,2 L0,2 Z " fill="#000000" transform="translate(282,35)"/>
<path d="M0,0 L1,0 L1,2 L0,2 Z " fill="#000000" transform="translate(190,35)"/>
<path d="M0,0 L1,0 L1,2 L0,2 Z " fill="#000000" transform="translate(186,35)"/>
<path d="M0,0 L1,0 L1,2 L0,2 Z " fill="#000000" transform="translate(138,35)"/>
<path d="M0,0 L1,0 L1,2 L0,2 Z " fill="#000000" transform="translate(106,35)"/>
<path d="M0,0 L1,0 L1,2 L0,2 Z " fill="#FF2020" transform="translate(63,35)"/>
<path d="M0,0 L1,0 L1,2 L0,2 Z " fill="#000000" transform="translate(381,34)"/>
<path d="M0,0 L2,0 L2,1 L0,1 Z " fill="#000000" transform="translate(304,35)"/>
<path d="M0,0 L2,0 L2,1 L0,1 Z " fill="#000000" transform="translate(261,35)"/>
<path d="M0,0 L1,0 L1,2 L0,2 Z " fill="#000000" transform="translate(239,34)"/>
<path d="M0,0 L1,0 L1,2 L0,2 Z " fill="#000000" transform="translate(153,34)"/>
<path d="M0,0 L1,0 L1,2 L0,2 Z " fill="#000000" transform="translate(147,34)"/>
<path d="M0,0 L2,0 L2,1 L0,1 Z " fill="#000000" transform="translate(360,34)"/>
<path d="M0,0 L1,0 L1,2 L0,2 Z " fill="#000000" transform="translate(349,33)"/>
<path d="M0,0 L1,0 L1,2 L0,2 Z " fill="#000000" transform="translate(344,33)"/>
<path d="M0,0 L1,0 L1,2 L0,2 Z " fill="#000000" transform="translate(311,33)"/>
<path d="M0,0 L2,0 L2,1 L0,1 Z " fill="#000000" transform="translate(302,34)"/>
<path d="M0,0 L2,0 L2,1 L0,1 Z " fill="#000000" transform="translate(294,34)"/>
<path d="M0,0 L1,0 L1,2 L0,2 Z " fill="#000000" transform="translate(283,33)"/>
<path d="M0,0 L2,0 L2,1 L0,1 Z " fill="#000000" transform="translate(259,34)"/>
<path d="M0,0 L1,0 L1,2 L0,2 Z " fill="#000000" transform="translate(185,33)"/>
<path d="M0,0 L2,0 L2,1 L0,1 Z " fill="#000000" transform="translate(136,34)"/>
<path d="M0,0 L2,0 L2,1 L0,1 Z " fill="#000000" transform="translate(129,34)"/>
<path d="M0,0 L2,0 L2,1 L0,1 Z " fill="#000000" transform="translate(114,34)"/>
<path d="M0,0 L2,0 L2,1 L0,1 Z " fill="#000000" transform="translate(107,34)"/>
<path d="M0,0 L1,0 L1,2 L0,2 Z " fill="#FF0000" transform="translate(61,32)"/>
<path d="M0,0 L1,0 L1,2 L0,2 Z " fill="#000000" transform="translate(379,31)"/>
<path d="M0,0 L1,0 L1,2 L0,2 Z " fill="#000000" transform="translate(343,31)"/>
<path d="M0,0 L1,0 L1,2 L0,2 Z " fill="#000000" transform="translate(312,31)"/>
<path d="M0,0 L1,0 L1,2 L0,2 Z " fill="#000000" transform="translate(241,31)"/>
<path d="M0,0 L1,0 L1,2 L0,2 Z " fill="#000000" transform="translate(155,31)"/>
<path d="M0,0 L2,0 L2,1 L0,1 Z " fill="#BF1212" transform="translate(16,30)"/>
<path d="M0,0 L1,0 L1,2 L0,2 Z " fill="#D40000" transform="translate(81,28)"/>
<path d="M0,0 L2,0 L2,1 L0,1 Z " fill="#FF0000" transform="translate(56,29)"/>
<path d="M0,0 L2,0 L2,1 L0,1 Z " fill="#FF2020" transform="translate(46,29)"/>
<path d="M0,0 L2,0 L2,1 L0,1 Z " fill="#FF2020" transform="translate(43,29)"/>
<path d="M0,0 L2,0 L2,1 L0,1 Z " fill="#FF0000" transform="translate(33,29)"/>
<path d="M0,0 L2,0 L2,1 L0,1 Z " fill="#000000" transform="translate(375,28)"/>
<path d="M0,0 L2,0 L2,1 L0,1 Z " fill="#000000" transform="translate(158,28)"/>
<path d="M0,0 L2,0 L2,1 L0,1 Z " fill="#000000" transform="translate(355,27)"/>
<path d="M0,0 L2,0 L2,1 L0,1 Z " fill="#000000" transform="translate(289,27)"/>
<path d="M0,0 L2,0 L2,1 L0,1 Z " fill="#000000" transform="translate(264,27)"/>
<path d="M0,0 L1,0 L1,2 L0,2 Z " fill="#000000" transform="translate(236,26)"/>
<path d="M0,0 L1,0 L1,2 L0,2 Z " fill="#000000" transform="translate(228,26)"/>
<path d="M0,0 L2,0 L2,1 L0,1 Z " fill="#000000" transform="translate(197,27)"/>
<path d="M0,0 L2,0 L2,1 L0,1 Z " fill="#000000" transform="translate(124,27)"/>
<path d="M0,0 L2,0 L2,1 L0,1 Z " fill="#000000" transform="translate(119,27)"/>
<path d="M0,0 L2,0 L2,1 L0,1 Z " fill="#000000" transform="translate(372,26)"/>
<path d="M0,0 L2,0 L2,1 L0,1 Z " fill="#000000" transform="translate(357,26)"/>
<path d="M0,0 L2,0 L2,1 L0,1 Z " fill="#000000" transform="translate(337,26)"/>
<path d="M0,0 L2,0 L2,1 L0,1 Z " fill="#000000" transform="translate(306,26)"/>
<path d="M0,0 L2,0 L2,1 L0,1 Z " fill="#000000" transform="translate(262,26)"/>
<path d="M0,0 L2,0 L2,1 L0,1 Z " fill="#000000" transform="translate(247,26)"/>
<path d="M0,0 L2,0 L2,1 L0,1 Z " fill="#000000" transform="translate(199,26)"/>
<path d="M0,0 L2,0 L2,1 L0,1 Z " fill="#000000" transform="translate(161,26)"/>
<path d="M0,0 L2,0 L2,1 L0,1 Z " fill="#000000" transform="translate(139,26)"/>
<path d="M0,0 L2,0 L2,1 L0,1 Z " fill="#000000" transform="translate(104,26)"/>
<path d="M0,0 L2,0 L2,1 L0,1 Z " fill="#000000" transform="translate(335,25)"/>
<path d="M0,0 L2,0 L2,1 L0,1 Z " fill="#000000" transform="translate(137,25)"/>
<path d="M0,0 L2,0 L2,1 L0,1 Z " fill="#000000" transform="translate(106,25)"/>
<path d="M0,0 L2,0 L2,1 L0,1 Z " fill="#000000" transform="translate(233,24)"/>
<path d="M0,0 L2,0 L2,1 L0,1 Z " fill="#000000" transform="translate(230,24)"/>
<path d="M0,0 L2,0 L2,1 L0,1 Z " fill="#DF0020" transform="translate(75,23)"/>
<path d="M0,0 L2,0 L2,1 L0,1 Z " fill="#D40000" transform="translate(14,23)"/>
<path d="M0,0 L2,0 L2,1 L0,1 Z " fill="#000000" transform="translate(233,22)"/>
<path d="M0,0 L2,0 L2,1 L0,1 Z " fill="#000000" transform="translate(230,22)"/>
<path d="M0,0 L1,0 L1,2 L0,2 Z " fill="#000000" transform="translate(236,19)"/>
<path d="M0,0 L1,0 L1,2 L0,2 Z " fill="#000000" transform="translate(236,14)"/>
<path d="M0,0 L2,0 L2,1 L0,1 Z " fill="#000000" transform="translate(390,12)"/>
<path d="M0,0 L2,0 L2,1 L0,1 Z " fill="#000000" transform="translate(387,12)"/>
<path d="M0,0 L2,0 L2,1 L0,1 Z " fill="#000000" transform="translate(320,12)"/>
<path d="M0,0 L2,0 L2,1 L0,1 Z " fill="#000000" transform="translate(317,12)"/>
<path d="M0,0 L2,0 L2,1 L0,1 Z " fill="#000000" transform="translate(219,12)"/>
<path d="M0,0 L1,0 L1,2 L0,2 Z " fill="#FF2020" transform="translate(26,11)"/>
<path d="M0,0 L2,0 L2,1 L0,1 Z " fill="#FF2020" transform="translate(57,5)"/>
<path d="M0,0 L2,0 L2,1 L0,1 Z " fill="#BF2020" transform="translate(32,5)"/>
<path d="M0,0 L1,0 L1,1 L0,1 Z " fill="#FF0040" transform="translate(59,77)"/>
<path d="M0,0 L1,0 L1,1 L0,1 Z " fill="#FF4040" transform="translate(31,77)"/>
<path d="M0,0 L1,0 L1,1 L0,1 Z " fill="#FF0040" transform="translate(60,76)"/>
<path d="M0,0 L1,0 L1,1 L0,1 Z " fill="#FF0000" transform="translate(30,76)"/>
<path d="M0,0 L1,0 L1,1 L0,1 Z " fill="#BF0040" transform="translate(61,75)"/>
<path d="M0,0 L1,0 L1,1 L0,1 Z " fill="#FF0000" transform="translate(29,75)"/>
<path d="M0,0 L1,0 L1,1 L0,1 Z " fill="#FF4040" transform="translate(62,74)"/>
<path d="M0,0 L1,0 L1,1 L0,1 Z " fill="#FF0000" transform="translate(28,74)"/>
<path d="M0,0 L1,0 L1,1 L0,1 Z " fill="#FF0000" transform="translate(63,73)"/>
<path d="M0,0 L1,0 L1,1 L0,1 Z " fill="#FF4040" transform="translate(27,73)"/>
<path d="M0,0 L1,0 L1,1 L0,1 Z " fill="#FF0000" transform="translate(45,62)"/>
<path d="M0,0 L1,0 L1,1 L0,1 Z " fill="#000000" transform="translate(341,61)"/>
<path d="M0,0 L1,0 L1,1 L0,1 Z " fill="#000000" transform="translate(319,61)"/>
<path d="M0,0 L1,0 L1,1 L0,1 Z " fill="#000000" transform="translate(276,61)"/>
<path d="M0,0 L1,0 L1,1 L0,1 Z " fill="#000000" transform="translate(232,61)"/>
<path d="M0,0 L1,0 L1,1 L0,1 Z " fill="#000000" transform="translate(122,61)"/>
<path d="M0,0 L1,0 L1,1 L0,1 Z " fill="#000000" transform="translate(380,60)"/>
<path d="M0,0 L1,0 L1,1 L0,1 Z " fill="#000000" transform="translate(377,60)"/>
<path d="M0,0 L1,0 L1,1 L0,1 Z " fill="#000000" transform="translate(145,60)"/>
<path d="M0,0 L1,0 L1,1 L0,1 Z " fill="#000000" transform="translate(142,60)"/>
<path d="M0,0 L1,0 L1,1 L0,1 Z " fill="#000000" transform="translate(102,60)"/>
<path d="M0,0 L1,0 L1,1 L0,1 Z " fill="#000000" transform="translate(99,60)"/>
<path d="M0,0 L1,0 L1,1 L0,1 Z " fill="#BF0040" transform="translate(48,60)"/>
<path d="M0,0 L1,0 L1,1 L0,1 Z " fill="#BF0040" transform="translate(42,60)"/>
<path d="M0,0 L1,0 L1,1 L0,1 Z " fill="#000000" transform="translate(406,59)"/>
<path d="M0,0 L1,0 L1,1 L0,1 Z " fill="#000000" transform="translate(381,59)"/>
<path d="M0,0 L1,0 L1,1 L0,1 Z " fill="#000000" transform="translate(376,59)"/>
<path d="M0,0 L1,0 L1,1 L0,1 Z " fill="#000000" transform="translate(344,59)"/>
<path d="M0,0 L1,0 L1,1 L0,1 Z " fill="#000000" transform="translate(338,59)"/>
<path d="M0,0 L1,0 L1,1 L0,1 Z " fill="#000000" transform="translate(322,59)"/>
<path d="M0,0 L1,0 L1,1 L0,1 Z " fill="#000000" transform="translate(316,59)"/>
<path d="M0,0 L1,0 L1,1 L0,1 Z " fill="#000000" transform="translate(279,59)"/>
<path d="M0,0 L1,0 L1,1 L0,1 Z " fill="#000000" transform="translate(273,59)"/>
<path d="M0,0 L1,0 L1,1 L0,1 Z " fill="#000000" transform="translate(235,59)"/>
<path d="M0,0 L1,0 L1,1 L0,1 Z " fill="#000000" transform="translate(229,59)"/>
<path d="M0,0 L1,0 L1,1 L0,1 Z " fill="#000000" transform="translate(199,59)"/>
<path d="M0,0 L1,0 L1,1 L0,1 Z " fill="#000000" transform="translate(141,59)"/>
<path d="M0,0 L1,0 L1,1 L0,1 Z " fill="#000000" transform="translate(125,59)"/>
<path d="M0,0 L1,0 L1,1 L0,1 Z " fill="#000000" transform="translate(119,59)"/>
<path d="M0,0 L1,0 L1,1 L0,1 Z " fill="#000000" transform="translate(103,59)"/>
<path d="M0,0 L1,0 L1,1 L0,1 Z " fill="#FF4040" transform="translate(77,59)"/>
<path d="M0,0 L1,0 L1,1 L0,1 Z " fill="#FF3333" transform="translate(49,59)"/>
<path d="M0,0 L1,0 L1,1 L0,1 Z " fill="#FF3333" transform="translate(41,59)"/>
<path d="M0,0 L1,0 L1,1 L0,1 Z " fill="#FF0040" transform="translate(13,59)"/>
<path d="M0,0 L1,0 L1,1 L0,1 Z " fill="#000000" transform="translate(394,58)"/>
<path d="M0,0 L1,0 L1,1 L0,1 Z " fill="#000000" transform="translate(382,58)"/>
<path d="M0,0 L1,0 L1,1 L0,1 Z " fill="#000000" transform="translate(356,58)"/>
<path d="M0,0 L1,0 L1,1 L0,1 Z " fill="#000000" transform="translate(323,58)"/>
<path d="M0,0 L1,0 L1,1 L0,1 Z " fill="#000000" transform="translate(307,58)"/>
<path d="M0,0 L1,0 L1,1 L0,1 Z " fill="#000000" transform="translate(290,58)"/>
<path d="M0,0 L1,0 L1,1 L0,1 Z " fill="#000000" transform="translate(280,58)"/>
<path d="M0,0 L1,0 L1,1 L0,1 Z " fill="#000000" transform="translate(272,58)"/>
<path d="M0,0 L1,0 L1,1 L0,1 Z " fill="#000000" transform="translate(264,58)"/>
<path d="M0,0 L1,0 L1,1 L0,1 Z " fill="#000000" transform="translate(216,58)"/>
<path d="M0,0 L1,0 L1,1 L0,1 Z " fill="#000000" transform="translate(178,58)"/>
<path d="M0,0 L1,0 L1,1 L0,1 Z " fill="#000000" transform="translate(147,58)"/>
<path d="M0,0 L1,0 L1,1 L0,1 Z " fill="#000000" transform="translate(140,58)"/>
<path d="M0,0 L1,0 L1,1 L0,1 Z " fill="#000000" transform="translate(104,58)"/>
<path d="M0,0 L1,0 L1,1 L0,1 Z " fill="#000000" transform="translate(97,58)"/>
<path d="M0,0 L1,0 L1,1 L0,1 Z " fill="#FF0000" transform="translate(78,58)"/>
<path d="M0,0 L1,0 L1,1 L0,1 Z " fill="#FF3333" transform="translate(50,58)"/>
<path d="M0,0 L1,0 L1,1 L0,1 Z " fill="#D52B2B" transform="translate(40,58)"/>
<path d="M0,0 L1,0 L1,1 L0,1 Z " fill="#000000" transform="translate(265,57)"/>
<path d="M0,0 L1,0 L1,1 L0,1 Z " fill="#000000" transform="translate(245,57)"/>
<path d="M0,0 L1,0 L1,1 L0,1 Z " fill="#000000" transform="translate(196,57)"/>
<path d="M0,0 L1,0 L1,1 L0,1 Z " fill="#000000" transform="translate(159,57)"/>
<path d="M0,0 L1,0 L1,1 L0,1 Z " fill="#FF0000" transform="translate(79,57)"/>
<path d="M0,0 L1,0 L1,1 L0,1 Z " fill="#FF3333" transform="translate(51,57)"/>
<path d="M0,0 L1,0 L1,1 L0,1 Z " fill="#D52B2B" transform="translate(39,57)"/>
<path d="M0,0 L1,0 L1,1 L0,1 Z " fill="#000000" transform="translate(408,56)"/>
<path d="M0,0 L1,0 L1,1 L0,1 Z " fill="#000000" transform="translate(391,56)"/>
<path d="M0,0 L1,0 L1,1 L0,1 Z " fill="#000000" transform="translate(353,56)"/>
<path d="M0,0 L1,0 L1,1 L0,1 Z " fill="#000000" transform="translate(310,56)"/>
<path d="M0,0 L1,0 L1,1 L0,1 Z " fill="#000000" transform="translate(287,56)"/>
<path d="M0,0 L1,0 L1,1 L0,1 Z " fill="#000000" transform="translate(244,56)"/>
<path d="M0,0 L1,0 L1,1 L0,1 Z " fill="#000000" transform="translate(219,56)"/>
<path d="M0,0 L1,0 L1,1 L0,1 Z " fill="#000000" transform="translate(195,56)"/>
<path d="M0,0 L1,0 L1,1 L0,1 Z " fill="#000000" transform="translate(181,56)"/>
<path d="M0,0 L1,0 L1,1 L0,1 Z " fill="#000000" transform="translate(158,56)"/>
<path d="M0,0 L1,0 L1,1 L0,1 Z " fill="#FF4040" transform="translate(80,56)"/>
<path d="M0,0 L1,0 L1,1 L0,1 Z " fill="#D52B2B" transform="translate(52,56)"/>
<path d="M0,0 L1,0 L1,1 L0,1 Z " fill="#D52B2B" transform="translate(38,56)"/>
<path d="M0,0 L1,0 L1,1 L0,1 Z " fill="#000000" transform="translate(390,55)"/>
<path d="M0,0 L1,0 L1,1 L0,1 Z " fill="#000000" transform="translate(352,55)"/>
<path d="M0,0 L1,0 L1,1 L0,1 Z " fill="#000000" transform="translate(311,55)"/>
<path d="M0,0 L1,0 L1,1 L0,1 Z " fill="#000000" transform="translate(286,55)"/>
<path d="M0,0 L1,0 L1,1 L0,1 Z " fill="#000000" transform="translate(243,55)"/>
<path d="M0,0 L1,0 L1,1 L0,1 Z " fill="#000000" transform="translate(220,55)"/>
<path d="M0,0 L1,0 L1,1 L0,1 Z " fill="#000000" transform="translate(194,55)"/>
<path d="M0,0 L1,0 L1,1 L0,1 Z " fill="#000000" transform="translate(182,55)"/>
<path d="M0,0 L1,0 L1,1 L0,1 Z " fill="#000000" transform="translate(157,55)"/>
<path d="M0,0 L1,0 L1,1 L0,1 Z " fill="#FF0000" transform="translate(58,55)"/>
<path d="M0,0 L1,0 L1,1 L0,1 Z " fill="#FF3333" transform="translate(53,55)"/>
<path d="M0,0 L1,0 L1,1 L0,1 Z " fill="#FF3333" transform="translate(37,55)"/>
<path d="M0,0 L1,0 L1,1 L0,1 Z " fill="#FF0040" transform="translate(9,55)"/>
<path d="M0,0 L1,0 L1,1 L0,1 Z " fill="#000000" transform="translate(389,54)"/>
<path d="M0,0 L1,0 L1,1 L0,1 Z " fill="#000000" transform="translate(351,54)"/>
<path d="M0,0 L1,0 L1,1 L0,1 Z " fill="#000000" transform="translate(285,54)"/>
<path d="M0,0 L1,0 L1,1 L0,1 Z " fill="#000000" transform="translate(242,54)"/>
<path d="M0,0 L1,0 L1,1 L0,1 Z " fill="#000000" transform="translate(193,54)"/>
<path d="M0,0 L1,0 L1,1 L0,1 Z " fill="#000000" transform="translate(183,54)"/>
<path d="M0,0 L1,0 L1,1 L0,1 Z " fill="#000000" transform="translate(156,54)"/>
<path d="M0,0 L1,0 L1,1 L0,1 Z " fill="#FF3333" transform="translate(54,54)"/>
<path d="M0,0 L1,0 L1,1 L0,1 Z " fill="#FF3333" transform="translate(36,54)"/>
<path d="M0,0 L1,0 L1,1 L0,1 Z " fill="#000000" transform="translate(406,53)"/>
<path d="M0,0 L1,0 L1,1 L0,1 Z " fill="#000000" transform="translate(241,53)"/>
<path d="M0,0 L1,0 L1,1 L0,1 Z " fill="#000000" transform="translate(192,53)"/>
<path d="M0,0 L1,0 L1,1 L0,1 Z " fill="#000000" transform="translate(155,53)"/>
<path d="M0,0 L1,0 L1,1 L0,1 Z " fill="#FF3333" transform="translate(55,53)"/>
<path d="M0,0 L1,0 L1,1 L0,1 Z " fill="#FF3333" transform="translate(35,53)"/>
<path d="M0,0 L1,0 L1,1 L0,1 Z " fill="#000000" transform="translate(272,52)"/>
<path d="M0,0 L1,0 L1,1 L0,1 Z " fill="#000000" transform="translate(169,52)"/>
<path d="M0,0 L1,0 L1,1 L0,1 Z " fill="#000000" transform="translate(154,52)"/>
<path d="M0,0 L1,0 L1,1 L0,1 Z " fill="#FF3333" transform="translate(56,52)"/>
<path d="M0,0 L1,0 L1,1 L0,1 Z " fill="#FF3333" transform="translate(34,52)"/>
<path d="M0,0 L1,0 L1,1 L0,1 Z " fill="#000000" transform="translate(387,51)"/>
<path d="M0,0 L1,0 L1,1 L0,1 Z " fill="#000000" transform="translate(349,51)"/>
<path d="M0,0 L1,0 L1,1 L0,1 Z " fill="#000000" transform="translate(311,51)"/>
<path d="M0,0 L1,0 L1,1 L0,1 Z " fill="#000000" transform="translate(283,51)"/>
<path d="M0,0 L1,0 L1,1 L0,1 Z " fill="#000000" transform="translate(279,51)"/>
<path d="M0,0 L1,0 L1,1 L0,1 Z " fill="#000000" transform="translate(273,51)"/>
<path d="M0,0 L1,0 L1,1 L0,1 Z " fill="#FF3333" transform="translate(57,51)"/>
<path d="M0,0 L1,0 L1,1 L0,1 Z " fill="#FF3333" transform="translate(33,51)"/>
<path d="M0,0 L1,0 L1,1 L0,1 Z " fill="#000000" transform="translate(359,50)"/>
<path d="M0,0 L1,0 L1,1 L0,1 Z " fill="#000000" transform="translate(310,50)"/>
<path d="M0,0 L1,0 L1,1 L0,1 Z " fill="#000000" transform="translate(304,50)"/>
<path d="M0,0 L1,0 L1,1 L0,1 Z " fill="#000000" transform="translate(267,50)"/>
<path d="M0,0 L1,0 L1,1 L0,1 Z " fill="#000000" transform="translate(250,50)"/>
<path d="M0,0 L1,0 L1,1 L0,1 Z " fill="#000000" transform="translate(239,50)"/>
<path d="M0,0 L1,0 L1,1 L0,1 Z " fill="#000000" transform="translate(213,50)"/>
<path d="M0,0 L1,0 L1,1 L0,1 Z " fill="#FF3333" transform="translate(58,50)"/>
<path d="M0,0 L1,0 L1,1 L0,1 Z " fill="#DF2020" transform="translate(45,50)"/>
<path d="M0,0 L1,0 L1,1 L0,1 Z " fill="#FF3333" transform="translate(32,50)"/>
<path d="M0,0 L1,0 L1,1 L0,1 Z " fill="#000000" transform="translate(396,49)"/>
<path d="M0,0 L1,0 L1,1 L0,1 Z " fill="#000000" transform="translate(372,49)"/>
<path d="M0,0 L1,0 L1,1 L0,1 Z " fill="#000000" transform="translate(358,49)"/>
<path d="M0,0 L1,0 L1,1 L0,1 Z " fill="#000000" transform="translate(309,49)"/>
<path d="M0,0 L1,0 L1,1 L0,1 Z " fill="#000000" transform="translate(292,49)"/>
<path d="M0,0 L1,0 L1,1 L0,1 Z " fill="#000000" transform="translate(214,49)"/>
<path d="M0,0 L1,0 L1,1 L0,1 Z " fill="#000000" transform="translate(176,49)"/>
<path d="M0,0 L1,0 L1,1 L0,1 Z " fill="#D52B2B" transform="translate(59,49)"/>
<path d="M0,0 L1,0 L1,1 L0,1 Z " fill="#FF3333" transform="translate(46,49)"/>
<path d="M0,0 L1,0 L1,1 L0,1 Z " fill="#CC3333" transform="translate(44,49)"/>
<path d="M0,0 L1,0 L1,1 L0,1 Z " fill="#FF3333" transform="translate(31,49)"/>
<path d="M0,0 L1,0 L1,1 L0,1 Z " fill="#000000" transform="translate(395,48)"/>
<path d="M0,0 L1,0 L1,1 L0,1 Z " fill="#000000" transform="translate(291,48)"/>
<path d="M0,0 L1,0 L1,1 L0,1 Z " fill="#000000" transform="translate(264,48)"/>
<path d="M0,0 L1,0 L1,1 L0,1 Z " fill="#000000" transform="translate(199,48)"/>
<path d="M0,0 L1,0 L1,1 L0,1 Z " fill="#000000" transform="translate(184,48)"/>
<path d="M0,0 L1,0 L1,1 L0,1 Z " fill="#000000" transform="translate(177,48)"/>
<path d="M0,0 L1,0 L1,1 L0,1 Z " fill="#FF3333" transform="translate(60,48)"/>
<path d="M0,0 L1,0 L1,1 L0,1 Z " fill="#FF3333" transform="translate(47,48)"/>
<path d="M0,0 L1,0 L1,1 L0,1 Z " fill="#CC3333" transform="translate(43,48)"/>
<path d="M0,0 L1,0 L1,1 L0,1 Z " fill="#CC3333" transform="translate(30,48)"/>
<path d="M0,0 L1,0 L1,1 L0,1 Z " fill="#FF4040" transform="translate(61,47)"/>
<path d="M0,0 L1,0 L1,1 L0,1 Z " fill="#FF3333" transform="translate(48,47)"/>
<path d="M0,0 L1,0 L1,1 L0,1 Z " fill="#CC3333" transform="translate(42,47)"/>
<path d="M0,0 L1,0 L1,1 L0,1 Z " fill="#FF0040" transform="translate(29,47)"/>
<path d="M0,0 L1,0 L1,1 L0,1 Z " fill="#FF0000" transform="translate(62,46)"/>
<path d="M0,0 L1,0 L1,1 L0,1 Z " fill="#FF3333" transform="translate(49,46)"/>
<path d="M0,0 L1,0 L1,1 L0,1 Z " fill="#CC3333" transform="translate(41,46)"/>
<path d="M0,0 L1,0 L1,1 L0,1 Z " fill="#000000" transform="translate(186,45)"/>
<path d="M0,0 L1,0 L1,1 L0,1 Z " fill="#FF3333" transform="translate(50,45)"/>
<path d="M0,0 L1,0 L1,1 L0,1 Z " fill="#CC3333" transform="translate(40,45)"/>
<path d="M0,0 L1,0 L1,1 L0,1 Z " fill="#FF3333" transform="translate(51,44)"/>
<path d="M0,0 L1,0 L1,1 L0,1 Z " fill="#CC3333" transform="translate(39,44)"/>
<path d="M0,0 L1,0 L1,1 L0,1 Z " fill="#FF3333" transform="translate(52,43)"/>
<path d="M0,0 L1,0 L1,1 L0,1 Z " fill="#CC3333" transform="translate(38,43)"/>
<path d="M0,0 L1,0 L1,1 L0,1 Z " fill="#AA0000" transform="translate(47,40)"/>
<path d="M0,0 L1,0 L1,1 L0,1 Z " fill="#FF0000" transform="translate(43,40)"/>
<path d="M0,0 L1,0 L1,1 L0,1 Z " fill="#FF3333" transform="translate(48,39)"/>
<path d="M0,0 L1,0 L1,1 L0,1 Z " fill="#FF3333" transform="translate(42,39)"/>
<path d="M0,0 L1,0 L1,1 L0,1 Z " fill="#000000" transform="translate(357,37)"/>
<path d="M0,0 L1,0 L1,1 L0,1 Z " fill="#000000" transform="translate(199,37)"/>
<path d="M0,0 L1,0 L1,1 L0,1 Z " fill="#000000" transform="translate(372,36)"/>
<path d="M0,0 L1,0 L1,1 L0,1 Z " fill="#000000" transform="translate(248,36)"/>
<path d="M0,0 L1,0 L1,1 L0,1 Z " fill="#000000" transform="translate(214,36)"/>
<path d="M0,0 L1,0 L1,1 L0,1 Z " fill="#000000" transform="translate(200,36)"/>
<path d="M0,0 L1,0 L1,1 L0,1 Z " fill="#000000" transform="translate(176,36)"/>
<path d="M0,0 L1,0 L1,1 L0,1 Z " fill="#000000" transform="translate(162,36)"/>
<path d="M0,0 L1,0 L1,1 L0,1 Z " fill="#000000" transform="translate(371,35)"/>
<path d="M0,0 L1,0 L1,1 L0,1 Z " fill="#000000" transform="translate(335,35)"/>
<path d="M0,0 L1,0 L1,1 L0,1 Z " fill="#000000" transform="translate(325,35)"/>
<path d="M0,0 L1,0 L1,1 L0,1 Z " fill="#000000" transform="translate(310,35)"/>
<path d="M0,0 L1,0 L1,1 L0,1 Z " fill="#000000" transform="translate(266,35)"/>
<path d="M0,0 L1,0 L1,1 L0,1 Z " fill="#000000" transform="translate(249,35)"/>
<path d="M0,0 L1,0 L1,1 L0,1 Z " fill="#000000" transform="translate(213,35)"/>
<path d="M0,0 L1,0 L1,1 L0,1 Z " fill="#000000" transform="translate(201,35)"/>
<path d="M0,0 L1,0 L1,1 L0,1 Z " fill="#000000" transform="translate(175,35)"/>
<path d="M0,0 L1,0 L1,1 L0,1 Z " fill="#000000" transform="translate(128,35)"/>
<path d="M0,0 L1,0 L1,1 L0,1 Z " fill="#000000" transform="translate(116,35)"/>
<path d="M0,0 L1,0 L1,1 L0,1 Z " fill="#000000" transform="translate(334,34)"/>
<path d="M0,0 L1,0 L1,1 L0,1 Z " fill="#000000" transform="translate(326,34)"/>
<path d="M0,0 L1,0 L1,1 L0,1 Z " fill="#000000" transform="translate(267,34)"/>
<path d="M0,0 L1,0 L1,1 L0,1 Z " fill="#FF4040" transform="translate(62,34)"/>
<path d="M0,0 L1,0 L1,1 L0,1 Z " fill="#FF0040" transform="translate(28,34)"/>
<path d="M0,0 L1,0 L1,1 L0,1 Z " fill="#000000" transform="translate(380,33)"/>
<path d="M0,0 L1,0 L1,1 L0,1 Z " fill="#000000" transform="translate(240,33)"/>
<path d="M0,0 L1,0 L1,1 L0,1 Z " fill="#000000" transform="translate(154,33)"/>
<path d="M0,0 L1,0 L1,1 L0,1 Z " fill="#000000" transform="translate(402,32)"/>
<path d="M0,0 L1,0 L1,1 L0,1 Z " fill="#000000" transform="translate(350,32)"/>
<path d="M0,0 L1,0 L1,1 L0,1 Z " fill="#000000" transform="translate(284,32)"/>
<path d="M0,0 L1,0 L1,1 L0,1 Z " fill="#000000" transform="translate(184,32)"/>
<path d="M0,0 L1,0 L1,1 L0,1 Z " fill="#000000" transform="translate(146,32)"/>
<path d="M0,0 L1,0 L1,1 L0,1 Z " fill="#000000" transform="translate(98,32)"/>
<path d="M0,0 L1,0 L1,1 L0,1 Z " fill="#000000" transform="translate(351,31)"/>
<path d="M0,0 L1,0 L1,1 L0,1 Z " fill="#000000" transform="translate(285,31)"/>
<path d="M0,0 L1,0 L1,1 L0,1 Z " fill="#000000" transform="translate(193,31)"/>
<path d="M0,0 L1,0 L1,1 L0,1 Z " fill="#000000" transform="translate(183,31)"/>
<path d="M0,0 L1,0 L1,1 L0,1 Z " fill="#000000" transform="translate(145,31)"/>
<path d="M0,0 L1,0 L1,1 L0,1 Z " fill="#000000" transform="translate(99,31)"/>
<path d="M0,0 L1,0 L1,1 L0,1 Z " fill="#000000" transform="translate(404,30)"/>
<path d="M0,0 L1,0 L1,1 L0,1 Z " fill="#000000" transform="translate(378,30)"/>
<path d="M0,0 L1,0 L1,1 L0,1 Z " fill="#000000" transform="translate(352,30)"/>
<path d="M0,0 L1,0 L1,1 L0,1 Z " fill="#000000" transform="translate(342,30)"/>
<path d="M0,0 L1,0 L1,1 L0,1 Z " fill="#000000" transform="translate(311,30)"/>
<path d="M0,0 L1,0 L1,1 L0,1 Z " fill="#000000" transform="translate(286,30)"/>
<path d="M0,0 L1,0 L1,1 L0,1 Z " fill="#000000" transform="translate(242,30)"/>
<path d="M0,0 L1,0 L1,1 L0,1 Z " fill="#000000" transform="translate(194,30)"/>
<path d="M0,0 L1,0 L1,1 L0,1 Z " fill="#000000" transform="translate(182,30)"/>
<path d="M0,0 L1,0 L1,1 L0,1 Z " fill="#000000" transform="translate(156,30)"/>
<path d="M0,0 L1,0 L1,1 L0,1 Z " fill="#000000" transform="translate(144,30)"/>
<path d="M0,0 L1,0 L1,1 L0,1 Z " fill="#FF2B2B" transform="translate(45,30)"/>
<path d="M0,0 L1,0 L1,1 L0,1 Z " fill="#FF0040" transform="translate(32,30)"/>
<path d="M0,0 L1,0 L1,1 L0,1 Z " fill="#000000" transform="translate(377,29)"/>
<path d="M0,0 L1,0 L1,1 L0,1 Z " fill="#000000" transform="translate(353,29)"/>
<path d="M0,0 L1,0 L1,1 L0,1 Z " fill="#000000" transform="translate(341,29)"/>
<path d="M0,0 L1,0 L1,1 L0,1 Z " fill="#000000" transform="translate(310,29)"/>
<path d="M0,0 L1,0 L1,1 L0,1 Z " fill="#000000" transform="translate(287,29)"/>
<path d="M0,0 L1,0 L1,1 L0,1 Z " fill="#000000" transform="translate(267,29)"/>
<path d="M0,0 L1,0 L1,1 L0,1 Z " fill="#000000" transform="translate(195,29)"/>
<path d="M0,0 L1,0 L1,1 L0,1 Z " fill="#000000" transform="translate(181,29)"/>
<path d="M0,0 L1,0 L1,1 L0,1 Z " fill="#000000" transform="translate(157,29)"/>
<path d="M0,0 L1,0 L1,1 L0,1 Z " fill="#000000" transform="translate(143,29)"/>
<path d="M0,0 L1,0 L1,1 L0,1 Z " fill="#000000" transform="translate(122,29)"/>
<path d="M0,0 L1,0 L1,1 L0,1 Z " fill="#000000" transform="translate(354,28)"/>
<path d="M0,0 L1,0 L1,1 L0,1 Z " fill="#000000" transform="translate(340,28)"/>
<path d="M0,0 L1,0 L1,1 L0,1 Z " fill="#000000" transform="translate(309,28)"/>
<path d="M0,0 L1,0 L1,1 L0,1 Z " fill="#000000" transform="translate(288,28)"/>
<path d="M0,0 L1,0 L1,1 L0,1 Z " fill="#000000" transform="translate(266,28)"/>
<path d="M0,0 L1,0 L1,1 L0,1 Z " fill="#000000" transform="translate(196,28)"/>
<path d="M0,0 L1,0 L1,1 L0,1 Z " fill="#000000" transform="translate(180,28)"/>
<path d="M0,0 L1,0 L1,1 L0,1 Z " fill="#000000" transform="translate(142,28)"/>
<path d="M0,0 L1,0 L1,1 L0,1 Z " fill="#000000" transform="translate(123,28)"/>
<path d="M0,0 L1,0 L1,1 L0,1 Z " fill="#000000" transform="translate(121,28)"/>
<path d="M0,0 L1,0 L1,1 L0,1 Z " fill="#FF0000" transform="translate(58,28)"/>
<path d="M0,0 L1,0 L1,1 L0,1 Z " fill="#FF0000" transform="translate(9,28)"/>
<path d="M0,0 L1,0 L1,1 L0,1 Z " fill="#000000" transform="translate(374,27)"/>
<path d="M0,0 L1,0 L1,1 L0,1 Z " fill="#000000" transform="translate(339,27)"/>
<path d="M0,0 L1,0 L1,1 L0,1 Z " fill="#000000" transform="translate(308,27)"/>
<path d="M0,0 L1,0 L1,1 L0,1 Z " fill="#000000" transform="translate(246,27)"/>
<path d="M0,0 L1,0 L1,1 L0,1 Z " fill="#000000" transform="translate(179,27)"/>
<path d="M0,0 L1,0 L1,1 L0,1 Z " fill="#000000" transform="translate(160,27)"/>
<path d="M0,0 L1,0 L1,1 L0,1 Z " fill="#000000" transform="translate(141,27)"/>
<path d="M0,0 L1,0 L1,1 L0,1 Z " fill="#000000" transform="translate(103,27)"/>
<path d="M0,0 L1,0 L1,1 L0,1 Z " fill="#FF4040" transform="translate(80,27)"/>
<path d="M0,0 L1,0 L1,1 L0,1 Z " fill="#FF0040" transform="translate(10,27)"/>
<path d="M0,0 L1,0 L1,1 L0,1 Z " fill="#000000" transform="translate(404,26)"/>
<path d="M0,0 L1,0 L1,1 L0,1 Z " fill="#000000" transform="translate(291,26)"/>
<path d="M0,0 L1,0 L1,1 L0,1 Z " fill="#000000" transform="translate(177,26)"/>
<path d="M0,0 L1,0 L1,1 L0,1 Z " fill="#000000" transform="translate(126,26)"/>
<path d="M0,0 L1,0 L1,1 L0,1 Z " fill="#000000" transform="translate(118,26)"/>
<path d="M0,0 L1,0 L1,1 L0,1 Z " fill="#FF0040" transform="translate(79,26)"/>
<path d="M0,0 L1,0 L1,1 L0,1 Z " fill="#FF0000" transform="translate(11,26)"/>
<path d="M0,0 L1,0 L1,1 L0,1 Z " fill="#000000" transform="translate(403,25)"/>
<path d="M0,0 L1,0 L1,1 L0,1 Z " fill="#000000" transform="translate(235,25)"/>
<path d="M0,0 L1,0 L1,1 L0,1 Z " fill="#000000" transform="translate(229,25)"/>
<path d="M0,0 L1,0 L1,1 L0,1 Z " fill="#FF0040" transform="translate(78,25)"/>
<path d="M0,0 L1,0 L1,1 L0,1 Z " fill="#FF0000" transform="translate(12,25)"/>
<path d="M0,0 L1,0 L1,1 L0,1 Z " fill="#FF0040" transform="translate(77,24)"/>
<path d="M0,0 L1,0 L1,1 L0,1 Z " fill="#FF4040" transform="translate(13,24)"/>
<path d="M0,0 L1,0 L1,1 L0,1 Z " fill="#000000" transform="translate(232,23)"/>
<path d="M0,0 L1,0 L1,1 L0,1 Z " fill="#000000" transform="translate(235,21)"/>
<path d="M0,0 L1,0 L1,1 L0,1 Z " fill="#000000" transform="translate(229,21)"/>
<path d="M0,0 L1,0 L1,1 L0,1 Z " fill="#000000" transform="translate(385,14)"/>
<path d="M0,0 L1,0 L1,1 L0,1 Z " fill="#000000" transform="translate(323,14)"/>
<path d="M0,0 L1,0 L1,1 L0,1 Z " fill="#000000" transform="translate(224,14)"/>
<path d="M0,0 L1,0 L1,1 L0,1 Z " fill="#000000" transform="translate(217,14)"/>
<path d="M0,0 L1,0 L1,1 L0,1 Z " fill="#000000" transform="translate(392,13)"/>
<path d="M0,0 L1,0 L1,1 L0,1 Z " fill="#000000" transform="translate(386,13)"/>
<path d="M0,0 L1,0 L1,1 L0,1 Z " fill="#000000" transform="translate(322,13)"/>
<path d="M0,0 L1,0 L1,1 L0,1 Z " fill="#000000" transform="translate(316,13)"/>
<path d="M0,0 L1,0 L1,1 L0,1 Z " fill="#000000" transform="translate(235,13)"/>
<path d="M0,0 L1,0 L1,1 L0,1 Z " fill="#000000" transform="translate(229,13)"/>
<path d="M0,0 L1,0 L1,1 L0,1 Z " fill="#000000" transform="translate(218,13)"/>
<path d="M0,0 L1,0 L1,1 L0,1 Z " fill="#000000" transform="translate(222,12)"/>
<path d="M0,0 L1,0 L1,1 L0,1 Z " fill="#000000" transform="translate(389,11)"/>
<path d="M0,0 L1,0 L1,1 L0,1 Z " fill="#000000" transform="translate(319,11)"/>
<path d="M0,0 L1,0 L1,1 L0,1 Z " fill="#000000" transform="translate(221,11)"/>
<path d="M0,0 L1,0 L1,1 L0,1 Z " fill="#FF0000" transform="translate(63,10)"/>
<path d="M0,0 L1,0 L1,1 L0,1 Z " fill="#FF0040" transform="translate(27,10)"/>
<path d="M0,0 L1,0 L1,1 L0,1 Z " fill="#FF4040" transform="translate(62,9)"/>
<path d="M0,0 L1,0 L1,1 L0,1 Z " fill="#BF0040" transform="translate(28,9)"/>
<path d="M0,0 L1,0 L1,1 L0,1 Z " fill="#FF4040" transform="translate(61,8)"/>
<path d="M0,0 L1,0 L1,1 L0,1 Z " fill="#FF0000" transform="translate(29,8)"/>
<path d="M0,0 L1,0 L1,1 L0,1 Z " fill="#FF4040" transform="translate(60,7)"/>
<path d="M0,0 L1,0 L1,1 L0,1 Z " fill="#BF0040" transform="translate(30,7)"/>
<path d="M0,0 L1,0 L1,1 L0,1 Z " fill="#FF0000" transform="translate(59,6)"/>
<path d="M0,0 L1,0 L1,1 L0,1 Z " fill="#FF4040" transform="translate(31,6)"/>
</svg>
