<svg xmlns="http://www.w3.org/2000/svg" version="1.1" viewBox="19.406 15.939 461.678 467.877">
<path transform="translate(202.1875,136.9375)" fill="#FE8143" d="M0 0 C0.75 0 1.5 0.01 2.27 0.01 C4.12 0.03 5.97 0.04 7.81 0.06 C8.31 2.04 8.31 2.04 8.81 4.06 C7.58 4.77 7.58 4.77 6.32 5.5 C-7.26 13.54 -17.21 22.66 -24.19 37.06 C-7.37 37.02 8.1 32.87 23.45 26.09 C29.43 23.48 35.36 22.5 41.81 22.06 C42.69 22 43.56 21.93 44.46 21.86 C57.12 21.36 69.09 24.65 80.16 30.67 C86.37 33.93 93.34 36.05 100.36 36.38 C101.63 36.44 101.63 36.44 102.92 36.51 C103.79 36.55 104.66 36.58 105.56 36.62 C106.45 36.67 107.34 36.71 108.25 36.76 C110.44 36.86 112.63 36.96 114.81 37.06 C106.71 21.91 96.83 12.22 81.81 4.06 C82.14 2.74 82.47 1.42 82.81 0.06 C101.67 -1.23 115.56 6.35 129.62 18.39 C141.21 28.58 151.93 39.42 160.81 52.06 C161.45 52.89 162.09 53.71 162.75 54.56 C167.8 61.67 167.59 68.65 166.81 77.06 C166.57 77.78 166.32 78.5 166.07 79.25 C165.58 81.22 165.58 81.22 167.25 83.11 C167.91 83.81 168.57 84.52 169.25 85.25 C172.31 89.05 173.86 91.44 173.43 96.36 C169.96 111.56 163.17 125.41 149.81 134.06 C139.71 139.77 139.71 139.77 135.64 140.4 C132.75 141.45 132.23 143.55 130.94 146.25 C129.23 149.82 127.52 152.51 124.7 155.25 C124.16 155.78 123.62 156.31 123.06 156.85 C122.65 157.25 122.24 157.65 121.81 158.06 C123.02 158.05 124.23 158.04 125.48 158.03 C129.99 157.99 134.49 158.01 139 158.05 C140.95 158.06 142.9 158.05 144.84 158.03 C147.65 158 150.45 158.03 153.26 158.06 C154.12 158.04 154.99 158.02 155.88 158 C159.48 158.09 161.86 158.2 164.59 160.67 C166.17 162.73 167.51 164.82 168.81 167.06 C169.19 167.65 169.57 168.24 169.96 168.84 C171.02 170.49 172.03 172.18 173.05 173.86 C173.41 174.47 173.78 175.07 174.15 175.69 C175.29 177.58 176.43 179.48 177.56 181.38 C178.71 183.29 179.87 185.2 181.02 187.11 C182.05 188.83 183.09 190.56 184.12 192.28 C185.31 194.23 186.54 196.16 187.81 198.06 C187.62 201.12 187.62 201.12 186.81 204.06 C183.81 206.06 183.81 206.06 180.92 206.12 C176.61 204.65 175.25 201.91 173.12 198.12 C172.27 196.68 171.41 195.23 170.56 193.78 C169.9 192.63 169.9 192.63 169.22 191.46 C167.76 188.97 166.25 186.52 164.72 184.07 C164.22 183.25 163.71 182.44 163.19 181.6 C162.2 180.01 161.21 178.42 160.22 176.83 C159.77 176.1 159.33 175.38 158.87 174.63 C158.47 173.99 158.07 173.35 157.66 172.69 C156.81 171.06 156.81 171.06 156.81 169.06 C131.57 169.56 131.57 169.56 105.81 170.06 C123.79 173.67 123.79 173.67 141.81 177.06 C146.73 181.4 148.27 187.97 150.39 194.02 C151.06 195.93 151.76 197.83 152.45 199.74 C152.89 200.96 153.32 202.17 153.77 203.43 C154.16 204.53 154.55 205.64 154.96 206.78 C155.9 210.39 156.18 213.34 155.81 217.06 C152.58 219.22 151.56 219.53 147.81 219.06 C144.44 216.59 143.61 213.23 142.31 209.38 C141.88 208.11 141.45 206.84 141.01 205.58 C140.62 204.42 140.22 203.26 139.81 202.06 C139.26 200.58 138.7 199.1 138.12 197.62 C136.84 194.14 135.81 190.64 134.81 187.06 C133.5 186.9 132.19 186.75 130.84 186.58 C116.66 184.79 102.77 182.16 88.81 179.06 C88.81 180.38 88.81 181.7 88.81 183.06 C89.38 183.26 89.94 183.47 90.52 183.67 C93.08 184.59 95.63 185.51 98.19 186.44 C99.08 186.75 99.97 187.07 100.88 187.4 C101.73 187.71 102.58 188.02 103.46 188.34 C104.25 188.62 105.03 188.9 105.84 189.19 C107.81 190.06 107.81 190.06 109.81 192.06 C110.97 195.75 111.69 199.54 112.5 203.31 C112.74 204.35 112.98 205.39 113.22 206.46 C115.32 216.1 115.32 216.1 113.81 221.06 C112.81 222.06 112.81 222.06 110.96 222.16 C108.91 222.13 106.86 222.1 104.81 222.06 C102.31 216.78 101.03 211.88 100.12 206.12 C100 205.35 99.87 204.57 99.73 203.76 C99.42 201.86 99.11 199.96 98.81 198.06 C97.9 197.93 96.99 197.79 96.05 197.66 C93.42 197.17 91.42 196.62 89 195.56 C83.75 193.5 78.24 192.25 72.81 194.06 C70.92 194.21 69.02 194.31 67.12 194.38 C65.46 194.44 65.46 194.44 63.76 194.51 C62.6 194.55 61.44 194.58 60.25 194.62 C59.09 194.67 57.93 194.71 56.73 194.76 C48.36 195.06 48.36 195.06 45.81 195.06 C46.99 195.72 46.99 195.72 48.19 196.38 C63.91 205.29 63.91 205.29 67.81 213.06 C68.75 218.74 68.73 224.34 65.75 229.38 C61.37 235.31 56.72 240.2 49.81 243.06 C49.38 241 49.38 241 49.81 238.06 C51.27 236.42 51.27 236.42 53.12 234.69 C57.75 230.36 59.43 226.81 60.31 220.44 C59.64 215.92 58.44 214.82 54.81 212.06 C50.93 209.81 46.85 208 42.77 206.13 C41.28 205.44 39.78 204.75 38.28 204.06 C36.79 203.36 35.29 202.68 33.79 202 C29.65 200.1 26.32 198.03 22.81 195.06 C15.01 192.53 8.47 194.24 1.13 197.19 C-1.19 198.06 -1.19 198.06 -3.19 198.06 C-3.29 199.11 -3.39 200.17 -3.5 201.25 C-5.4 216.38 -5.4 216.38 -9.19 222.06 C-12.69 222.38 -12.69 222.38 -16.19 222.06 C-18.19 220.06 -18.19 220.06 -18.42 216.55 C-18.29 211.69 -17.43 207.05 -16.44 202.31 C-16.28 201.48 -16.12 200.64 -15.96 199.78 C-14.99 195.11 -14.23 191.97 -10.19 189.06 C-7.75 187.8 -7.75 187.8 -5.19 186.81 C-4.34 186.48 -3.5 186.14 -2.62 185.8 C-0.19 185.06 -0.19 185.06 3.81 185.06 C3.15 183.74 2.49 182.42 1.81 181.06 C-6.4 181.85 -14.5 183.23 -22.62 184.62 C-24.68 184.98 -26.74 185.33 -28.8 185.67 C-30.65 185.99 -32.5 186.3 -34.35 186.62 C-37.19 187.06 -37.19 187.06 -39.19 187.06 C-39.35 187.79 -39.5 188.52 -39.67 189.27 C-41.22 195.94 -43.23 202.09 -46.01 208.35 C-47.19 210.96 -47.19 210.96 -47.93 213.34 C-48.56 215.25 -48.56 215.25 -50.19 218.06 C-53.68 219.19 -55.8 219.71 -59.19 218.12 C-61.69 212.96 -58.72 206.34 -57.01 201.26 C-56.34 199.39 -55.68 197.52 -55 195.66 C-54.31 193.74 -53.63 191.82 -52.96 189.89 C-52.52 188.67 -52.08 187.45 -51.63 186.2 C-51.24 185.09 -50.84 183.99 -50.43 182.85 C-49.24 180.19 -48.53 178.75 -46.19 177.06 C-43.99 176.37 -43.99 176.37 -41.43 175.93 C-40.5 175.76 -39.56 175.6 -38.59 175.43 C-37.61 175.26 -36.63 175.1 -35.62 174.94 C-34.67 174.77 -33.72 174.6 -32.74 174.43 C-26.58 173.36 -20.42 172.6 -14.19 172.06 C-14.52 171.4 -14.85 170.74 -15.19 170.06 C-39.29 166.24 -39.29 166.24 -62.19 171.24 C-69.28 177.22 -72.63 186.33 -75.84 194.78 C-77.55 198.94 -79.57 203.24 -83.19 206.06 C-86.02 206.35 -87.56 206.45 -90 204.94 C-91.75 202.18 -91.47 200.3 -91.19 197.06 C-89.74 193.97 -89.74 193.97 -87.71 190.7 C-87.35 190.11 -86.99 189.52 -86.62 188.92 C-85.47 187.04 -84.3 185.18 -83.12 183.31 C-82.36 182.08 -81.6 180.84 -80.85 179.6 C-79.36 177.18 -77.84 174.79 -76.29 172.41 C-74.17 169.17 -74.17 169.17 -72.72 165.98 C-71.12 162.93 -69.95 161.14 -67.19 159.06 C-61.24 157.35 -54.88 157.8 -48.75 157.94 C-47.05 157.94 -45.35 157.94 -43.64 157.93 C-39.49 157.92 -35.34 157.98 -31.19 158.06 C-32.02 157.15 -32.02 157.15 -32.87 156.21 C-33.59 155.41 -34.32 154.61 -35.06 153.78 C-35.78 152.98 -36.5 152.19 -37.24 151.37 C-39.82 148.31 -42.19 145.18 -42.19 141.06 C-43.05 140.96 -43.91 140.86 -44.79 140.75 C-55.45 138.58 -65.82 131.14 -72.12 122.38 C-77.49 113.7 -83.34 102.59 -82.76 92.09 C-81.82 88.77 -79.86 86.44 -77.6 83.89 C-76.06 81.9 -75.51 80.54 -75.19 78.06 C-75.52 77.4 -75.85 76.74 -76.19 76.06 C-77.68 66.12 -75.66 59.38 -69.86 51.48 C-68.97 50.34 -68.08 49.2 -67.19 48.06 C-66.78 47.53 -66.37 47 -65.96 46.46 C-50.89 27.05 -26.69 -0.3 0 0 Z" />
<path transform="translate(285,137)" fill="#FE8243" d="M0 0 C18.85 -1.29 32.75 6.29 46.81 18.32 C58.39 28.51 69.12 39.35 78 52 C78.64 52.82 79.28 53.65 79.94 54.5 C84.99 61.6 84.78 68.59 84 77 C83.76 77.72 83.51 78.44 83.26 79.18 C82.77 81.16 82.77 81.16 84.43 83.04 C85.09 83.75 85.76 84.46 86.44 85.19 C89.5 88.99 91.05 91.38 90.62 96.29 C87.15 111.5 80.36 125.35 67 134 C56.89 139.71 56.89 139.71 52.83 140.34 C49.94 141.39 49.42 143.48 48.12 146.19 C46.42 149.75 44.71 152.44 41.89 155.18 C41.35 155.72 40.81 156.25 40.25 156.79 C39.84 157.19 39.43 157.59 39 158 C40.21 157.99 41.42 157.98 42.67 157.96 C47.18 157.93 51.68 157.95 56.19 157.99 C58.14 158 60.08 157.99 62.03 157.97 C64.84 157.94 67.64 157.97 70.45 158 C71.31 157.98 72.18 157.96 73.07 157.94 C76.66 158.03 79.05 158.14 81.78 160.61 C83.36 162.67 84.69 164.76 86 167 C86.38 167.59 86.76 168.17 87.15 168.78 C88.21 170.43 89.22 172.12 90.23 173.8 C90.6 174.4 90.96 175.01 91.34 175.63 C92.48 177.52 93.61 179.42 94.75 181.31 C95.9 183.23 97.05 185.14 98.21 187.05 C99.24 188.77 100.27 190.49 101.31 192.22 C102.5 194.17 103.73 196.1 105 198 C104.81 201.06 104.81 201.06 104 204 C101 206 101 206 98.11 206.06 C93.8 204.59 92.43 201.85 90.31 198.06 C89.46 196.61 88.6 195.16 87.75 193.71 C87.3 192.95 86.86 192.19 86.41 191.4 C84.95 188.91 83.44 186.45 81.91 184 C81.4 183.19 80.9 182.38 80.38 181.54 C79.39 179.95 78.4 178.36 77.4 176.77 C76.96 176.04 76.51 175.32 76.05 174.57 C75.66 173.93 75.26 173.29 74.85 172.63 C74 171 74 171 74 169 C48.75 169.5 48.75 169.5 23 170 C40.98 173.61 40.98 173.61 59 177 C63.92 181.34 65.45 187.91 67.57 193.96 C68.25 195.87 68.94 197.77 69.64 199.68 C70.07 200.89 70.51 202.11 70.95 203.37 C71.35 204.47 71.74 205.58 72.15 206.71 C73.09 210.33 73.37 213.28 73 217 C69.77 219.16 68.75 219.47 65 219 C61.63 216.52 60.8 213.17 59.5 209.31 C59.07 208.05 58.63 206.78 58.2 205.52 C57.8 204.36 57.41 203.2 57 202 C56.45 200.52 55.88 199.04 55.31 197.56 C54.03 194.08 53 190.58 52 187 C50.69 186.84 49.38 186.68 48.03 186.52 C33.85 184.73 19.95 182.1 6 179 C6 180.32 6 181.64 6 183 C6.57 183.2 7.13 183.4 7.71 183.61 C10.27 184.53 12.82 185.45 15.38 186.38 C16.26 186.69 17.15 187.01 18.07 187.34 C18.92 187.65 19.77 187.95 20.65 188.27 C21.43 188.56 22.22 188.84 23.03 189.13 C25 190 25 190 27 192 C28.15 195.68 28.88 199.48 29.69 203.25 C29.93 204.29 30.16 205.33 30.41 206.39 C32.51 216.04 32.51 216.04 31 221 C30 222 30 222 28.15 222.1 C26.1 222.07 24.05 222.03 22 222 C19.5 216.72 18.22 211.82 17.31 206.06 C17.18 205.28 17.05 204.5 16.92 203.7 C16.61 201.8 16.3 199.9 16 198 C15.09 197.87 14.18 197.73 13.24 197.59 C10.61 197.11 8.61 196.55 6.19 195.5 C0.94 193.44 -4.57 192.19 -10 194 C-11.77 194.08 -13.55 194.11 -15.32 194.1 C-16.35 194.09 -17.38 194.09 -18.44 194.09 C-19.51 194.08 -20.58 194.07 -21.69 194.06 C-23.31 194.06 -23.31 194.06 -24.97 194.05 C-27.65 194.04 -30.32 194.02 -33 194 C-33.12 183.61 -32.83 173.36 -32 163 C-31.67 163.99 -31.34 164.98 -31 166 C-27.83 164.81 -24.66 163.6 -21.5 162.38 C-20.61 162.04 -19.73 161.71 -18.81 161.37 C-13.41 159.26 -9.05 156.87 -4.58 153.16 C-3 152 -3 152 -1 152 C-0.31 150.68 0.35 149.34 1 148 C1.54 146.97 2.07 145.94 2.62 144.88 C4.8 139.64 5.09 134.21 3.26 128.83 C-4.47 114.31 -26.23 110.49 -40.75 105.75 C-43.43 104.87 -46.12 103.99 -48.8 103.11 C-50.55 102.54 -50.55 102.54 -52.34 101.95 C-55 101 -55 101 -56 100 C-58 99.8 -58 99.8 -60.31 99.81 C-61.09 99.8 -61.87 99.78 -62.68 99.77 C-65.2 100.02 -66.82 100.74 -69 102 C-67.03 95.96 -63.43 93.92 -58 91 C-52.94 88.79 -48.56 87 -43 87 C-43 92.28 -43 97.56 -43 103 C-40.03 103.66 -37.06 104.32 -34 105 C-34 83.55 -34 62.1 -34 40 C-37.3 40 -40.6 40 -44 40 C-44 52.54 -44 65.08 -44 78 C-44.33 78 -44.66 78 -45 78 C-45 75.03 -45 72.06 -45 69 C-63.76 72.73 -63.76 72.73 -79.48 82.98 C-83.01 85.81 -86.89 87.81 -90.88 89.94 C-105.17 97.65 -116.41 106.82 -123 122 C-125.88 122.12 -125.88 122.12 -129 122 C-129.66 121.34 -130.32 120.68 -131 120 C-130.6 115.99 -129.54 112.24 -128.44 108.38 C-126.29 99.92 -125.95 92.24 -129 84 C-128.03 83.49 -127.06 82.98 -126.06 82.45 C-116.35 77.23 -107.59 71.26 -98.9 64.48 C-95.63 61.94 -92.32 59.47 -89 57 C-88.69 57.64 -88.38 58.28 -88.06 58.94 C-87.17 60.94 -87.17 60.94 -86 62 C-78.83 61.62 -72.79 59.95 -67.75 54.62 C-66.5 52.75 -65.27 50.85 -64.06 48.94 C-60.48 43.83 -55.97 40.78 -50 39 C-46.43 38.55 -42.91 38.52 -39.31 38.56 C-38.34 38.57 -37.36 38.57 -36.36 38.58 C-29.01 38.74 -22.66 39.72 -16 43 C-15.34 43.3 -14.67 43.6 -13.99 43.91 C-10.88 45.59 -10 47 -8.75 50.31 C-9.05 54.67 -9.95 56.33 -12.91 59.42 C-17.02 62.52 -22.78 65 -28 65 C-28 70.61 -28 76.22 -28 82 C-5.21 73.04 -5.21 73.04 10.26 55.11 C11.5 51.59 11.96 48.64 11 45 C9.28 42.07 7.2 39.58 5 37 C4.34 36.01 3.68 35.02 3 34 C4.26 34.31 5.52 34.62 6.81 34.94 C15.09 36.63 23.59 36.67 32 37 C23.9 21.85 14.01 12.16 -1 4 C-0.67 2.68 -0.34 1.36 0 0 Z" />
<path transform="translate(241,177)" fill="#081B73" d="M0 0 C3.3 0 6.6 0 10 0 C10 21.45 10 42.9 10 65 C3 64 3 64 1 63 C1 57.72 1 52.44 1 47 C-11.9 50.7 -11.9 50.7 -23 58 C-23 58.66 -23 59.32 -23 60 C-22.01 59.5 -22.01 59.5 -21 59 C-15.33 58.45 -11.65 58.94 -6.45 61.28 C-0.29 63.94 5.95 65.94 12.38 67.88 C39.21 76.23 39.21 76.23 47.38 87.19 C49.69 91.66 49.76 96.09 49 101 C46.08 109.96 39.06 115.64 31 120 C17.31 126 17.31 126 13 126 C12.34 135.57 11.68 145.14 11 155 C5 153 5 153 4 152 C3.82 149.98 3.7 147.95 3.61 145.92 C3.55 144.62 3.49 143.32 3.43 141.98 C3.37 140.55 3.31 139.11 3.25 137.68 C3.18 136.23 3.11 134.77 3.05 133.32 C2.88 129.48 2.71 125.64 2.54 121.8 C2.37 117.89 2.19 113.97 2.02 110.06 C1.67 102.37 1.33 94.69 1 87 C0.4 86.8 -0.21 86.61 -0.83 86.4 C-3.59 85.5 -6.35 84.59 -9.11 83.68 C-10.05 83.37 -11 83.06 -11.98 82.74 C-23.11 79.06 -32.09 74.96 -39 65 C-41.57 59.75 -41.67 54.74 -41 49 C-37.02 40.56 -29.59 36.37 -21.2 33.1 C-14.46 30.78 -8.15 29 -1 29 C-0.67 19.43 -0.34 9.86 0 0 Z" />
<path transform="translate(245.6875,175.5625)" fill="#FCFBFC" d="M0 0 C0.98 0.01 1.95 0.01 2.96 0.02 C10.3 0.18 16.66 1.16 23.31 4.44 C24.31 4.89 24.31 4.89 25.32 5.35 C28.44 7.02 29.31 8.44 30.56 11.75 C30.27 16.1 29.36 17.76 26.41 20.86 C22.29 23.96 16.53 26.44 11.31 26.44 C11.31 30.73 11.31 35.02 11.31 39.44 C10.98 39.44 10.65 39.44 10.31 39.44 C10.31 27.23 10.31 15.02 10.31 2.44 C9.32 2.44 8.33 2.44 7.31 2.44 C7.31 14.65 7.31 26.86 7.31 39.44 C6.65 39.44 5.99 39.44 5.31 39.44 C5.31 26.9 5.31 14.36 5.31 1.44 C2.01 1.44 -1.29 1.44 -4.69 1.44 C-4.69 13.98 -4.69 26.52 -4.69 39.44 C-5.02 39.44 -5.35 39.44 -5.69 39.44 C-5.69 36.47 -5.69 33.5 -5.69 30.44 C-24.45 34.17 -24.45 34.17 -40.17 44.42 C-43.7 47.25 -47.58 49.25 -51.56 51.38 C-65.86 59.08 -77.1 68.26 -83.69 83.44 C-86.56 83.56 -86.56 83.56 -89.69 83.44 C-90.35 82.78 -91.01 82.12 -91.69 81.44 C-91.29 77.43 -90.23 73.68 -89.12 69.81 C-86.98 61.36 -86.64 53.67 -89.69 45.44 C-88.72 44.93 -87.75 44.42 -86.75 43.89 C-77.03 38.66 -68.28 32.7 -59.59 25.91 C-56.32 23.38 -53 20.91 -49.69 18.44 C-49.38 19.08 -49.07 19.72 -48.75 20.38 C-47.85 22.37 -47.85 22.37 -46.69 23.44 C-39.52 23.06 -33.48 21.39 -28.44 16.06 C-27.18 14.18 -25.96 12.28 -24.75 10.38 C-18.47 1.44 -10.24 -0.11 0 0 Z" />
<path transform="translate(246.6328125,158.8046875)" fill="#071D76" d="M0 0 C16.73 -0.68 33.14 4.89 45.53 16.17 C49.2 20.21 50.95 23.49 50.72 29.08 C49.67 35.39 46.12 40.08 41.37 44.2 C40.78 44.73 40.18 45.26 39.57 45.81 C31.08 53 20.98 57.16 10.37 60.2 C10.37 54.59 10.37 48.98 10.37 43.2 C12.41 42.49 14.45 41.79 16.55 41.07 C22.13 38.91 25.58 37.56 28.37 32.2 C28.87 28.54 28.87 28.54 27.37 25.2 C19.34 19.05 9.23 17.63 -0.63 17.7 C-2.08 17.7 -2.08 17.7 -3.56 17.71 C-12.03 17.91 -17.99 19.45 -24.01 25.63 C-25.2 27.51 -26.38 29.38 -27.57 31.26 C-31.49 36.84 -36.19 39.41 -42.63 41.2 C-45.51 41.51 -45.51 41.51 -47.63 41.2 C-49.63 39.2 -49.63 39.2 -49.79 37.35 C-48.8 27.15 -43.23 18.91 -35.63 12.2 C-24.36 4.5 -13.51 1 0 0 Z" />
<path transform="translate(259.3125,82)" fill="#051B76" d="M0 0 C6.06 3.38 10.02 8.65 12.69 15 C13.9 23 12.23 29.37 7.69 36 C3.35 41.1 -2.47 43.54 -8.99 44.32 C-16.26 44.62 -21.57 43.36 -27.03 38.46 C-32.03 33.11 -34.36 27.4 -34.88 20.12 C-34.65 14.06 -32.19 9.58 -28.31 5 C-19.88 -2.07 -10.4 -4.69 0 0 Z" />
<path transform="translate(296,192)" fill="#FEFCFB" d="M0 0 C7.3 5.44 7.3 5.44 10.79 8.24 C20.78 16.18 31.51 23.39 43 29 C42.5 30.14 42.5 30.14 42 31.31 C39.71 39.77 40.06 51.21 44.09 59.15 C45.36 61.72 44.8 63.31 44 66 C43 67 43 67 39.94 67.06 C38.97 67.04 38 67.02 37 67 C36.65 66.13 36.65 66.13 36.29 65.23 C28.56 47.85 13.22 38.08 -3.83 31.21 C-4.87 30.81 -5.92 30.41 -7 30 C-7.8 29.69 -8.6 29.39 -9.42 29.07 C-15.79 26.81 -22.4 25.44 -29 24 C-26.06 21.67 -23.07 19.91 -19.75 18.19 C-10.84 13.35 -5.18 8.83 0 0 Z" />
<path transform="translate(242,291)" fill="#091D76" d="M0 0 C0 5.61 0 11.22 0 17 C-3.81 18.76 -3.81 18.76 -7.62 20.52 C-10.24 22.15 -11.02 23.11 -12 26 C-12 26.99 -12 27.98 -12 29 C-11.11 29.41 -11.11 29.41 -10.2 29.82 C-8.05 30.97 -6.58 32.16 -4.81 33.82 C-0.9 37.25 3.34 39.55 7.94 41.94 C16.06 46.31 23.71 50.47 28 59 C28.94 64.67 28.92 70.27 25.94 75.31 C21.56 81.25 16.9 86.14 10 89 C9.56 86.94 9.56 86.94 10 84 C11.45 82.36 11.45 82.36 13.31 80.62 C17.94 76.3 19.62 72.75 20.5 66.38 C19.83 61.85 18.63 60.76 15 58 C10.46 55.37 5.64 53.29 0.85 51.15 C-9.46 46.51 -18.22 42.17 -24 32 C-25.89 26.32 -26.02 20.21 -23.5 14.75 C-17.55 8.2 -9.43 0 0 0 Z" />
<path transform="translate(242,265)" fill="#DC7248" d="M0 0 C6.01 -0.13 10.5 0.78 16.12 2.69 C16.91 2.93 17.7 3.18 18.5 3.43 C23.43 5.07 26.67 6.82 30 11 C30.31 13.81 30.31 13.81 30 16 C29.34 16.33 28.68 16.66 28 17 C28 15.68 28 14.36 28 13 C21.07 16.46 21.07 16.46 14 20 C13.67 25.94 13.34 31.88 13 38 C12.67 38 12.34 38 12 38 C11.34 47.57 10.68 57.14 10 67 C4 65 4 65 3 64 C2.82 62.01 2.7 60.01 2.61 58.01 C2.55 56.73 2.49 55.45 2.43 54.13 C2.37 52.72 2.31 51.31 2.25 49.9 C2.18 48.47 2.11 47.04 2.05 45.6 C1.88 41.82 1.71 38.04 1.54 34.26 C1.37 30.41 1.19 26.56 1.02 22.7 C0.67 15.13 0.33 7.57 0 0 Z" />
<path transform="translate(51,196)" fill="#12277E" d="M0 0 C4.51 4.02 4.51 4.02 6 7 C6.04 11.47 5.55 15.07 3.25 18.94 C-0.18 22.08 -2.7 22.88 -7.31 23.31 C-13.06 22.83 -17.4 21.68 -21.44 17.44 C-24.08 13.32 -24.81 9.86 -24 5 C-22.32 1.92 -19.99 -0.25 -17.19 -2.38 C-10.84 -4.19 -5.7 -3.12 0 0 Z" />
<path transform="translate(290,23)" fill="#0E247C" d="M0 0 C3.58 2.21 5.4 4.16 7 8 C8.04 15.34 6.18 20.89 1.94 26.94 C-1.76 29.53 -4.19 29.66 -8.62 29.43 C-12.01 28.82 -13.73 27.55 -16 25 C-19.05 20.08 -18.61 14.59 -18 9 C-16.31 5.5 -16.31 5.5 -14 3 C-13.28 2.2 -12.56 1.39 -11.81 0.56 C-7.72 -1.71 -4.43 -1.26 0 0 Z" />
<path transform="translate(461.19140625,285.51953125)" fill="#0E247B" d="M0 0 C4.13 1.52 6.6 3.74 8.81 7.48 C9.92 11.57 10.08 13.73 8.62 17.73 C6.13 21.52 4.08 23.06 -0.19 24.48 C-6.55 25.02 -10.84 24.03 -16.19 20.48 C-19.56 17.55 -20.11 15.2 -20.63 10.73 C-20.53 6.46 -19.24 3.84 -16.3 0.77 C-11.41 -2.22 -5.36 -1.27 0 0 Z" />
<path transform="translate(460.875,234.6875)" fill="#0D237B" d="M0 0 C1.82 -0.03 1.82 -0.03 3.68 -0.05 C8.51 0.46 11.01 2.23 14.44 5.56 C16.64 9.15 16.71 11.16 16.12 15.31 C14.02 19.21 11.94 22.05 8.12 24.31 C2.42 25.07 -4.56 25.75 -9.62 22.56 C-12.93 19.26 -14.17 16.54 -14.25 11.88 C-14.18 8.47 -13.92 7.38 -12.06 4.38 C-7.96 0.5 -5.55 0.02 0 0 Z" />
<path transform="translate(116.78125,393.3984375)" fill="#0C227A" d="M0 0 C3.93 1.07 6.59 3.58 9.22 6.6 C11.02 10.19 10.28 13.83 9.22 17.6 C6.46 22.27 3.43 26.64 -1.78 28.6 C-6.31 29.3 -9.75 29.22 -13.72 26.85 C-17.35 22.89 -18.26 20.14 -18.09 14.62 C-17.26 9.23 -12.86 5.06 -8.77 1.75 C-5.8 0.04 -3.39 -0.22 0 0 Z" />
<path transform="translate(452.6875,150.1875)" fill="#0B217A" d="M0 0 C4.2 3.29 6.12 5.32 6.81 10.75 C6.55 15.06 5.25 17.58 2.31 20.81 C-2.75 24.65 -7.92 25.5 -14.19 25.27 C-17.94 24.58 -19.55 22.88 -21.69 19.81 C-22.93 16.07 -23.32 12.69 -22.69 8.81 C-17.9 1.04 -8.98 -3.97 0 0 Z" />
<path transform="translate(403,371)" fill="#0D237B" d="M0 0 C7.3 3.33 12.83 9.72 18.34 15.4 C19.92 17.09 19.92 17.09 22 18 C20.8 20.49 19.55 22.68 18 25 C11.06 22.84 4.57 20.11 -2 17 C-1.43 18.12 -0.87 19.24 -0.29 20.39 C0.46 21.87 1.2 23.34 1.94 24.81 C2.5 25.92 2.5 25.92 3.07 27.05 C3.6 28.12 3.6 28.12 4.15 29.21 C4.48 29.86 4.81 30.52 5.15 31.19 C6 33 6 33 7 36 C5.06 38.69 5.06 38.69 3 41 C-1.52 40.61 -3.94 37.35 -6.88 34.25 C-10.74 30.22 -14.65 26.51 -19 23 C-18.67 21.68 -18.34 20.36 -18 19 C-16.36 18.16 -16.36 18.16 -14 18 C-11.87 19.76 -10.11 21.42 -8.25 23.44 C-7.49 24.23 -7.49 24.23 -6.71 25.04 C-5.47 26.35 -4.23 27.67 -3 29 C-3.52 27.96 -4.03 26.93 -4.57 25.86 C-5.23 24.49 -5.9 23.12 -6.56 21.75 C-6.9 21.07 -7.25 20.39 -7.6 19.68 C-10.07 14.54 -10.07 14.54 -9.71 11.83 C-9 10 -9 10 -7 9 C-5.21 9.53 -5.21 9.53 -3.09 10.43 C-2.33 10.75 -1.56 11.07 -0.78 11.4 C0.01 11.74 0.81 12.08 1.62 12.44 C2.43 12.78 3.23 13.11 4.05 13.46 C6.04 14.3 8.02 15.15 10 16 C6.04 12.37 2.08 8.74 -2 5 C-1 1 -1 1 0 0 Z" />
<path transform="translate(219,441)" fill="#0E237B" d="M0 0 C0.99 0.33 1.98 0.66 3 1 C1.78 10.47 0.12 19.69 -2 29 C-8.41 29.46 -12.61 28.57 -18 25 C-21.33 22.1 -21.73 18.62 -22.06 14.38 C-21.92 9.04 -20.29 5.23 -16.44 1.56 C-11.14 -1.83 -5.94 -1.71 0 0 Z" />
<path transform="translate(89,364)" fill="#0C227A" d="M0 0 C1.32 0.66 2.64 1.32 4 2 C4 3.32 4 4.64 4 6 C1.87 7.94 -0.17 9.58 -2.5 11.25 C-3.12 11.71 -3.74 12.17 -4.38 12.64 C-5.91 13.77 -7.45 14.89 -9 16 C-7.9 15.56 -6.81 15.11 -5.68 14.65 C-4.22 14.08 -2.77 13.51 -1.31 12.94 C-0.59 12.64 0.13 12.35 0.87 12.04 C4.95 10.46 7.68 9.51 12 11 C11.4 15.87 9.28 19.59 6.94 23.81 C6.56 24.51 6.18 25.2 5.79 25.91 C4.87 27.61 3.94 29.31 3 31 C3.66 30.3 4.33 29.6 5.01 28.88 C5.89 27.97 6.78 27.06 7.69 26.12 C8.99 24.77 8.99 24.77 10.32 23.38 C12.88 21.11 14.77 20.01 18 19 C18.99 20.32 19.98 21.64 21 23 C16.68 27.01 12.35 31.01 8 35 C7.24 35.7 6.47 36.41 5.68 37.13 C1.36 41 1.36 41 -2 41 C-3.32 39.02 -4.64 37.04 -6 35 C-2.7 29.39 0.6 23.78 4 18 C-3.08 20 -3.08 20 -9.88 22.75 C-13 24 -13 24 -15.25 23.88 C-17.33 22.84 -18.58 21.84 -20 20 C-20 19.01 -20 18.02 -20 17 C-17.91 15.02 -17.91 15.02 -15.06 12.81 C-9.87 8.71 -4.9 4.44 0 0 Z" />
<path transform="translate(415,92)" fill="#0D237B" d="M0 0 C4.48 3.46 8.25 6.43 10 12 C10.27 16.67 9.71 20.61 6.81 24.38 C2.8 28.12 -0.55 30.13 -6.06 30.38 C-12.01 29.81 -14.51 27.69 -18.31 23.31 C-19.22 22.21 -20.11 21.11 -21 20 C-19.65 16.92 -18.22 15.04 -15.66 12.87 C-15.01 12.31 -14.36 11.75 -13.69 11.17 C-13.01 10.6 -12.33 10.03 -11.62 9.44 C-10.95 8.86 -10.28 8.28 -9.59 7.69 C-6.46 5.02 -3.33 2.4 0 0 Z" />
<path transform="translate(364,410)" fill="#0B217A" d="M0 0 C1.41 1.89 1.41 1.89 2.85 4.33 C3.37 5.21 3.89 6.09 4.43 7 C4.97 7.93 5.51 8.86 6.06 9.81 C6.6 10.73 7.15 11.64 7.71 12.59 C9.92 16.34 12.09 20.08 14 24 C2.79 31.04 2.79 31.04 -4 30.52 C-8.72 29.3 -11.23 26.13 -13.88 22.25 C-15.65 17.13 -15.86 12.45 -14.06 7.31 C-10.48 3.3 -5.49 -1.83 0 0 Z" />
<path transform="translate(132,406)" fill="#0F257C" d="M0 0 C5 2 5 2 6 3 C6.23 5.18 6.41 7.37 6.56 9.56 C6.69 11.36 6.69 11.36 6.82 13.19 C6.88 14.12 6.94 15.05 7 16 C7.99 16 8.98 16 10 16 C11.32 13.69 12.64 11.38 14 9 C15.65 9.66 17.3 10.32 19 11 C19 14.47 18.29 15.47 16.45 18.34 C15.91 19.18 15.38 20.01 14.83 20.87 C14.27 21.74 13.71 22.61 13.12 23.5 C12.57 24.37 12.01 25.24 11.44 26.13 C9.32 29.44 7.18 32.73 5 36 C-0.9 34.52 -6.97 31.3 -10.24 25.99 C-11.4 22.95 -10.94 21.09 -10 18 C-7.75 15.12 -7.75 15.12 -5 13 C-3.35 13 -1.7 13 0 13 C0 8.71 0 4.42 0 0 Z" />
<path transform="translate(253,178)" fill="#E87745" d="M0 0 C0.99 0 1.98 0 3 0 C3.12 22.03 2.97 43.99 2 66 C-1.48 67.21 -3.5 66.78 -6.95 65.6 C-8.34 65.13 -8.34 65.13 -9.77 64.65 C-10.73 64.31 -11.69 63.97 -12.69 63.62 C-13.66 63.3 -14.64 62.97 -15.64 62.62 C-22.84 60.16 -22.84 60.16 -24 59 C-26 58.8 -26 58.8 -28.31 58.81 C-29.09 58.8 -29.87 58.78 -30.68 58.77 C-33.2 59.02 -34.82 59.74 -37 61 C-35.03 54.96 -31.43 52.92 -26 50 C-20.94 47.79 -16.56 46 -11 46 C-11 51.28 -11 56.56 -11 62 C-8.03 62.66 -5.06 63.32 -2 64 C-2 55.09 -2 46.18 -2 37 C-1.34 37 -0.68 37 0 37 C0 24.79 0 12.58 0 0 Z" />
<path transform="translate(306,27)" fill="#0F257C" d="M0 0 C2.97 0.5 2.97 0.5 6 1 C7.65 6.94 9.3 12.88 11 19 C11.62 17.43 12.24 15.87 12.88 14.25 C14.12 11.09 15.43 8.02 17 5 C19.48 5.49 19.48 5.49 22 6 C21.32 12.19 19.7 17.97 17.94 23.94 C17.66 24.91 17.37 25.88 17.08 26.88 C16.39 29.25 15.7 31.63 15 34 C11.54 33.51 11.54 33.51 8 33 C6.35 26.4 4.7 19.8 3 13 C1.52 17.89 1.52 17.89 0.07 22.78 C-0.52 24.62 -0.52 24.62 -2 28 C-4.05 29.04 -4.05 29.04 -6 29 C-6.66 28.67 -7.32 28.34 -8 28 C-7.42 21.7 -5.97 16.07 -4 10.06 C-3.73 9.2 -3.45 8.34 -3.17 7.45 C-1.14 1.14 -1.14 1.14 0 0 Z" />
<path transform="translate(246,343)" fill="#F6F7FA" d="M0 0 C13.97 4.94 13.97 4.94 17 11 C17.6 17 16.31 21.1 13 26 C11.95 27.07 10.86 28.11 9.75 29.12 C6.68 31.75 6.68 31.75 6.62 35.38 C6.75 36.24 6.87 37.11 7 38 C6.01 38 5.02 38 4 38 C3.67 44.93 3.34 51.86 3 59 C2.67 59 2.34 59 2 59 C1.06 49.06 0.68 39.14 0.39 29.16 C0.19 22.71 -0.23 16.4 -1 10 C-1.08 8.33 -1.13 6.67 -1.12 5 C-1.13 3.89 -1.13 3.89 -1.13 2.75 C-1 1 -1 1 0 0 Z" />
<path transform="translate(164,425)" fill="#0E237B" d="M0 0 C2.85 0.4 2.85 0.4 6 2 C7.38 5.09 7.85 8.29 8.38 11.62 C8.62 12.97 8.62 12.97 8.87 14.34 C9.27 16.56 9.64 18.78 10 21 C11.98 16.38 13.96 11.76 16 7 C18.97 7.5 18.97 7.5 22 8 C21.37 11.66 20.36 14.87 18.93 18.3 C18.53 19.28 18.13 20.25 17.71 21.26 C17.29 22.27 16.87 23.27 16.44 24.31 C16.01 25.34 15.59 26.37 15.15 27.42 C14.1 29.95 13.05 32.48 12 35 C6.12 34.12 6.12 34.12 5 33 C4.7 31.59 4.46 30.17 4.25 28.75 C4.11 27.89 3.98 27.04 3.85 26.16 C3.71 25.26 3.58 24.36 3.44 23.44 C3.23 22.08 3.23 22.08 3.02 20.71 C2.67 18.47 2.34 16.24 2 14 C1.37 15.25 0.74 16.5 0.11 17.75 C-0.24 18.45 -0.59 19.14 -0.95 19.86 C-2.42 22.86 -3.72 25.92 -5 29 C-7.47 28.01 -7.47 28.01 -10 27 C-9.43 20.88 -6.89 15.68 -4.44 10.12 C-4.01 9.15 -3.59 8.18 -3.15 7.17 C-2.11 4.78 -1.06 2.39 0 0 Z" />
<path transform="translate(65,316)" fill="#0C227A" d="M0 0 C1.23 2.65 1.23 2.65 2 6 C0.55 8.82 0.55 8.82 -1.69 11.56 C-4.39 14.95 -6.85 18.23 -9 22 C-8.11 21.56 -7.22 21.11 -6.3 20.65 C-4.54 19.8 -4.54 19.8 -2.75 18.94 C-1.59 18.37 -0.43 17.8 0.77 17.21 C3.91 16.04 4.99 15.7 8 17 C8.5 19.48 8.5 19.48 9 22 C7.85 22.47 6.71 22.94 5.53 23.43 C4 24.05 2.47 24.68 0.94 25.31 C0.19 25.62 -0.57 25.93 -1.34 26.25 C-2.09 26.55 -2.83 26.86 -3.6 27.18 C-4.34 27.48 -5.08 27.78 -5.84 28.1 C-7.87 28.94 -9.87 29.83 -11.87 30.73 C-15 32 -15 32 -18 32 C-18.99 29.2 -19.38 27.9 -19 25 C-16.68 21.05 -13.87 17.56 -11 14 C-10.34 13.01 -9.68 12.02 -9 11 C-10.42 11.45 -11.83 11.91 -13.25 12.38 C-14.04 12.63 -14.83 12.89 -15.64 13.15 C-18 13.94 -18 13.94 -20.11 15.1 C-22 16 -22 16 -25 16 C-25.66 14.35 -26.32 12.7 -27 11 C-24.31 9.73 -21.63 8.46 -18.94 7.19 C-18.19 6.83 -17.43 6.47 -16.66 6.11 C-14.44 5.06 -12.22 4.03 -10 3 C-9.34 2.69 -8.67 2.39 -7.98 2.07 C-5.13 0.79 -3.16 0 0 0 Z" />
<path transform="translate(199,26)" fill="#0C227A" d="M0 0 C0.79 2.69 1.58 5.37 2.38 8.06 C2.6 8.81 2.82 9.57 3.05 10.34 C3.49 11.84 3.93 13.34 4.37 14.84 C4.95 16.84 5.56 18.82 6.16 20.81 C7 24 7 24 7 28 C4.39 28.83 4.39 28.83 1 29 C-1.38 27.28 -3.18 25.76 -5.19 23.69 C-9.35 19.56 -9.35 19.56 -14 16 C-13.71 16.89 -13.42 17.78 -13.12 18.7 C-12.75 19.87 -12.38 21.04 -12 22.25 C-11.44 23.99 -11.44 23.99 -10.88 25.77 C-10 29 -10 29 -10 33 C-12.97 33.49 -12.97 33.49 -16 34 C-17.2 29.92 -18.39 25.84 -19.56 21.75 C-19.9 20.59 -20.25 19.43 -20.6 18.24 C-20.92 17.12 -21.24 16.01 -21.57 14.86 C-21.86 13.83 -22.16 12.81 -22.47 11.75 C-22.99 9.03 -22.93 7.57 -22 5 C-18.6 4.59 -17.31 4.77 -14.5 6.83 C-13.26 8.03 -13.26 8.03 -12 9.25 C-8.77 12.34 -5.53 15.25 -2 18 C-2.43 16.54 -2.43 16.54 -2.88 15.04 C-3.25 13.76 -3.63 12.47 -4 11.19 C-4.56 9.29 -4.56 9.29 -5.12 7.36 C-6 4 -6 4 -6 1 C-3 0 -3 0 0 0 Z" />
<path transform="translate(466,176)" fill="#0B217A" d="M0 0 C0.94 2.06 0.94 2.06 1 5 C-0.48 6.91 -2.15 8.45 -3.94 10.09 C-7.24 13.15 -10.07 16.59 -13 20 C-7.39 18.68 -1.78 17.36 4 16 C4.5 18.97 4.5 18.97 5 22 C1.09 23.18 -2.83 24.34 -6.75 25.5 C-7.86 25.83 -8.97 26.17 -10.12 26.51 C-11.19 26.83 -12.26 27.14 -13.36 27.47 C-14.84 27.91 -14.84 27.91 -16.34 28.36 C-19 29 -19 29 -23 29 C-24 26.5 -24 26.5 -24 23 C-22.23 20.74 -20.27 18.9 -18.15 16.97 C-15.46 14.51 -13.27 11.84 -11 9 C-11.89 9.22 -12.78 9.43 -13.7 9.66 C-14.87 9.93 -16.04 10.21 -17.25 10.5 C-18.41 10.78 -19.57 11.06 -20.77 11.34 C-24 12 -24 12 -28 12 C-28.19 9.62 -28.19 9.62 -28 7 C-23.67 4.11 -18.99 3.17 -14 1.81 C-12.48 1.38 -12.48 1.38 -10.94 0.95 C-9.97 0.68 -9 0.42 -8 0.14 C-7.11 -0.1 -6.23 -0.34 -5.31 -0.59 C-3 -1 -3 -1 0 0 Z" />
<path transform="translate(449,312)" fill="#11267D" d="M0 0 C5.25 1.97 10.44 4.88 13 10 C13.42 14.84 12.64 18.7 9.56 22.5 C6 25.98 6 25.98 1.88 26.06 C0.93 26.04 -0.02 26.02 -1 26 C-0.67 24.02 -0.34 22.04 0 20 C1.98 19.34 3.96 18.68 6 18 C6 15.69 6 13.38 6 11 C0.91 8.04 -2.94 6.27 -9 7 C-11.35 8.9 -11.35 8.9 -11.12 12.12 C-11.06 13.55 -11.06 13.55 -11 15 C-9.68 15.33 -8.36 15.66 -7 16 C-6.67 14.68 -6.34 13.36 -6 12 C-4.68 12.33 -3.36 12.66 -2 13 C-2.99 16.3 -3.98 19.6 -5 23 C-9.75 22.53 -13.12 21.85 -17 19 C-18.75 15.5 -17.82 11.73 -17 8 C-12.79 0.28 -8.38 -1.19 0 0 Z" />
<path transform="translate(55,276)" fill="#0E247C" d="M0 0 C0.19 3.38 0.19 3.38 0 7 C-0.99 7.66 -1.98 8.32 -3 9 C-2.67 12.3 -2.34 15.6 -2 19 C-0.02 19.33 1.96 19.66 4 20 C4.33 21.98 4.66 23.96 5 26 C-1.82 26.16 -8.26 25.58 -15 24.56 C-15.95 24.43 -16.91 24.29 -17.89 24.15 C-24.87 23.13 -24.87 23.13 -26 22 C-26.39 19.19 -26.39 19.19 -26 16 C-23.83 13.85 -23.83 13.85 -20.82 11.91 C-19.75 11.21 -18.67 10.51 -17.57 9.79 C-16.42 9.07 -15.27 8.35 -14.12 7.62 C-12.98 6.88 -11.85 6.14 -10.71 5.39 C-2.35 0 -2.35 0 0 0 Z" />
<path transform="translate(74,339)" fill="#0F247C" d="M0 0 C1.32 1.32 2.64 2.64 4 4 C3.47 4.8 3.47 4.8 2.94 5.62 C1.69 8.79 2.17 10.74 3 14 C4.6 17.13 4.6 17.13 6.95 17.51 C7.66 17.57 8.38 17.63 9.12 17.69 C10.4 17.79 11.68 17.89 13 18 C13.66 19.65 14.32 21.3 15 23 C11.34 23.85 7.67 24.68 4 25.5 C2.97 25.74 1.94 25.98 0.88 26.22 C-4.89 27.51 -10.09 28.28 -16 28 C-16.66 26.35 -17.32 24.7 -18 23 C-17.2 22.01 -16.41 21.02 -15.59 20 C-10.29 13.41 -5.01 6.82 0 0 Z" />
<path transform="translate(215,22)" fill="#0E237B" d="M0 0 C1.98 0 3.96 0 6 0 C8.15 3.94 10.29 7.87 12.44 11.81 C13.05 12.93 13.66 14.05 14.29 15.21 C14.87 16.28 15.46 17.35 16.06 18.46 C16.6 19.45 17.14 20.44 17.69 21.46 C19 24 19 24 20 27 C18.02 27.33 16.04 27.66 14 28 C13.34 26.35 12.68 24.7 12 23 C8.04 23.33 4.08 23.66 0 24 C0 25.98 0 27.96 0 30 C-1.98 30 -3.96 30 -6 30 C-5.5 22.9 -4.26 16.25 -2.44 9.38 C-2.2 8.47 -1.97 7.56 -1.73 6.62 C-1.16 4.41 -0.58 2.21 0 0 Z" />
<path transform="translate(152,45)" fill="#0E247B" d="M0 0 C1.82 1.24 1.82 1.24 3.56 2.88 C4.23 3.5 4.91 4.12 5.6 4.75 C6.39 5.5 7.18 6.24 8 7 C9.06 7.95 10.12 8.9 11.18 9.84 C12.29 10.83 13.39 11.82 14.5 12.81 C15.04 13.29 15.58 13.77 16.14 14.27 C17.46 15.47 18.74 16.73 20 18 C20 18.66 20 19.32 20 20 C17 22 17 22 14.88 21.81 C14.26 21.54 13.64 21.28 13 21 C12.67 20.01 12.34 19.02 12 18 C8.8 19.04 5.83 20.15 3 22 C1.78 25.62 1.78 25.62 2 29 C0.35 29.66 -1.3 30.32 -3 31 C-5.24 20.86 -7.22 10.41 -7 0 C-4.26 -1.37 -2.9 -0.83 0 0 Z" />
<path transform="translate(303,436)" fill="#0B217A" d="M0 0 C1.65 0 3.3 0 5 0 C3.6 28.4 3.6 28.4 1 31 C-1.32 31.36 -1.32 31.36 -4 31 C-5.96 29.02 -5.96 29.02 -7.81 26.25 C-8.83 24.76 -8.83 24.76 -9.86 23.23 C-10.57 22.17 -11.27 21.1 -12 20 C-12.76 18.9 -13.53 17.8 -14.29 16.7 C-20 8.42 -20 8.42 -20 5 C-17.12 4.81 -17.12 4.81 -14 5 C-13.01 6.49 -13.01 6.49 -12 8 C-8.7 7.67 -5.4 7.34 -2 7 C-1.34 4.69 -0.68 2.38 0 0 Z" />
<path transform="translate(391.953125,70.24609375)" fill="#0C227B" d="M0 0 C0.68 0.25 1.35 0.5 2.05 0.75 C3.54 4.64 2.5 7.21 1.18 11.05 C0.77 12.26 0.36 13.46 -0.06 14.7 C-0.51 15.97 -0.95 17.24 -1.39 18.5 C-1.83 19.79 -2.27 21.07 -2.71 22.35 C-3.78 25.49 -4.86 28.62 -5.95 31.75 C-7.91 30.9 -7.91 30.9 -9.95 29.75 C-10.95 26.61 -10.95 24.09 -10.95 20.75 C-13.12 18.34 -13.12 18.34 -15.95 16.75 C-18.05 16.84 -18.05 16.84 -19.95 17.75 C-21.29 18.09 -22.62 18.42 -23.95 18.75 C-24.94 17.43 -25.93 16.11 -26.95 14.75 C-23.99 12.7 -20.98 10.72 -17.95 8.75 C-17.35 8.36 -16.75 7.97 -16.14 7.57 C-14.17 6.3 -12.19 5.06 -10.2 3.82 C-9.57 3.4 -8.93 2.99 -8.27 2.56 C-5.31 0.74 -3.52 -0.29 0 0 Z" />
<path transform="translate(234,444)" fill="#0C227A" d="M0 0 C2.31 0 4.62 0 7 0 C7.33 1.98 7.66 3.96 8 6 C11.63 6 15.26 6 19 6 C19.33 4.02 19.66 2.04 20 0 C22.31 0 24.62 0 27 0 C23.62 9.8 20.14 19.49 16 29 C14.02 29 12.04 29 10 29 C8.57 25.03 7.15 21.06 5.73 17.09 C5.24 15.74 4.76 14.39 4.27 13.04 C3.58 11.1 2.88 9.16 2.19 7.22 C1.56 5.47 1.56 5.47 0.92 3.68 C0 1 0 1 0 0 Z" />
<path transform="translate(345.709716796875,41.206298828125)" fill="#0B217A" d="M0 0 C2.29 0.79 2.29 0.79 3.29 1.79 C3.22 4.58 3.1 7.33 2.92 10.11 C2.87 10.92 2.82 11.73 2.77 12.56 C2.37 18.98 1.88 25.39 1.29 31.79 C-3.58 30.92 -3.58 30.92 -4.71 29.79 C-4.75 27.46 -4.75 25.13 -4.71 22.79 C-8.89 21.14 -11.38 20.57 -15.71 21.79 C-20.49 22.9 -20.49 22.9 -22.71 21.79 C-20.35 16.37 -16 12.63 -11.9 8.48 C-11.09 7.63 -10.28 6.78 -9.45 5.91 C-8.66 5.11 -7.88 4.31 -7.07 3.49 C-5.99 2.39 -5.99 2.39 -4.9 1.27 C-2.71 -0.21 -2.71 -0.21 0 0 Z" />
<path transform="translate(84,92)" fill="#081E78" d="M0 0 C4.16 0.37 7.76 1.53 11.62 3.07 C12.64 3.47 13.65 3.87 14.7 4.29 C15.75 4.71 16.8 5.13 17.88 5.56 C18.94 5.99 20.01 6.41 21.12 6.85 C23.75 7.89 26.37 8.94 29 10 C27.23 13.9 27.23 13.9 25.12 14.81 C22.83 15.02 21.18 14.7 19 14 C16.2 16.79 16.2 16.79 14 20 C14.23 23.65 14.23 23.65 15 27 C14.34 27.99 13.68 28.98 13 30 C10 29 10 29 8.67 26.95 C8.23 26.06 7.79 25.18 7.34 24.27 C6.85 23.3 6.37 22.33 5.88 21.34 C5.38 20.32 4.89 19.3 4.38 18.25 C3.87 17.25 3.37 16.24 2.85 15.21 C-1.59 6.22 -1.59 6.22 -2 2 C-1.34 1.34 -0.68 0.68 0 0 Z" />
<path transform="translate(241,127)" fill="#041A76" d="M0 0 C4.95 0.33 9.9 0.66 15 1 C15 10.9 15 20.8 15 31 C14.34 31 13.68 31 13 31 C13 22.42 13 13.84 13 5 C12.01 5 11.02 5 10 5 C10 13.58 10 22.16 10 31 C6.7 31 3.4 31 0 31 C0 20.77 0 10.54 0 0 Z" />
<path transform="translate(380.006591796875,396.141845703125)" fill="#10257C" d="M0 0 C2.44 1.05 3.47 2.21 5.12 4.28 C5.68 4.98 6.24 5.67 6.82 6.39 C7.39 7.12 7.97 7.85 8.56 8.61 C9.13 9.32 9.71 10.04 10.3 10.78 C13.14 14.34 15.78 17.86 17.99 21.86 C4.62 33.86 4.62 33.86 1.99 33.86 C1.33 32.54 0.67 31.22 -0.01 29.86 C2.96 27.22 5.93 24.58 8.99 21.86 C8.33 20.54 7.67 19.22 6.99 17.86 C3.35 19.12 3.35 19.12 0.43 21.55 C-0.04 21.98 -0.52 22.41 -1.01 22.86 C-3.19 22.55 -3.19 22.55 -5.01 21.86 C-4.83 19.48 -4.31 18.16 -2.6 16.48 C-1.1 15.24 0.44 14.04 1.99 12.86 C1 11.21 0.01 9.56 -1.01 7.86 C-3.78 9.03 -5.87 10.53 -8.13 12.48 C-11.01 14.86 -11.01 14.86 -13.01 14.86 C-13.67 13.54 -14.33 12.22 -15.01 10.86 C-12.94 8.99 -10.85 7.14 -8.76 5.3 C-7.88 4.5 -7.88 4.5 -6.98 3.68 C-2.55 -0.18 -2.55 -0.18 0 0 Z" />
<path transform="translate(56,128)" fill="#0E247C" d="M0 0 C1.65 0.33 3.3 0.66 5 1 C3.77 5.07 2.21 8.38 0 12 C0 12.66 0 13.32 0 14 C1.65 14.33 3.3 14.66 5 15 C6.65 12.36 8.3 9.72 10 7 C11.32 7.66 12.64 8.32 14 9 C12.55 12.79 10.85 16.39 9 20 C10.98 20.66 12.96 21.32 15 22 C17.31 18.37 19.62 14.74 22 11 C23.32 11.66 24.64 12.32 26 13 C24.46 18.84 21.58 24.16 18 29 C15 30 15 30 12.55 28.92 C11.6 28.37 10.65 27.82 9.68 27.25 C8.65 26.66 7.62 26.07 6.56 25.47 C5.49 24.84 4.42 24.21 3.31 23.56 C2.23 22.94 1.15 22.31 0.03 21.67 C-2.65 20.12 -5.33 18.57 -8 17 C-6.63 12.75 -5.06 9.02 -2.88 5.12 C-2.34 4.16 -1.8 3.19 -1.24 2.2 C-0.83 1.47 -0.42 0.75 0 0 Z" />
<path transform="translate(33,222)" fill="#0C227A" d="M0 0 C0 1.98 0 3.96 0 6 C-0.99 6.33 -1.98 6.66 -3 7 C-3.33 8.98 -3.66 10.96 -4 13 C-2.68 13.33 -1.36 13.66 0 14 C0.4 13.23 0.8 12.46 1.21 11.66 C2 10.16 2 10.16 2.81 8.62 C3.33 7.63 3.86 6.63 4.39 5.6 C6 3 6 3 9 1 C12.73 0.59 15.1 0.52 18.44 2.31 C20.97 6.67 20.61 11.09 20 16 C18.7 19.19 17.84 20.45 15 22.31 C13 23 13 23 10 23 C10 21.02 10 19.04 10 17 C10.96 16.69 10.96 16.69 11.94 16.38 C14.33 15.11 14.33 15.11 14.75 12 C15.03 9.17 15.03 9.17 15 7 C12.57 7.12 12.57 7.12 10 8 C8.46 10.18 8.46 10.18 7.44 12.88 C5.83 16.68 4.6 18.86 1 21 C-2 21.5 -2 21.5 -5 21 C-7.91 18.78 -8.84 17 -9.42 13.39 C-9.66 8.54 -9.61 5.86 -6.75 1.81 C-4 0 -4 0 0 0 Z" />
<path transform="translate(436,116)" fill="#0E237B" d="M0 0 C1.67 2.33 3.2 4.63 4.69 7.06 C5.1 7.73 5.52 8.39 5.95 9.07 C6.97 10.71 7.99 12.35 9 14 C7.62 15.5 7.62 15.5 6 17 C5.34 17 4.68 17 4 17 C2.49 15.03 2.49 15.03 0.88 12.5 C0.34 11.66 -0.2 10.83 -0.76 9.97 C-1.17 9.32 -1.58 8.67 -2 8 C-3.98 8.33 -5.96 8.66 -8 9 C-6.02 12.63 -4.04 16.26 -2 20 C-3.98 20.99 -3.98 20.99 -6 22 C-7.98 19.36 -9.96 16.72 -12 14 C-13.65 14.66 -15.3 15.32 -17 16 C-16.54 18.99 -15.67 20.49 -13.94 23.06 C-12 26 -12 26 -12 29 C-13.32 29.33 -14.64 29.66 -16 30 C-19.3 25.05 -22.6 20.1 -26 15 C-21.76 10.76 -17.47 7.87 -12.44 4.69 C-11.57 4.12 -10.71 3.56 -9.82 2.98 C-8.99 2.46 -8.16 1.93 -7.31 1.39 C-6.55 0.9 -5.8 0.42 -5.02 -0.08 C-3 -1 -3 -1 0 0 Z" />
<path transform="translate(421,344)" fill="#0D237B" d="M0 0 C3.6 1.33 6.66 2.93 9.86 5.04 C11.19 5.91 11.19 5.91 12.55 6.8 C13.46 7.4 14.37 8 15.31 8.62 C16.24 9.24 17.18 9.85 18.13 10.48 C20.43 11.98 22.71 13.49 25 15 C23.49 18.93 21.68 22.27 19.38 25.81 C18.74 26.79 18.11 27.76 17.46 28.77 C16.98 29.51 16.5 30.24 16 31 C14.35 30.67 12.7 30.34 11 30 C12.64 25.22 15.27 21.21 18 17 C15.69 16.34 13.38 15.68 11 15 C10.71 15.76 10.42 16.53 10.12 17.31 C9 20 9 20 7 23 C5.68 22.67 4.36 22.34 3 22 C3.67 17.81 5.86 14.6 8 11 C5.69 10.34 3.38 9.68 1 9 C-0.98 12.3 -2.96 15.6 -5 19 C-6.32 18.34 -7.64 17.68 -9 17 C-7.51 12.96 -5.57 9.39 -3.38 5.69 C-2.74 4.62 -2.11 3.55 -1.46 2.45 C-0.98 1.64 -0.5 0.83 0 0 Z" />
<path transform="translate(133,53)" fill="#0D237B" d="M0 0 C0.66 1.32 1.32 2.64 2 4 C-1.3 6.31 -4.6 8.62 -8 11 C-7.34 12.98 -6.68 14.96 -6 17 C-5.37 16.57 -4.75 16.13 -4.1 15.69 C-3.28 15.13 -2.47 14.57 -1.62 14 C-0.81 13.44 -0 12.89 0.84 12.31 C3 11 3 11 5 11 C5.33 12.32 5.66 13.64 6 15 C3.69 16.65 1.38 18.3 -1 20 C-0.22 23.75 -0.22 23.75 1 26 C4.08 24.95 6.1 23.92 8.62 21.81 C9.41 21.21 10.19 20.62 11 20 C11.99 20.33 12.98 20.66 14 21 C14.33 21.99 14.66 22.98 15 24 C13.28 25.3 11.55 26.59 9.81 27.88 C8.85 28.59 7.89 29.31 6.89 30.05 C4.29 31.81 1.95 32.97 -1 34 C-2.73 31.65 -4.46 29.29 -6.19 26.94 C-6.67 26.28 -7.15 25.62 -7.65 24.95 C-8.62 23.62 -9.59 22.3 -10.56 20.98 C-11.52 19.65 -12.5 18.33 -13.48 17.01 C-17 12.22 -17 12.22 -17 10 C-14.57 8.2 -12.15 6.52 -9.62 4.88 C-8.93 4.41 -8.23 3.94 -7.51 3.46 C-2.27 0 -2.27 0 0 0 Z" />
<path transform="translate(243,266)" fill="#0A1B71" d="M0 0 C2.31 0.33 4.62 0.66 7 1 C7.15 22.02 6.76 42.99 6 64 C4.68 63.67 3.36 63.34 2 63 C-0.39 19.99 -0.39 19.99 0 0 Z" />
<path transform="translate(328,430)" fill="#10257C" d="M0 0 C5.36 2.99 8.28 7.12 10 13 C10.67 17.34 10.31 20.41 8.25 24.38 C5.65 27.41 3.77 28.73 -0.18 29.34 C-4.39 29.41 -6.44 29.37 -10.06 27 C-10.7 26.34 -11.34 25.68 -12 25 C-11.67 24.01 -11.34 23.02 -11 22 C-9.35 21.67 -7.7 21.34 -6 21 C-5.67 21.66 -5.34 22.32 -5 23 C-2.36 23 0.28 23 3 23 C3.35 17.41 2.52 13.04 0 8 C-0.66 7.34 -1.32 6.68 -2 6 C-5.6 6.32 -5.6 6.32 -9 7 C-9.66 8.98 -10.32 10.96 -11 13 C-12.65 13.33 -14.3 13.66 -16 14 C-16.32 9.96 -16.42 7.68 -14.25 4.19 C-10.05 0.1 -5.89 -1.24 0 0 Z" />
<path transform="translate(48,165)" fill="#10257C" d="M0 0 C0 1.65 0 3.3 0 5 C-3.47 6.49 -3.47 6.49 -7 8 C-7 10.31 -7 12.62 -7 15 C-1.91 17.96 1.94 19.73 8 19 C10.35 17.1 10.35 17.1 10.12 13.88 C10.08 12.93 10.04 11.98 10 11 C9.34 10.67 8.68 10.34 8 10 C8.33 8.02 8.66 6.04 9 4 C11.54 4.35 12.82 4.84 14.75 6.56 C16.53 10.04 16.52 13.22 16 17 C14.67 20.92 13.68 22.54 10.25 24.88 C4.29 26.94 0.37 26.4 -5.25 23.75 C-8.76 21.98 -11.01 20.43 -13 17 C-13.81 12.93 -13.95 8.76 -11.95 5.05 C-8.14 0.4 -5.8 -0.13 0 0 Z" />
<path transform="translate(469.11328125,207.7578125)" fill="#0F247C" d="M0 0 C2.94 1.85 4.94 3.91 5.89 7.24 C6.34 12.25 6 15.24 2.89 19.24 C-0.53 22.24 -0.53 22.24 -3.11 22.24 C-3.3 18.87 -3.3 18.87 -3.11 15.24 C-2.12 14.58 -1.13 13.92 -0.11 13.24 C0.3 10.74 0.3 10.74 -0.11 8.24 C-2.79 5.56 -4.25 5.94 -7.99 5.93 C-9.56 5.9 -9.56 5.9 -11.17 5.88 C-14.4 6.28 -15.74 7.07 -18.11 9.24 C-17.78 11.55 -17.45 13.86 -17.11 16.24 C-15.79 16.57 -14.47 16.9 -13.11 17.24 C-12.78 19.22 -12.45 21.2 -12.11 23.24 C-18.48 22.87 -18.48 22.87 -21.49 19.87 C-24.14 15.58 -24.62 12.24 -24.11 7.24 C-19.17 -1.45 -9.11 -3.27 0 0 Z" />
<path transform="translate(232,20)" fill="#152A7F" d="M0 0 C7.92 0 15.84 0 24 0 C24 1.65 24 3.3 24 5 C21.03 5 18.06 5 15 5 C15.33 12.92 15.66 20.84 16 29 C13.69 29 11.38 29 9 29 C9 21.08 9 13.16 9 5 C6.03 5 3.06 5 0 5 C0 3.35 0 1.7 0 0 Z" />
<path transform="translate(72,105)" fill="#0D237B" d="M0 0 C1.65 0.33 3.3 0.66 5 1 C4.69 1.74 4.38 2.48 4.06 3.25 C3.19 5.51 2.56 7.65 2 10 C2.48 10.34 2.97 10.69 3.47 11.04 C5.66 12.6 7.83 14.17 10 15.75 C10.76 16.29 11.53 16.83 12.31 17.38 C13.4 18.18 13.4 18.18 14.5 18.98 C15.17 19.47 15.84 19.95 16.53 20.44 C18 22 18 22 18 26 C17.67 26.66 17.34 27.32 17 28 C11.66 26.27 7.95 22.93 3.73 19.37 C0.6 16.71 0.6 16.71 -3.29 16.07 C-5.55 17.3 -6.62 18.86 -8 21 C-9.32 20.34 -10.64 19.68 -12 19 C-10.43 14.27 -7.79 10.66 -4.88 6.69 C-4.17 5.72 -4.17 5.72 -3.46 4.73 C-2.31 3.15 -1.16 1.58 0 0 Z" />
<path transform="translate(110,68)" fill="#0C227A" d="M0 0 C1.32 0.66 2.64 1.32 4 2 C2.35 3.98 0.7 5.96 -1 8 C1.06 12.98 5.01 16.41 8.69 20.25 C10.86 22.83 11.98 24.82 13 28 C11.35 28.66 9.7 29.32 8 30 C6.41 28.27 4.83 26.54 3.25 24.81 C2.37 23.85 1.49 22.89 0.58 21.89 C-1.71 19.33 -3.88 16.71 -6 14 C-6.87 14.43 -6.87 14.43 -7.75 14.88 C-9.83 15.92 -11.92 16.96 -14 18 C-14.66 17.34 -15.32 16.68 -16 16 C-16 15.01 -16 14.02 -16 13 C-13.77 10.88 -13.77 10.88 -10.81 8.56 C-9.85 7.8 -8.89 7.04 -7.89 6.25 C-6.46 5.14 -6.46 5.14 -5 4 C-3.33 2.67 -1.66 1.34 0 0 Z" />
<path transform="translate(280,442)" fill="#0F257C" d="M0 0 C2.36 9.59 2.62 19.18 3 29 C1.02 29 -0.96 29 -3 29 C-3.34 26.31 -3.67 23.63 -4 20.94 C-4.1 20.19 -4.19 19.43 -4.29 18.66 C-4.85 14.07 -5.1 9.63 -5 5 C-5.66 5.17 -6.32 5.33 -7 5.5 C-10.73 6.12 -14.22 6.06 -18 6 C-18 4.35 -18 2.7 -18 1 C-11.98 0.39 -6.05 -0.13 0 0 Z" />
<path transform="translate(363,51)" fill="#0D227B" d="M0 0 C2.48 0.99 2.48 0.99 5 2 C3.51 7.44 0.9 11.69 -2.12 16.38 C-2.59 17.11 -3.06 17.85 -3.54 18.61 C-4.69 20.41 -5.84 22.2 -7 24 C-6.23 24.3 -5.47 24.59 -4.68 24.9 C-1.93 26.03 0.49 27.42 3 29 C2.67 30.32 2.34 31.64 2 33 C-2.35 32.44 -5.18 30.85 -8.81 28.44 C-10.28 27.48 -10.28 27.48 -11.77 26.5 C-12.51 26 -13.24 25.51 -14 25 C-13.43 21.05 -12.26 18.45 -10.06 15.14 C-9.18 13.81 -9.18 13.81 -8.29 12.45 C-7.68 11.54 -7.07 10.63 -6.44 9.69 C-5.82 8.76 -5.21 7.82 -4.57 6.87 C-3.06 4.57 -1.53 2.28 0 0 Z" />
<path transform="translate(446,263)" fill="#0E237B" d="M0 0 C9.76 0.6 19.32 1.6 29 3 C29 4.98 29 6.96 29 9 C21.08 8.67 13.16 8.34 5 8 C4.67 11.3 4.34 14.6 4 18 C2.35 18 0.7 18 -1 18 C-0.5 9.09 -0.5 9.09 0 0 Z" />
<path transform="translate(451,155)" fill="#F3F4F8" d="M0 0 C2 1.06 2 1.06 3 3 C3.31 6.38 3.31 6.38 2 10 C-2.58 13.37 -7.26 15.5 -13 15 C-14.81 13.88 -14.81 13.88 -16 12 C-16.5 9.06 -16.5 9.06 -16 6 C-13.75 3.75 -13.75 3.75 -11 2 C-10.38 1.59 -9.76 1.18 -9.12 0.75 C-5.97 -0.36 -3.32 -0.3 0 0 Z" />
<path transform="translate(118,399)" fill="#F4F5F9" d="M0 0 C1.88 1.06 1.88 1.06 3 3 C3.11 8.51 1.34 11.72 -2.32 15.61 C-4.88 17.73 -6.7 18.22 -10 18 C-12.44 16.44 -12.44 16.44 -14 14 C-14.23 8.83 -11.75 6.07 -8.47 2.42 C-5.78 -0.17 -3.65 -0.36 0 0 Z" />
<path transform="translate(42.70703125,199.51171875)" fill="#F3F4F8" d="M0 0 C3.42 0.73 6.78 1.97 9.29 4.49 C9.58 7.2 9.74 8.85 8.14 11.12 C4.25 14 -1.12 13.14 -5.71 12.49 C-9.02 10.36 -9.02 10.36 -10.71 7.49 C-10.71 4.3 -10.71 4.3 -9.71 1.49 C-5.94 -1.03 -4.31 -0.58 0 0 Z" />
<path transform="translate(283,27)" fill="#F5F5F9" d="M0 0 C2.56 0.35 4.58 0.75 6.81 2.06 C9.09 5.79 8.44 9.95 7.57 14.04 C6.94 15.94 6.94 15.94 5 19 C1.5 20.12 1.5 20.12 -2 20 C-4.38 18.34 -4.93 17.38 -5.47 14.51 C-5.56 5.95 -5.56 5.95 -2.5 2.31 C-1.68 1.55 -0.85 0.79 0 0 Z" />
<path transform="translate(460.9375,240.6875)" fill="#F6F6FA" d="M0 0 C1.56 0.01 1.56 0.01 3.15 0.01 C6.01 0.31 7.71 0.68 10.06 2.31 C10.94 5.25 10.94 5.25 11.06 8.31 C9.06 11.31 9.06 11.31 6.06 12.31 C4.25 12.46 2.44 12.53 0.62 12.56 C-0.32 12.59 -1.27 12.61 -2.25 12.64 C-5.38 12.26 -6.71 11.52 -8.94 9.31 C-9.39 6.21 -9.6 4.27 -7.78 1.64 C-5.16 -0.25 -3.2 -0.05 0 0 Z" />
<path transform="translate(458,291)" fill="#F5F6FA" d="M0 0 C5.32 2.32 5.32 2.32 7 4 C7.46 9.33 7.46 9.33 5.82 11.7 C2.62 13.98 -0.59 13.04 -4.32 12.57 C-7.87 11.82 -9.75 10.87 -12 8 C-12.56 4.94 -12.56 4.94 -12 2 C-8.81 -2.12 -4.58 -1.18 0 0 Z" />
<path transform="translate(261,20)" fill="#142A7F" d="M0 0 C2.31 0 4.62 0 7 0 C6.86 3.33 6.71 6.67 6.56 10 C6.5 11.4 6.5 11.4 6.44 12.83 C6.2 18.27 5.76 23.61 5 29 C3.02 29 1.04 29 -1 29 C-0.67 19.43 -0.34 9.86 0 0 Z" />
<path transform="translate(338.966064453125,423.184814453125)" fill="#10267D" d="M0 0 C2.71 1.09 3.24 2.29 4.58 4.86 C5.01 5.69 5.44 6.51 5.89 7.36 C6.33 8.23 6.77 9.11 7.22 10 C7.67 10.85 8.12 11.71 8.59 12.58 C10.86 16.98 12.62 20.8 13.03 25.82 C11.38 26.15 9.73 26.48 8.03 26.82 C6.41 23.73 4.78 20.65 3.16 17.57 C2.47 16.26 2.47 16.26 1.76 14.92 C1.32 14.08 0.87 13.23 0.42 12.36 C0.01 11.59 -0.4 10.81 -0.82 10.01 C-1.2 9.29 -1.58 8.56 -1.97 7.82 C-2.53 6.78 -2.53 6.78 -3.11 5.72 C-3.97 3.82 -3.97 3.82 -3.97 0.82 C-1.97 -0.18 -1.97 -0.18 0 0 Z" />
<path transform="translate(246,345)" fill="#223687" d="M0 0 C2.47 0.99 2.47 0.99 5 2 C5.41 20.38 4.16 38.67 3 57 C2.67 57 2.34 57 2 57 C1.21 48.44 0.73 39.9 0.44 31.31 C0.4 30.1 0.35 28.88 0.31 27.62 C0.01 18.41 -0.12 9.22 0 0 Z" />
<path transform="translate(211.625,444.875)" fill="#F1F2F7" d="M0 0 C1.67 0.06 1.67 0.06 3.38 0.12 C3.07 2.73 2.75 5.33 2.44 7.94 C2.31 9.04 2.31 9.04 2.17 10.17 C1.79 13.29 1.37 16.14 0.38 19.12 C-3 18.81 -3 18.81 -6.62 18.12 C-9.12 14.38 -9 12.56 -8.62 8.12 C-5.33 0.18 -5.33 0.18 0 0 Z" />
<path transform="translate(361,417)" fill="#F2F3F8" d="M0 0 C1.74 2.24 3.25 4.41 4.75 6.81 C5.17 7.46 5.6 8.1 6.04 8.76 C7.11 10.45 8.07 12.22 9 14 C8.67 14.99 8.34 15.98 8 17 C5.11 18.44 3.2 18.38 0 18 C-3.09 15.47 -5.85 12.89 -7 9 C-6.81 5.38 -6.81 5.38 -6 2 C-3 0 -3 0 0 0 Z" />
<path transform="translate(62,306)" fill="#10257C" d="M0 0 C0.33 1.65 0.66 3.3 1 5 C-1 5.67 -3.01 6.34 -5.02 7 C-7.28 7.76 -9.54 8.53 -11.8 9.31 C-13.14 9.77 -14.47 10.23 -15.81 10.69 C-16.46 10.91 -17.1 11.14 -17.77 11.37 C-21.08 12.5 -23.45 13 -27 13 C-27.33 11.35 -27.66 9.7 -28 8 C-8.15 -0.42 -8.15 -0.42 0 0 Z" />
<path transform="translate(426,335)" fill="#0D237B" d="M0 0 C5.61 0.93 10.19 3.3 15.25 5.81 C16.17 6.25 17.1 6.69 18.05 7.14 C18.92 7.58 19.8 8.01 20.7 8.46 C21.5 8.85 22.3 9.24 23.13 9.64 C25 11 25 11 25.89 13.03 C25.93 13.68 25.96 14.33 26 15 C25.34 15.66 24.68 16.32 24 17 C20.2 16.64 17.26 15.28 13.92 13.5 C12.99 13 12.06 12.51 11.1 12 C10.14 11.49 9.18 10.97 8.19 10.44 C6.72 9.66 6.72 9.66 5.22 8.86 C2.81 7.58 0.4 6.29 -2 5 C-1.34 3.35 -0.68 1.7 0 0 Z" />
<path transform="translate(44,152)" fill="#0D237B" d="M0 0 C5.63 0.97 10.53 3.19 15.75 5.44 C17.21 6.05 17.21 6.05 18.69 6.67 C19.61 7.07 20.53 7.46 21.48 7.87 C22.33 8.23 23.17 8.59 24.04 8.96 C26 10 26 10 27 12 C26.06 14.12 26.06 14.12 25 16 C21.26 15.38 18.14 14.3 14.7 12.71 C13.72 12.27 12.75 11.82 11.74 11.36 C10.73 10.89 9.73 10.42 8.69 9.94 C7.15 9.23 7.15 9.23 5.58 8.51 C3.05 7.34 0.52 6.17 -2 5 C-1.34 3.35 -0.68 1.7 0 0 Z" />
<path transform="translate(191,435)" fill="#0E237B" d="M0 0 C1.68 0.29 3.34 0.62 5 1 C4.32 7.19 2.7 12.97 0.94 18.94 C0.52 20.39 0.52 20.39 0.08 21.88 C-0.61 24.25 -1.3 26.63 -2 29 C-3.98 28.67 -5.96 28.34 -8 28 C-7.34 21.97 -5.77 16.41 -4 10.62 C-3.73 9.71 -3.45 8.8 -3.17 7.86 C-1.13 1.13 -1.13 1.13 0 0 Z" />
<path transform="translate(415,100)" fill="#F3F4F8" d="M0 0 C3 1 3 1 4 3 C4.56 6.19 4.56 6.19 4 10 C1.74 13.01 -0.72 15.16 -4 17 C-7.88 17.06 -7.88 17.06 -11 16 C-11.66 15.34 -12.32 14.68 -13 14 C-12.99 10.71 -11.73 9.73 -9.38 7.39 C-8.31 6.48 -7.22 5.58 -6.12 4.69 C-5.58 4.22 -5.04 3.75 -4.48 3.27 C-2.88 1.95 -2.88 1.95 0 0 Z" />
<path transform="translate(253,178)" fill="#223382" d="M0 0 C0.99 0 1.98 0 3 0 C3.12 22.03 2.97 43.99 2 66 C1.34 66 0.68 66 0 66 C0 44.22 0 22.44 0 0 Z" />
<path transform="translate(285,174)" fill="#E0E3ED" d="M0 0 C1.82 1.6 3.4 3.18 5 5 C4.67 5.66 4.34 6.32 4 7 C3.54 6.62 3.08 6.25 2.6 5.86 C-13.23 -6.56 -31.34 -9.82 -50.96 -7.54 C-53.99 -7.09 -56.99 -6.59 -60 -6 C-46.43 -19.57 -12.37 -9.61 0 0 Z" />
<path transform="translate(251,268)" fill="#25276D" d="M0 0 C0.99 0 1.98 0 3 0 C3.17 13.88 2.63 27.7 2 41.56 C1.9 43.75 1.81 45.94 1.71 48.12 C1.48 53.42 1.24 58.71 1 64 C0.34 64 -0.32 64 -1 64 C-0.67 42.88 -0.34 21.76 0 0 Z" />
<path transform="translate(238,330)" fill="#1A2F82" d="M0 0 C0.68 0.31 1.36 0.62 2.06 0.94 C4.98 2.14 4.98 2.14 8.19 2.25 C16 3.79 23.6 9.17 29 15 C30.5 17.75 30.5 17.75 31 20 C30.67 20.66 30.34 21.32 30 22 C29.96 23.67 29.96 25.33 30 27 C28 25 28 25 26.88 21.75 C23.48 13.77 13.47 9.72 6.37 5.43 C1.11 2.21 1.11 2.21 0 0 Z" />
<path transform="translate(241,245)" fill="#DA7148" d="M0 0 C6.64 1.31 12.68 3.2 18.94 5.75 C19.81 6.11 20.69 6.46 21.59 6.83 C30.34 10.45 38.56 13.93 44 22 C44.38 23.32 44.72 24.65 45 26 C44.07 25.15 43.14 24.31 42.19 23.44 C30.01 13.1 14.86 6.55 0 1 C0 0.67 0 0.34 0 0 Z" />
<path transform="translate(247,84)" fill="#E9EBF3" d="M0 0 C6.64 -0.4 10.26 1.15 15.69 4.81 C19.56 8.48 20.93 11.55 21.19 16.88 C21.09 18.42 21.09 18.42 21 20 C20.73 19.44 20.46 18.89 20.19 18.31 C19.6 17.17 19.6 17.17 19 16 C18.6 15.19 18.2 14.39 17.79 13.55 C15.58 10.41 13.59 9.43 10.12 7.81 C9.1 7.32 8.07 6.84 7.01 6.33 C4.36 5.16 1.7 4.05 -1 3 C-0.67 2.01 -0.34 1.02 0 0 Z" />
<path transform="translate(251,132)" fill="#DBDFEB" d="M0 0 C0.99 0 1.98 0 3 0 C3.33 8.91 3.66 17.82 4 27 C-0.62 27.33 -5.24 27.66 -10 28 C-10 27.34 -10 26.68 -10 26 C-6.7 26 -3.4 26 0 26 C0 17.42 0 8.84 0 0 Z" />
<path transform="translate(222,211)" fill="#243887" d="M0 0 C0 0.99 0 1.98 0 3 C-2.2 4.51 -2.2 4.51 -5.12 6.12 C-10.85 9.59 -13.79 13.23 -17 19 C-17.66 19.99 -18.32 20.98 -19 22 C-18.56 16.5 -17.15 13.48 -14 9 C-14 8.01 -14 7.02 -14 6 C-11.91 3.33 -9.5 2.1 -6.44 0.75 C-5.65 0.39 -4.87 0.04 -4.06 -0.33 C-2 -1 -2 -1 0 0 Z" />
<path transform="translate(259,160)" fill="#273B89" d="M0 0 C0 0.66 0 1.32 0 2 C-2.96 2.83 -5.7 3.18 -8.77 3.32 C-9.66 3.36 -10.54 3.4 -11.46 3.44 C-12.84 3.5 -12.84 3.5 -14.25 3.56 C-15.19 3.61 -16.12 3.65 -17.09 3.69 C-19.39 3.8 -21.7 3.9 -24 4 C-24 3.34 -24 2.68 -24 2 C-24.66 1.67 -25.32 1.34 -26 1 C-19.37 -2.32 -6.93 -2.31 0 0 Z" />
<path transform="translate(130,424)" fill="#E8EAF2" d="M0 0 C3.44 0.35 5.07 1.05 8 3 C7.46 6.8 5.8 8.47 3 11 C1.02 9.68 -0.96 8.36 -3 7 C-2.25 2.25 -2.25 2.25 0 0 Z" />
<path transform="translate(229,296)" fill="#5F3E60" d="M0 0 C0.66 0.33 1.32 0.66 2 1 C2 1.99 2 2.98 2 4 C1.01 4.33 0.02 4.66 -1 5 C-1 5.66 -1 6.32 -1 7 C-1.66 7 -2.32 7 -3 7 C-5.11 11.86 -6.52 16.92 -8 22 C-8.33 22 -8.66 22 -9 22 C-9.08 17.84 -8.98 14.05 -8 10 C-8.66 9.67 -9.32 9.34 -10 9 C-8.9 7.87 -7.79 6.75 -6.69 5.62 C-6.07 5 -5.46 4.37 -4.82 3.73 C-3 2 -3 2 0 0 Z" />
<path transform="translate(238,330)" fill="#BFC4DB" d="M0 0 C10.04 3.61 23.75 10.33 29 20 C29.75 22.48 29.95 24.38 30 27 C28 25 28 25 26.88 21.75 C23.48 13.77 13.47 9.72 6.37 5.43 C1.11 2.21 1.11 2.21 0 0 Z" />
<path transform="translate(392,61)" fill="#203485" d="M0 0 C1.94 0.75 1.94 0.75 4 2 C4.75 4.12 4.75 4.12 5 6 C6.65 6.33 8.3 6.66 10 7 C10 8.32 10 9.64 10 11 C3.7 10.41 3.7 10.41 1.06 8.88 C-0.58 5.97 -0.18 3.26 0 0 Z" />
<path transform="translate(246,345)" fill="#0B217A" d="M0 0 C0.99 0.5 0.99 0.5 2 1 C2.59 3.65 2.74 6.29 3 9 C3.33 9 3.66 9 4 9 C4.03 10.62 4.05 12.25 4.06 13.88 C4.07 14.78 4.09 15.68 4.1 16.62 C4 19 4 19 3 21 C2.34 21 1.68 21 1 21 C0.21 18.22 -0.12 15.77 -0.1 12.89 C-0.09 12.14 -0.09 11.38 -0.09 10.61 C-0.08 9.83 -0.07 9.05 -0.06 8.25 C-0.06 7.46 -0.05 6.66 -0.05 5.85 C-0.04 3.9 -0.02 1.95 0 0 Z" />
<path transform="translate(51,360)" fill="#203485" d="M0 0 C1.49 1.3 1.49 1.3 3 3 C3.19 6.19 3.19 6.19 3 9 C3.96 9.15 3.96 9.15 4.94 9.31 C5.62 9.54 6.3 9.77 7 10 C7.33 10.99 7.66 11.98 8 13 C2.54 12.39 2.54 12.39 0.28 10.75 C-1 9 -1 9 -1.07 6.74 C-0.95 5.94 -0.82 5.14 -0.69 4.31 C-0.57 3.5 -0.45 2.7 -0.32 1.86 C-0.22 1.25 -0.11 0.63 0 0 Z" />
<path transform="translate(247,474.8125)" fill="#0C227A" d="M0 0 C1.05 -0.02 1.05 -0.02 2.12 -0.04 C4 0.19 4 0.19 6 2.19 C6 3.18 6 4.17 6 5.19 C4.78 5 3.57 4.82 2.31 4.62 C-1.03 4.2 -3.72 4.26 -7 5.19 C-6.62 3.25 -6.62 3.25 -6 1.19 C-3.77 0.07 -2.47 0.02 0 0 Z" />
<path transform="translate(273,167)" fill="#DC7348" d="M0 0 C6.78 2.96 11.66 6.91 17 12 C16.67 12.66 16.34 13.32 16 14 C15.52 13.61 15.03 13.23 14.53 12.83 C9.89 9.22 5.33 6.48 0 4 C0 2.68 0 1.36 0 0 Z" />
<path transform="translate(45,288)" fill="#D9DCEA" d="M0 0 C2 2 2 2 2.12 4.62 C2.08 5.41 2.04 6.19 2 7 C-4.05 7.2 -4.05 7.2 -6 7 C-6.66 6.34 -7.32 5.68 -8 5 C-5.36 3.35 -2.72 1.7 0 0 Z" />
<path transform="translate(218,216)" fill="#C48B80" d="M0 0 C-0.52 0.34 -1.04 0.68 -1.57 1.03 C-6.88 4.72 -9.91 8.38 -13 14 C-13.66 14.99 -14.32 15.98 -15 17 C-14.5 10.78 -13.03 6.69 -8.29 2.48 C-3.52 -1.17 -3.52 -1.17 0 0 Z" />
<path transform="translate(295,449)" fill="#D9DDEA" d="M0 0 C1.98 0 3.96 0 6 0 C6 3.3 6 6.6 6 10 C5.34 10 4.68 10 4 10 C0 3.38 0 3.38 0 0 Z" />
<path transform="translate(89,99)" fill="#E0E3EE" d="M0 0 C3.76 0.75 5.83 1.24 9 3 C8.69 4.88 8.69 4.88 8 7 C7.01 7.66 6.02 8.32 5 9 C3.35 6.03 1.7 3.06 0 0 Z" />
<path transform="translate(218,31)" fill="#E2E4EF" d="M0 0 C0.66 0 1.32 0 2 0 C3.32 2.97 4.64 5.94 6 9 C3.69 9.33 1.38 9.66 -1 10 C-0.67 6.7 -0.34 3.4 0 0 Z" />
<path transform="translate(70,354)" fill="#E8EAF2" d="M0 0 C0.99 0.33 1.98 0.66 3 1 C3.69 3.06 3.69 3.06 4 5 C-1.62 7 -1.62 7 -5 7 C-3.71 4.12 -2.34 2.13 0 0 Z" />
<path transform="translate(388,78)" fill="#E9EBF3" d="M0 0 C-0.99 2.97 -1.98 5.94 -3 9 C-4.32 8.34 -5.64 7.68 -7 7 C-7 5.68 -7 4.36 -7 3 C-2.93 0 -2.93 0 0 0 Z" />
<path transform="translate(230,111)" fill="#DEE1ED" d="M0 0 C1.65 0.93 3.3 1.87 4.94 2.81 C5.85 3.33 6.77 3.86 7.71 4.39 C10 6 10 6 11 9 C8.02 8.86 5.78 8.69 3.49 6.67 C0 2.56 0 2.56 0 0 Z" />
<path transform="translate(151,52)" fill="#EDEFF5" d="M0 0 C5.47 4.49 5.47 4.49 7 6 C7 6.66 7 7.32 7 8 C5.02 8.66 3.04 9.32 1 10 C0.67 6.7 0.34 3.4 0 0 Z" />
<path transform="translate(343,50)" fill="#EAECF4" d="M0 0 C0 2.97 0 5.94 0 9 C-4.75 8.25 -4.75 8.25 -7 6 C-6.02 5 -5.04 4 -4.06 3 C-3.52 2.44 -2.97 1.89 -2.41 1.31 C-1 0 -1 0 0 0 Z" />
<path transform="translate(229,110)" fill="#1C3083" d="M0 0 C0.66 0.99 1.32 1.98 2 3 C3.92 5.46 5.8 7.8 8 10 C7.01 10.66 6.02 11.32 5 12 C2.8 9.79 0.74 7.59 -1 5 C-0.88 2.06 -0.88 2.06 0 0 Z" />
<path transform="translate(244,455)" fill="#F3F4F8" d="M0 0 C1.98 0 3.96 0 6 0 C5.34 2.97 4.68 5.94 4 9 C2 8 2 8 1.37 6.15 C1.2 5.42 1.04 4.69 0.88 3.94 C0.71 3.2 0.54 2.47 0.37 1.71 C0.25 1.15 0.12 0.58 0 0 Z" />
<path transform="translate(244,382)" fill="#31448F" d="M0 0 C0.33 0.99 0.66 1.98 1 3 C-0.23 4.4 -1.47 5.79 -2.72 7.17 C-4.99 10.41 -5.43 14.15 -6 18 C-6.33 18 -6.66 18 -7 18 C-7.5 11.72 -7.2 8.04 -3 3 C-1.25 1.12 -1.25 1.12 0 0 Z" />
<path transform="translate(246,343)" fill="#D0D4E5" d="M0 0 C2.64 0.99 5.28 1.98 8 3 C7.01 3.5 7.01 3.5 6 4 C6 6.64 6 9.28 6 12 C5.67 12 5.34 12 5 12 C5 9.36 5 6.72 5 4 C3.68 3.67 2.36 3.34 1 3 C0.67 5.31 0.34 7.62 0 10 C-0.33 10 -0.66 10 -1 10 C-1.03 8.52 -1.05 7.04 -1.06 5.56 C-1.07 4.74 -1.09 3.92 -1.1 3.07 C-1 1 -1 1 0 0 Z" />
<path transform="translate(210,182)" fill="#8F99C2" d="M0 0 C0 3 0 6 0 9 C-1.65 9.66 -3.3 10.32 -5 11 C-4.55 6.13 -3.29 3.61 0 0 Z" />
<path transform="translate(233,242)" fill="#27276C" d="M0 0 C1.77 -0.05 3.54 -0.09 5.31 -0.12 C6.3 -0.15 7.28 -0.17 8.3 -0.2 C11 0 11 0 14 2 C13.67 2.66 13.34 3.32 13 4 C11.21 3.72 9.42 3.42 7.62 3.12 C6.63 2.96 5.63 2.8 4.6 2.63 C2 2 2 2 0 0 Z" />
<path transform="translate(243,51)" fill="#10267D" d="M0 0 C1.32 0 2.64 0 4 0 C3.67 2.31 3.34 4.62 3 7 C1.68 7 0.36 7 -1 7 C-0.67 4.69 -0.34 2.38 0 0 Z" />
<path transform="translate(90,371)" fill="#D9DDEA" d="M0 0 C0.66 0.33 1.32 0.66 2 1 C-2.19 6.31 -4.35 8.28 -11 10 C-7.51 6.4 -3.89 3.17 0 0 Z" />
<path transform="translate(257,126)" fill="#D6D9E8" d="M0 0 C-3.53 2.35 -5.03 2.21 -9.19 2.12 C-10.27 2.11 -11.36 2.09 -12.48 2.07 C-13.73 2.04 -13.73 2.04 -15 2 C-10.59 -0.94 -5.07 -1.9 0 0 Z" />
<path transform="translate(54,363)" fill="#D1D5E5" d="M0 0 C3 1 3 1 4 3 C6.53 3.66 6.53 3.66 9 4 C9 4.33 9 4.66 9 5 C7.35 5 5.7 5 4 5 C3.67 5.66 3.34 6.32 3 7 C2.01 6.67 1.02 6.34 0 6 C0 4.02 0 2.04 0 0 Z" />
<path transform="translate(439,312)" fill="#2C3F8C" d="M0 0 C0.66 0.33 1.32 0.66 2 1 C-0.31 3.31 -2.62 5.62 -5 8 C-5.33 7.34 -5.66 6.68 -6 6 C-4 4 -2 2 0 0 Z" />
</svg>