<?xml version="1.0" encoding="utf-8"?>
<!-- Generator: Adobe Illustrator 19.2.1, SVG Export Plug-In . SVG Version: 6.00 Build 0)  -->
<svg version="1.1" id="layer" xmlns="http://www.w3.org/2000/svg" xmlns:xlink="http://www.w3.org/1999/xlink" x="0px" y="0px"
	 viewBox="0 0 652 652" style="enable-background:new 0 0 652 652;" xml:space="preserve">
<style type="text/css">
	.st0{fill:#CECFD0;}
	.st1{fill:#E2001A;}
	.st2{fill:#7B7C7E;}
	.st3{fill:#FFFFFF;}
</style>
<polygon class="st0" points="130,510.2 130,571.6 129.9,571.7 528.6,571.7 528.7,571.6 528.7,510.2 528.6,510.1 129.9,510.1 "/>
<g>
	<path class="st0" d="M541.5,137.9l0.2,0v-0.4c0-35.6-28.8-64.4-64.4-64.4h-0.5l0,0.1v64.8H541.5z"/>
	<path class="st0" d="M541.5,208.4l0.2,0V208c0-35.6-28.8-64.4-64.4-64.4h-0.5l0,0.1v64.8H541.5z"/>
	<path class="st0" d="M541.5,214.4l0.2,0v0.4c0,35.6-28.8,64.4-64.4,64.4h-0.5l0-0.1v-64.8H541.5z"/>
	<path class="st0" d="M327.6,137.9l0.2,0v-0.4c0-35.6-28.8-64.4-64.4-64.4h-0.5l0,0.1v64.8H327.6z"/>
	<path class="st0" d="M327.6,214.4l0.2,0v0.4c0,35.6-28.8,64.4-64.4,64.4h-0.5l0-0.1v-64.8H327.6z"/>
	<path class="st0" d="M232.4,143.6c14.2,3.9,24.6,16.9,24.6,32.4s-10.5,28.6-24.7,32.5l-40.1-0.1v-64.8H232.4z"/>
	<polygon class="st0" points="262.9,356.6 262.9,421.4 262.7,421.4 327.4,421.4 327.5,421.4 327.5,356.6 327.4,356.5 262.7,356.5 	
		"/>
	<polygon class="st0" points="121.9,356.6 121.9,421.4 121.8,421.4 186.4,421.4 186.5,421.4 186.5,356.6 186.4,356.5 121.8,356.5 	
		"/>
	<path class="st0" d="M327.6,350.9l0.2,0v-0.4c0-35.6-28.8-64.4-64.4-64.4h-0.5l0,0.1v64.8H327.6z"/>
	<path class="st0" d="M327.6,427.3l0.2,0v0.4c0,35.6-28.8,64.4-64.4,64.4h-0.5l0-0.1v-64.8H327.6z"/>
	<polygon class="st1" points="383.9,71.7 383.9,136.5 383.8,136.5 448.5,136.5 448.5,136.5 448.5,71.7 448.5,71.7 383.8,71.7 	"/>
	<polygon class="st1" points="383.9,142.2 383.9,207 383.8,207 448.5,207 448.5,207 448.5,142.2 448.5,142.2 383.8,142.2 	"/>
	<polygon class="st1" points="383.9,213 383.9,277.7 383.8,277.8 448.5,277.8 448.5,277.7 448.5,213 448.5,212.9 383.8,212.9 	"/>
	<path class="st1" d="M313.3,136.5l-0.2,0v-0.4c0-35.6,28.8-64.4,64.4-64.4h0.5l0,0.1v64.8H313.3z"/>
	<path class="st1" d="M313.3,212.9l-0.2,0v0.4c0,35.6,28.8,64.4,64.4,64.4h0.5l0-0.1v-64.8H313.3z"/>
	<path class="st1" d="M313.3,142.5l-0.2,0v0.4c0,35.6,28.8,64.4,64.4,64.4h0.5l0-0.1v-64.8H313.3z"/>
	<path class="st1" d="M519.1,136.5l0.2,0v-0.4c0-35.6-28.8-64.4-64.4-64.4h-0.5l0,0.1v64.8H519.1z"/>
	<path class="st1" d="M519.1,207l0.2,0v-0.4c0-35.6-28.8-64.4-64.4-64.4h-0.5l0,0.1V207H519.1z"/>
	<path class="st1" d="M519.1,212.9l0.2,0v0.4c0,35.6-28.8,64.4-64.4,64.4h-0.5l0-0.1v-64.8H519.1z"/>
	<polygon class="st1" points="169.9,71.7 169.9,136.5 169.8,136.5 234.5,136.5 234.5,136.5 234.5,71.7 234.5,71.7 169.8,71.7 	"/>
	<polygon class="st1" points="99.4,142.2 99.4,207 99.3,207 164,207 164,207 164,142.2 164,142.2 99.3,142.2 	"/>
	<polygon class="st1" points="169.9,213 169.9,277.7 169.8,277.8 234.5,277.8 234.5,277.7 234.5,213 234.5,212.9 169.8,212.9 	"/>
	<path class="st1" d="M99.3,136.5l-0.2,0v-0.4c0-35.6,28.8-64.4,64.4-64.4h0.5l0,0.1v64.8H99.3z"/>
	<path class="st1" d="M99.3,212.9l-0.2,0v0.4c0,35.6,28.8,64.4,64.4,64.4h0.5l0-0.1v-64.8H99.3z"/>
	<path class="st1" d="M305.1,136.5l0.2,0v-0.4c0-35.6-28.8-64.4-64.4-64.4h-0.5l0,0.1v64.8H305.1z"/>
	<path class="st1" d="M305.1,212.9l0.2,0v0.4c0,35.6-28.8,64.4-64.4,64.4h-0.5l0-0.1v-64.8H305.1z"/>
	<path class="st1" d="M210,142.2c14.2,3.9,24.6,16.9,24.6,32.4s-10.5,28.6-24.7,32.5l-40.1,0v-64.8H210z"/>
	<polygon class="st1" points="169.9,284.7 169.9,349.5 169.8,349.5 234.5,349.5 234.5,349.5 234.5,284.7 234.5,284.6 169.8,284.6 	
		"/>
	<polygon class="st1" points="240.4,355.2 240.4,420 240.3,420 305,420 305,420 305,355.2 305,355.1 240.3,355.1 	"/>
	<polygon class="st1" points="99.4,355.2 99.4,420 99.3,420 164,420 164,420 164,355.2 164,355.1 99.3,355.1 	"/>
	<polygon class="st1" points="169.9,426 169.9,490.7 169.8,490.7 234.5,490.7 234.5,490.7 234.5,426 234.5,425.9 169.8,425.9 	"/>
	<path class="st1" d="M99.3,349.5l-0.2,0V349c0-35.6,28.8-64.4,64.4-64.4h0.5l0,0.1v64.8H99.3z"/>
	<path class="st1" d="M99.3,425.9l-0.2,0v0.4c0,35.6,28.8,64.4,64.4,64.4h0.5l0-0.1v-64.8H99.3z"/>
	<path class="st1" d="M305.1,349.5l0.2,0V349c0-35.6-28.8-64.4-64.4-64.4h-0.5l0,0.1v64.8H305.1z"/>
	<path class="st1" d="M305.1,425.9l0.2,0v0.4c0,35.6-28.8,64.4-64.4,64.4h-0.5l0-0.1v-64.8H305.1z"/>
	<polygon class="st2" points="106,510.2 106,571.6 105.9,571.7 504.7,571.7 504.7,571.6 504.7,510.2 504.7,510.1 105.9,510.1 	"/>
	<path class="st3" d="M129.6,554.5c-4.9,0-8.1-3.7-8.1-8v-23.9c0-0.7,0.4-1.1,1.1-1.1h1.6c0.7,0,1.1,0.4,1.1,1.1v23.9
		c0,2.2,1.6,4.5,4.3,4.5c1.5,0,2.3-0.6,3-1.2c0.7-0.6,1.2-0.6,1.8-0.2l1,0.7c0.5,0.4,0.6,1.1,0.2,1.5
		C134.4,553.3,132.4,554.5,129.6,554.5"/>
	<path class="st3" d="M155.5,538.8c0-2.2-1.6-4.5-4.3-4.5c-2.8,0-4.3,2.3-4.3,4.5v1.2c0,0.7,0.4,1.1,1.1,1.1h6.5
		c0.7,0,1.1-0.4,1.1-1.1V538.8z M157.1,544.3h-9.2c-0.7,0-1.1,0.4-1.1,1.1v1.2c0,2.2,1.6,4.5,4.3,4.5c2.6,0,4.1-1.8,4.9-2.9
		c0.3-0.5,1-0.5,1.5-0.2l1.1,0.8c0.6,0.4,0.5,1.1,0.2,1.5c-1.2,1.9-3.6,4.3-7.7,4.3c-4.9,0-8.1-3.7-8.1-8v-7.8c0-4.2,3.3-8,8.1-8
		c4.9,0,8.1,3.7,8.1,8v3.3C159.3,543.5,158.5,544.3,157.1,544.3"/>
	<path class="st3" d="M174.9,542.1c-2.8,0-4.3,2.3-4.3,4.5c0,2.2,1.6,4.5,4.3,4.5c2.8,0,4.3-2.3,4.3-4.5
		C179.3,544.3,177.7,542.1,174.9,542.1 M182,554.1h-1.3c-0.4,0-0.6-0.2-0.8-0.4c-0.2-0.3-0.5-0.3-0.7-0.2c-0.9,0.5-2.3,1.1-4.3,1.1
		c-4.9,0-8.1-3.7-8.1-8c0-4.2,3.3-8,8.1-8c1.3,0,2.6,0.3,3.7,0.8c0.4,0.2,0.7-0.1,0.7-0.6c0-2.2-1.6-4.5-4.3-4.5
		c-1.7,0-3.1,0.5-4.1,1c-0.6,0.4-1,0.1-1.4-0.5l-0.6-1.1c-0.3-0.6,0.1-1.2,0.5-1.5c1.6-0.9,3.4-1.4,5.6-1.4c4.9,0,8.1,3.7,8.1,8V553
		C183,553.7,182.7,554.1,182,554.1"/>
	<path class="st3" d="M206.7,535.6c-0.4,0.6-1,0.7-1.5,0.4c-1.3-0.8-3.1-1.7-5.1-1.7c-2.8,0-4.3,2.3-4.3,4.5V553
		c0,0.7-0.4,1.1-1.1,1.1H193c-0.7,0-1.1-0.4-1.1-1.1v-14.2c0-4.2,3.3-8,8.1-8c3,0,5.7,1.3,6.9,2.2c0.5,0.4,0.7,0.9,0.4,1.5
		L206.7,535.6z"/>
	<path class="st3" d="M229.4,554.1h-1.6c-0.7,0-1.1-0.4-1.1-1.1v-14.2c0-2.2-1.6-4.5-4.3-4.5c-2.8,0-4.3,2.3-4.3,4.5V553
		c0,0.7-0.4,1.1-1.1,1.1h-1.6c-0.7,0-1.1-0.4-1.1-1.1v-20.6c0-0.7,0.4-1.1,1.1-1.1h1.3c0.4,0,0.6,0.2,0.8,0.4
		c0.2,0.3,0.5,0.3,0.7,0.2c0.9-0.5,2.3-1.1,4.3-1.1c4.9,0,8.1,3.7,8.1,8V553C230.5,553.7,230.1,554.1,229.4,554.1"/>
	<path class="st3" d="M253.8,553.3c-1.1,0.7-2.7,1.2-4.4,1.2c-4.9,0-8.1-3.7-8.1-8v-14.2c0-0.7,0.4-1.1,1.1-1.1h1.6
		c0.7,0,1.1,0.4,1.1,1.1v14.2c0,2.2,1.6,4.5,4.3,4.5c1,0,1.9-0.4,2.3-0.6c0.6-0.3,1.1-0.4,1.5,0.2l0.9,1.1
		C254.5,552.4,254.3,553,253.8,553.3 M244,524.8h-1.6c-0.7,0-1.1-0.4-1.1-1.1v-1.1c0-0.7,0.4-1.1,1.1-1.1h1.6c0.7,0,1.1,0.4,1.1,1.1
		v1.1C245.1,524.4,244.7,524.8,244,524.8"/>
	<path class="st3" d="M276.9,554.1h-1.6c-0.7,0-1.1-0.4-1.1-1.1v-14.2c0-2.2-1.6-4.5-4.3-4.5c-2.8,0-4.3,2.3-4.3,4.5V553
		c0,0.7-0.4,1.1-1.1,1.1h-1.6c-0.7,0-1.1-0.4-1.1-1.1v-20.6c0-0.7,0.4-1.1,1.1-1.1h1.3c0.4,0,0.6,0.2,0.8,0.4
		c0.2,0.3,0.5,0.3,0.7,0.2c0.9-0.5,2.3-1.1,4.3-1.1c4.9,0,8.1,3.7,8.1,8V553C278,553.7,277.6,554.1,276.9,554.1"/>
	<path class="st3" d="M293.6,534.3c-2.8,0-4.3,2.3-4.3,4.5c0,2.2,1.6,4.5,4.3,4.5c2.8,0,4.3-2.3,4.3-4.5
		C297.9,536.6,296.4,534.3,293.6,534.3 M293.2,564.3c-3.3,0-5.9-1.3-6.9-2.2c-0.6-0.4-0.7-1-0.4-1.5l0.6-1.1c0.4-0.7,1-0.8,1.5-0.4
		c1.2,0.9,2.9,1.7,5.2,1.7c2.4,0,4.8-0.9,4.8-3.4c0-2.4-2.5-3.3-4.8-3.3h-2.9c-0.7,0-1.1-0.4-1.1-1.1v-6.3c0-0.7-0.3-1.3-0.7-1.7
		c-1.5-1.3-3-3.2-3-6.3c0-4.2,3.3-8,8.1-8c1.6,0,1.9,0.4,2.8,0.4c0.9,0,2.3-1.5,4.2-1.5c0.7,0,1.1,0.4,1.1,1.1v1.5
		c0,0.7-0.4,0.9-0.7,1c-0.6,0.2-0.8,0.6-0.4,1.3c0.5,0.9,1.2,2.4,1.2,4.2c0,4.2-3.3,7.8-7.7,8c-0.7,0-1.1,0.4-1.1,1.1v1.9
		c0,0.7,0.4,1.1,1.1,1.1c4.5,0.1,7.7,2.5,7.7,6.6C301.7,561.7,298,564.3,293.2,564.3"/>
	<path class="st3" d="M343.6,554.5c-4.9,0-8.1-3.7-8.1-8v-10.9c0-0.7-0.4-1.1-1.1-1.1h-1.1c-0.7,0-1.1-0.4-1.1-1.1v-1.1
		c0-0.7,0.4-1.1,1.1-1.1h1.1c0.7,0,1.1-0.4,1.1-1.1v-4.3c0-0.7,0.4-1.1,1.1-1.1h1.6c0.7,0,1.1,0.4,1.1,1.1v4.3
		c0,0.7,0.4,1.1,1.1,1.1h5.4c0.7,0,1.1,0.4,1.1,1.1v1.1c0,0.7-0.4,1.1-1.1,1.1h-5.4c-0.7,0-1.1,0.4-1.1,1.1v10.9
		c0,2.2,1.6,4.5,4.3,4.5c1.5,0,2.3-0.6,3-1.2c0.7-0.6,1.2-0.6,1.8-0.2l1,0.7c0.5,0.4,0.6,1.1,0.2,1.5
		C348.4,553.3,346.4,554.5,343.6,554.5"/>
	<path class="st3" d="M369.2,538.8c0-2.2-1.6-4.5-4.3-4.5c-2.8,0-4.3,2.3-4.3,4.5v7.8c0,2.2,1.6,4.5,4.3,4.5c2.8,0,4.3-2.3,4.3-4.5
		V538.8z M364.8,554.5c-4.9,0-8.1-3.7-8.1-8v-7.8c0-4.2,3.3-8,8.1-8c4.9,0,8.1,3.7,8.1,8v7.8C372.9,550.8,369.7,554.5,364.8,554.5"
		/>
	<path class="st3" d="M412.8,554.5c-4.9,0-8.1-3.7-8.1-8v-7.8c0-4.2,3.3-8,8.1-8c4.9,0,6.8,3.4,7.2,4.3c0.2,0.4,0.3,1.1-0.3,1.5
		l-1.2,0.8c-0.5,0.4-1.1,0.4-1.5-0.2c-0.4-0.7-1.5-2.9-4.2-2.9c-2.8,0-4.3,2.3-4.3,4.5v7.8c0,2.2,1.6,4.5,4.3,4.5
		c2.8,0,3.7-2,4.2-2.8c0.4-0.6,0.9-0.7,1.5-0.4l1.1,0.8c0.6,0.4,0.7,0.9,0.4,1.5C419.5,551.2,417.7,554.5,412.8,554.5"/>
	<path class="st3" d="M436,542.1c-2.8,0-4.3,2.3-4.3,4.5c0,2.2,1.6,4.5,4.3,4.5c2.8,0,4.3-2.3,4.3-4.5
		C440.4,544.3,438.8,542.1,436,542.1 M443.1,554.1h-1.3c-0.4,0-0.6-0.2-0.8-0.4c-0.2-0.3-0.5-0.3-0.7-0.2c-0.9,0.5-2.3,1.1-4.3,1.1
		c-4.9,0-8.1-3.7-8.1-8c0-4.2,3.3-8,8.1-8c1.3,0,2.6,0.3,3.7,0.8c0.4,0.2,0.7-0.1,0.7-0.6c0-2.2-1.6-4.5-4.3-4.5
		c-1.7,0-3.1,0.5-4.1,1c-0.6,0.4-1,0.1-1.4-0.5l-0.6-1.1c-0.3-0.6,0.1-1.2,0.5-1.5c1.6-0.9,3.4-1.4,5.6-1.4c4.9,0,8.1,3.7,8.1,8V553
		C444.2,553.7,443.8,554.1,443.1,554.1"/>
	<path class="st3" d="M467.8,535.6c-0.3,0.6-1,0.7-1.5,0.4c-1.3-0.8-3-1.7-5.1-1.7c-2.8,0-4.3,2.3-4.3,4.5V553
		c0,0.7-0.4,1.1-1.1,1.1h-1.6c-0.7,0-1.1-0.4-1.1-1.1v-14.2c0-4.2,3.3-8,8.1-8c3,0,5.7,1.3,6.9,2.2c0.5,0.4,0.7,0.9,0.4,1.5
		L467.8,535.6z"/>
	<path class="st3" d="M487.8,538.8c0-2.2-1.6-4.5-4.3-4.5c-2.8,0-4.3,2.3-4.3,4.5v1.2c0,0.7,0.4,1.1,1.1,1.1h6.5
		c0.7,0,1.1-0.4,1.1-1.1V538.8z M489.5,544.3h-9.2c-0.7,0-1.1,0.4-1.1,1.1v1.2c0,2.2,1.6,4.5,4.3,4.5c2.6,0,4.1-1.8,4.9-2.9
		c0.3-0.5,1-0.5,1.5-0.2l1.1,0.8c0.6,0.4,0.5,1.1,0.2,1.5c-1.2,1.9-3.6,4.3-7.7,4.3c-4.9,0-8.1-3.7-8.1-8v-7.8c0-4.2,3.3-8,8.1-8
		c4.9,0,8.1,3.7,8.1,8v3.3C491.6,543.5,490.8,544.3,489.5,544.3"/>
	<polygon points="366.1,299.4 366.1,305.2 350.8,305.2 350.8,312.1 364.8,312.1 364.8,317.8 350.8,317.8 350.8,326.3 366.8,326.3 
		366.8,332.2 344.9,332.2 344.9,299.4 	"/>
	<path d="M370.9,307.9h5.7v14.6c0,1.4,0.1,2.4,0.4,3.1c0.5,1.2,1.5,1.8,3,1.8c1.9,0,3.2-0.9,3.9-2.6c0.4-0.9,0.5-2.2,0.5-3.8v-13.2
		h5.7v24.2h-5.4v-3.4c0,0.1-0.2,0.3-0.4,0.7c-0.2,0.4-0.4,0.7-0.7,1c-0.9,0.9-1.7,1.5-2.5,1.8c-0.8,0.3-1.8,0.5-2.9,0.5
		c-3.2,0-5.3-1.3-6.4-3.9c-0.6-1.4-0.9-3.5-0.9-6.3V307.9z"/>
	<path d="M407.1,307.3c0.1,0,0.2,0,0.3,0c0.1,0,0.2,0,0.5,0v6.5c-0.4,0-0.7-0.1-0.9-0.1c-0.3,0-0.5,0-0.7,0c-2.2,0-3.7,0.8-4.5,2.5
		c-0.4,0.9-0.6,2.4-0.6,4.3v11.6h-5.6v-24.2h5.3v4.2c0.9-1.6,1.6-2.7,2.2-3.3C404.1,307.8,405.4,307.3,407.1,307.3"/>
	<path d="M428.9,311c-1.8-2.6-4.5-3.8-8.2-3.8c-3.7,0-6.4,1.3-8.2,3.8c-1.8,2.6-2.7,5.6-2.7,9.1c0,3.6,0.9,6.6,2.7,9.1
		c1.8,2.5,4.5,3.8,8.2,3.8c3.7,0,6.4-1.3,8.2-3.8c1.8-2.5,2.7-5.6,2.7-9.1C431.6,316.6,430.7,313.5,428.9,311 M416.9,325.7
		c-0.9-1.3-1.3-3.2-1.3-5.6c0-2.4,0.4-4.3,1.3-5.6c0.9-1.3,2.1-2,3.8-2c1.6,0,2.9,0.7,3.8,2c0.9,1.3,1.3,3.2,1.3,5.6
		c0,2.4-0.4,4.3-1.3,5.6c-0.9,1.3-2.1,2-3.8,2C419.1,327.7,417.8,327,416.9,325.7"/>
	<path d="M442.7,309c-0.7,0.6-1.3,1.4-1.9,2.5v-3.6h-5.3v33.8h5.5v-12.6c0.6,1,1.2,1.8,1.8,2.3c1.1,1,2.5,1.4,4.2,1.4
		c2.7,0,4.8-1.1,6.5-3.4c1.7-2.2,2.5-5.5,2.5-9.8c0-4.1-0.9-7.1-2.6-9.2c-1.7-2.1-3.9-3.1-6.3-3.1C445.4,307.4,444,307.9,442.7,309
		 M449.1,325.5c-0.8,1.4-2,2.1-3.6,2.1c-1.1,0-2-0.3-2.8-1c-1.3-1.1-2-3.1-2-5.9c0-1.8,0.2-3.3,0.6-4.4c0.8-2.2,2.1-3.3,4.2-3.3
		c1.7,0,2.9,0.7,3.7,2.2c0.8,1.4,1.1,3.1,1.1,5C450.3,322.3,449.9,324.1,449.1,325.5"/>
	<path d="M461.2,310.6c-1.9,2.2-2.8,5.5-2.8,9.7c0,4.5,1,7.7,3.1,9.7c2.1,2,4.5,3,7.2,3c3.3,0,5.8-1.2,7.7-3.5
		c1.2-1.5,1.8-2.9,2-4.4h-5.7c-0.3,0.7-0.6,1.3-1,1.7c-0.7,0.7-1.6,1.1-2.8,1.1c-1.1,0-2-0.3-2.8-0.9c-1.3-1-1.9-2.7-2-5.1h14.6
		c0-2.1,0-3.7-0.2-4.8c-0.3-1.9-0.8-3.6-1.6-5c-0.9-1.6-2.1-2.8-3.5-3.6c-1.4-0.8-3-1.1-4.8-1.1
		C465.5,307.3,463.1,308.4,461.2,310.6 M471.5,313.8c0.8,0.9,1.2,2.1,1.3,3.8h-8.7c0.2-1.6,0.6-2.8,1.3-3.7c0.7-0.9,1.7-1.4,3-1.4
		C469.7,312.5,470.7,312.9,471.5,313.8"/>
	<path d="M484,319.2c-2,1.3-3,3.5-3,6.5c0,2.3,0.6,4.1,1.9,5.3c1.3,1.2,2.9,1.9,4.8,1.9c1.5,0,2.9-0.4,4.1-1.2
		c1-0.7,1.9-1.5,2.7-2.4c0,0.5,0.1,1,0.2,1.5c0.1,0.4,0.2,0.9,0.4,1.4h6.1v-0.9c-0.4-0.2-0.6-0.4-0.8-0.7c-0.2-0.3-0.3-0.9-0.3-1.7
		c0-1.1,0-2,0-2.8v-11.1c0-2.9-0.9-4.9-2.7-6c-1.8-1.1-3.9-1.6-6.2-1.6c-3.6,0-6.1,1.1-7.6,3.2c-0.9,1.4-1.4,3.1-1.6,5.2h5.4
		c0.1-0.9,0.4-1.7,0.8-2.2c0.5-0.8,1.5-1.1,2.8-1.1c1.2,0,2.1,0.2,2.7,0.6c0.6,0.4,0.9,1.1,0.9,2.1c0,0.8-0.4,1.4-1.2,1.8
		c-0.4,0.2-1.2,0.4-2.2,0.6l-1.9,0.3C486.7,318,485.1,318.5,484,319.2 M492.6,327.1c-1,0.8-2.1,1.2-3.3,1.2c-0.8,0-1.4-0.2-1.9-0.7
		c-0.5-0.5-0.8-1.3-0.8-2.4c0-1.2,0.4-2.1,1.3-2.7c0.5-0.3,1.3-0.6,2.5-0.9l1.2-0.3c0.6-0.1,1.1-0.3,1.5-0.4
		c0.4-0.2,0.7-0.4,1.1-0.6v2.4C494.1,324.8,493.6,326.3,492.6,327.1"/>
	<path d="M516.5,307.3c2.2,0,4,0.7,5.4,2s2.1,3.5,2.1,6.5v16.3h-5.7v-14.7c0-1.3-0.1-2.3-0.4-2.9c-0.5-1.2-1.6-1.9-3.1-1.9
		c-1.9,0-3.2,0.9-3.9,2.7c-0.4,1-0.5,2.2-0.5,3.7v13.1h-5.6v-24.2h5.4v3.5c0.7-1.2,1.4-2.1,2-2.7
		C513.3,307.8,514.7,307.3,516.5,307.3"/>
	<path d="M343.4,372.5h5.7c0.2,1.5,0.5,2.6,1.1,3.4c1,1.3,2.7,2,5,2c1.4,0,2.6-0.2,3.5-0.5c1.7-0.7,2.5-2,2.5-3.8
		c0-1.1-0.4-1.9-1.3-2.5c-0.8-0.6-2.1-1.1-3.9-1.5l-3.1-0.8c-3-0.8-5.1-1.6-6.2-2.5c-2-1.5-2.9-3.9-2.9-7.1c0-2.9,0.9-5.4,2.8-7.3
		c1.9-1.9,4.6-2.9,8.3-2.9c3,0,5.6,0.9,7.8,2.7c2.1,1.8,3.3,4.5,3.4,8h-5.8c-0.1-2-0.9-3.4-2.3-4.2c-0.9-0.5-2.1-0.8-3.5-0.8
		c-1.5,0-2.8,0.4-3.7,1.1c-0.9,0.7-1.4,1.7-1.4,3c0,1.2,0.5,2,1.4,2.6c0.6,0.4,1.8,0.8,3.8,1.4l5,1.4c2.2,0.6,3.8,1.4,4.9,2.4
		c1.7,1.5,2.6,3.8,2.6,6.7c0,3-1,5.5-3,7.5c-2,2-4.9,3-8.5,3c-3.8,0-6.7-1-8.9-2.9C344.4,378.6,343.4,375.9,343.4,372.5"/>
	<path d="M389.5,367h-5.7c-0.1-0.9-0.4-1.7-0.8-2.5c-0.6-1-1.6-1.5-2.9-1.5c-1.9,0-3.2,1.1-3.9,3.2c-0.4,1.1-0.5,2.6-0.5,4.5
		c0,1.8,0.2,3.2,0.5,4.3c0.7,2,1.9,3,3.8,3c1.3,0,2.2-0.4,2.8-1.2c0.6-0.8,0.9-1.8,1-3.1h5.7c-0.1,1.9-0.7,3.7-1.8,5.5
		c-1.7,2.8-4.3,4.2-7.8,4.2c-3.4,0-6-1.2-7.6-3.5c-1.6-2.3-2.4-5.3-2.4-9c0-4.2,0.9-7.4,2.7-9.7c1.8-2.3,4.3-3.5,7.4-3.5
		c2.7,0,4.9,0.7,6.6,2.1C388.2,361.2,389.2,363.6,389.5,367"/>
	<path d="M405.1,357.7c1.3,0,2.5,0.3,3.6,0.8c1.1,0.5,2,1.3,2.7,2.4c0.6,0.9,0.9,1.8,1.1,2.8c0.1,1,0.2,2.5,0.2,4.7v14.2h-5.7v-14.8
		c0-1.3-0.2-2.4-0.6-3.2c-0.5-1.1-1.5-1.7-2.9-1.7c-1.5,0-2.6,0.6-3.4,1.7c-0.8,1.1-1.1,2.7-1.1,4.8v13.1h-5.6v-32.7h5.6v11.6
		c0.8-1.4,1.7-2.4,2.8-2.9C402.8,358,403.9,357.7,405.1,357.7"/>
	<path d="M435.6,361.4c-1.8-2.6-4.5-3.8-8.2-3.8s-6.4,1.3-8.2,3.8c-1.8,2.6-2.7,5.6-2.7,9.1c0,3.6,0.9,6.6,2.7,9.1
		c1.8,2.5,4.5,3.8,8.2,3.8s6.4-1.3,8.2-3.8c1.8-2.5,2.7-5.6,2.7-9.1C438.3,367,437.4,364,435.6,361.4 M423.6,376.1
		c-0.9-1.3-1.3-3.2-1.3-5.6c0-2.4,0.4-4.3,1.3-5.6c0.9-1.3,2.1-2,3.8-2c1.6,0,2.9,0.7,3.8,2c0.9,1.3,1.3,3.2,1.3,5.6
		c0,2.4-0.4,4.3-1.3,5.6c-0.9,1.3-2.1,2-3.8,2C425.8,378.1,424.5,377.4,423.6,376.1"/>
	<path d="M460.1,361.4c-1.8-2.6-4.5-3.8-8.2-3.8s-6.4,1.3-8.2,3.8c-1.8,2.6-2.7,5.6-2.7,9.1c0,3.6,0.9,6.6,2.7,9.1
		c1.8,2.5,4.5,3.8,8.2,3.8s6.4-1.3,8.2-3.8c1.8-2.5,2.7-5.6,2.7-9.1C462.8,367,461.9,364,460.1,361.4 M448.1,376.1
		c-0.9-1.3-1.3-3.2-1.3-5.6c0-2.4,0.4-4.3,1.3-5.6c0.9-1.3,2.1-2,3.8-2c1.6,0,2.9,0.7,3.7,2c0.9,1.3,1.3,3.2,1.3,5.6
		c0,2.4-0.4,4.3-1.3,5.6c-0.9,1.3-2.1,2-3.7,2C450.2,378.1,449,377.4,448.1,376.1"/>
	<rect x="466.9" y="349.8" width="5.6" height="32.8"/>
	<path d="M362.1,411.8c-1.8-2.6-4.5-3.8-8.2-3.8c-3.7,0-6.4,1.3-8.2,3.8c-1.8,2.6-2.7,5.6-2.7,9.1c0,3.6,0.9,6.6,2.7,9.1
		c1.8,2.5,4.5,3.8,8.2,3.8c3.7,0,6.4-1.3,8.2-3.8c1.8-2.5,2.7-5.6,2.7-9.1C364.8,417.4,363.9,414.4,362.1,411.8 M350.1,426.6
		c-0.9-1.3-1.3-3.2-1.3-5.6c0-2.4,0.4-4.3,1.3-5.6c0.9-1.3,2.1-2,3.8-2c1.6,0,2.9,0.7,3.8,2c0.9,1.3,1.3,3.2,1.3,5.6
		c0,2.4-0.4,4.3-1.3,5.6c-0.9,1.3-2.1,2-3.8,2C352.2,428.6,351,427.9,350.1,426.6"/>
	<path d="M376.7,399.9c0.4,0,0.7,0,1,0c0.3,0,0.7,0,1.2,0.1v5.2c-0.3,0-0.8-0.1-1.6-0.1c-0.7,0-1.2,0.2-1.5,0.6
		c-0.3,0.4-0.4,0.8-0.4,1.3v2h3.7v4.5h-3.7V433h-5.6v-19.6h-3.1V409h3v-1.6c0-2.6,0.4-4.4,1.2-5.3
		C371.6,400.6,373.6,399.9,376.7,399.9"/>
	<path d="M367,453.5c-2.2-2.5-5.3-3.8-9.5-3.8c-4.1,0-7.3,1.3-9.4,3.8c-2.9,3-4.4,7.5-4.4,13.5c0,5.9,1.5,10.4,4.4,13.5
		c2.2,2.5,5.3,3.8,9.4,3.8c4.1,0,7.3-1.3,9.5-3.8c2.9-3.1,4.4-7.6,4.4-13.5C371.3,461,369.9,456.5,367,453.5 M351.8,475.6
		c-1.4-2-2.1-4.9-2.1-8.5c0-3.7,0.7-6.5,2.1-8.5c1.4-2,3.3-3,5.7-3c2.4,0,4.3,1,5.7,3c1.4,2,2.1,4.9,2.1,8.5c0,3.7-0.7,6.5-2.1,8.5
		c-1.4,2-3.3,3-5.7,3C355.1,478.6,353.2,477.6,351.8,475.6"/>
	<path d="M387.3,458.6c2.2,0,4,0.7,5.4,2c1.4,1.3,2.1,3.5,2.1,6.5v16.3h-5.7v-14.7c0-1.3-0.1-2.3-0.4-2.9c-0.6-1.2-1.6-1.9-3.1-1.9
		c-1.9,0-3.2,0.9-3.9,2.7c-0.4,1-0.5,2.2-0.5,3.7v13.1h-5.6v-24.2h5.4v3.5c0.7-1.2,1.4-2.1,2-2.7
		C384.1,459.1,385.5,458.6,387.3,458.6"/>
	<path d="M418.4,467.9h-5.7c-0.1-0.9-0.4-1.7-0.8-2.4c-0.6-1-1.6-1.5-2.9-1.5c-1.9,0-3.2,1.1-3.9,3.2c-0.4,1.1-0.5,2.6-0.5,4.5
		c0,1.8,0.2,3.2,0.5,4.3c0.7,2,1.9,3,3.8,3c1.3,0,2.2-0.4,2.8-1.2c0.5-0.8,0.9-1.8,1-3.1h5.7c-0.1,1.9-0.7,3.8-1.8,5.5
		c-1.7,2.8-4.3,4.2-7.8,4.2c-3.4,0-6-1.2-7.6-3.5c-1.6-2.3-2.4-5.3-2.4-9c0-4.2,0.9-7.4,2.7-9.7c1.8-2.3,4.3-3.5,7.4-3.5
		c2.7,0,4.9,0.7,6.6,2C417.1,462,418.1,464.4,418.4,467.9"/>
	<path d="M440,462.3c-1.8-2.6-4.5-3.8-8.2-3.8s-6.4,1.3-8.2,3.8c-1.8,2.6-2.7,5.6-2.7,9.1c0,3.6,0.9,6.6,2.7,9.1
		c1.8,2.5,4.5,3.8,8.2,3.8s6.4-1.3,8.2-3.8c1.8-2.5,2.7-5.6,2.7-9.1C442.8,467.9,441.8,464.9,440,462.3 M428.1,477
		c-0.9-1.3-1.3-3.2-1.3-5.6c0-2.4,0.4-4.3,1.3-5.6c0.9-1.3,2.1-2,3.8-2c1.6,0,2.9,0.7,3.8,2c0.9,1.3,1.3,3.2,1.3,5.6
		c0,2.4-0.4,4.3-1.3,5.6c-0.9,1.3-2.1,2-3.8,2C430.2,479,428.9,478.3,428.1,477"/>
	<rect x="446.9" y="450.7" width="5.6" height="32.8"/>
	<path d="M475.7,462.3c-1.8-2.6-4.5-3.8-8.2-3.8s-6.4,1.3-8.2,3.8c-1.8,2.6-2.7,5.6-2.7,9.1c0,3.6,0.9,6.6,2.7,9.1
		c1.8,2.5,4.5,3.8,8.2,3.8s6.4-1.3,8.2-3.8c1.8-2.5,2.7-5.6,2.7-9.1C478.4,467.9,477.5,464.9,475.7,462.3 M463.7,477
		c-0.9-1.3-1.3-3.2-1.3-5.6c0-2.4,0.4-4.3,1.3-5.6c0.9-1.3,2.1-2,3.8-2c1.6,0,2.9,0.7,3.8,2c0.9,1.3,1.3,3.2,1.3,5.6
		c0,2.4-0.4,4.3-1.3,5.6c-0.9,1.3-2.1,2-3.8,2C465.8,479,464.6,478.3,463.7,477"/>
	<path d="M483.4,462.3c-1.6,2.5-2.4,5.5-2.4,9.1c0,3.7,0.8,6.7,2.5,8.9c1.6,2.2,3.8,3.3,6.6,3.3c1.8,0,3.2-0.5,4.3-1.5
		c0.6-0.5,1.2-1.3,1.7-2.3v1.6c0,2.3-0.2,4-0.7,4.9c-0.7,1.5-2,2.3-4,2.3c-1.4,0-2.4-0.3-3-0.9c-0.4-0.3-0.6-0.9-0.8-1.6h-6.1
		c0.2,2.4,1.1,4.2,2.9,5.5c1.7,1.2,3.9,1.8,6.7,1.8c4.5,0,7.6-1.4,9.2-4.1c0.9-1.6,1.4-4,1.4-7.1v-23h-5.4v3.5
		c-0.8-1.7-1.9-2.9-3.3-3.5c-0.8-0.4-1.7-0.6-2.8-0.6C487.2,458.6,485,459.9,483.4,462.3 M487.5,475.2c-0.4-1.1-0.6-2.4-0.6-3.8
		c0-1.6,0.2-3,0.6-4.1c0.7-2.1,2.1-3.1,4.1-3.1c1.4,0,2.6,0.6,3.4,1.8c0.8,1.2,1.3,2.9,1.3,5.3c0,2.4-0.4,4.2-1.4,5.3
		c-0.9,1.1-2,1.7-3.3,1.7C489.6,478.3,488.2,477.2,487.5,475.2"/>
	<path d="M507.7,493.2v-5.1l0.7,0c0.5,0,1.1,0,1.6-0.1c0.5-0.1,0.9-0.2,1.2-0.5c0.3-0.3,0.6-0.8,0.9-1.6c0.3-0.8,0.4-1.3,0.3-1.5
		l-7.8-25.3h6.2l4.7,17.9l4.4-17.9h5.9l-7.3,23.8c-1.4,4.6-2.5,7.4-3.3,8.6c-0.8,1.1-2.5,1.6-4.9,1.6c-0.5,0-0.9,0-1.2,0
		C508.8,493.2,508.3,493.2,507.7,493.2"/>
</g>
</svg>
