<?xml version="1.0" encoding="UTF-8"?>
<!-- Generator: visioncortex VTracer 0.6.4 -->
<svg version="1.1" xmlns="http://www.w3.org/2000/svg" width="1507" height="600">
<path d="M0 0 C3.39 2.94 6.7 5.96 10 9 C10.86 9.75 11.71 10.51 12.59 11.28 C17.84 15.9 22.57 20.6 27 26 C27.63 26.75 27.63 26.75 28.27 27.51 C65.57 71.68 82.53 127.96 78.78 185.41 C74.06 241.14 47.76 294.41 5.25 331.12 C-8.17 342.42 -22.41 351.99 -38 360 C-38.66 360.35 -39.32 360.7 -40.01 361.06 C-65.98 374.63 -96.5 383.03 -125.89 383.2 C-127.12 383.21 -127.12 383.21 -128.37 383.22 C-162.44 383.45 -162.44 383.45 -178 380 C-178.95 379.8 -179.89 379.59 -180.87 379.38 C-221.48 370.44 -256.97 351.73 -287 323 C-287.55 322.48 -288.1 321.96 -288.67 321.43 C-324.79 287.33 -347.17 239.3 -352 190 C-352.11 188.88 -352.22 187.76 -352.34 186.61 C-357.05 130.9 -340.34 73.44 -304.16 30.5 C-303.45 29.67 -302.73 28.85 -302 28 C-301.32 27.21 -300.64 26.41 -299.93 25.6 C-239.22 -43.39 -138.36 -68.65 0 0 Z " fill="#9DD8E1" transform="translate(353,48)"/>
<path d="M0 0 C3.39 2.94 6.7 5.96 10 9 C10.86 9.75 11.71 10.51 12.59 11.28 C17.84 15.9 22.57 20.6 27 26 C27.63 26.75 27.63 26.75 28.27 27.51 C52.05 55.67 66.65 88.05 75.16 123.73 C75.33 124.41 75.49 125.09 75.65 125.79 C76.08 128.54 76.05 131.22 76 134 C67.36 134.11 58.8 133.81 50.19 133.25 C49.2 133.19 49.2 133.19 48.2 133.12 C30.08 131.93 12.04 129.99 -6 128 C-6.88 127.9 -7.76 127.81 -8.67 127.71 C-39.6 124.3 -70.39 120.22 -101.12 115.31 C-102.39 115.11 -103.66 114.91 -104.97 114.7 C-106.16 114.51 -107.35 114.31 -108.57 114.11 C-110.11 113.86 -110.11 113.86 -111.69 113.61 C-114.27 113.13 -116.79 112.6 -119.35 112.01 C-123.84 111 -128.34 110.33 -132.91 109.7 C-145.53 107.88 -158 105.34 -170.5 102.81 C-172.94 102.32 -175.37 101.83 -177.81 101.34 C-193.08 98.26 -208.32 95.05 -223.5 91.55 C-229.97 90.06 -236.43 88.73 -242.98 87.65 C-253.06 85.95 -262.95 83.43 -272.86 80.92 C-275.99 80.13 -279.13 79.34 -282.27 78.56 C-293.93 75.63 -305.5 72.5 -317 69 C-319.02 68.4 -321.04 67.79 -323.06 67.19 C-324.38 66.79 -325.69 66.4 -327 66 C-325.46 59.81 -321.97 55.02 -318.44 49.81 C-317.81 48.87 -317.17 47.94 -316.52 46.97 C-312 40.33 -307.33 34.02 -302 28 C-300.98 26.82 -300.98 26.82 -299.95 25.62 C-239.33 -43.44 -138.3 -68.62 0 0 Z " fill="#2CA0B2" transform="translate(353,48)"/>
<path d="M0 0 C38.73 -0.12 38.73 -0.12 78.25 -0.25 C86.37 -0.29 94.49 -0.32 102.85 -0.36 C112.85 -0.38 112.85 -0.38 117.55 -0.38 C120.8 -0.39 124.04 -0.4 127.29 -0.42 C163.26 -0.66 193.5 3.27 220.69 29.31 C238.16 47.21 243.68 69.49 243.47 93.76 C242.88 116.38 234 135.59 218.3 151.78 C209.23 160.36 198.91 166.1 188 172 C188.27 172.5 188.55 173 188.83 173.51 C195.49 185.62 202.03 197.79 208.5 210 C213.73 219.88 219.01 229.73 224.39 239.53 C229.73 249.28 234.93 259.12 240.13 268.95 C240.48 269.61 240.82 270.27 241.18 270.95 C241.86 272.23 242.54 273.51 243.22 274.79 C245.45 279.01 247.77 283.16 250.19 287.27 C251 289 251 289 251 292 C228.56 292 206.12 292 183 292 C171.72 270.56 171.72 270.56 167 261 C163.44 253.83 159.82 246.69 156.06 239.62 C151.5 231.05 147.17 222.36 142.84 213.66 C138.34 204.63 133.69 195.68 128.94 186.79 C127.93 184.87 126.97 182.93 126 181 C93.83 180.5 93.83 180.5 61 180 C61 216.96 61 253.92 61 292 C40.87 292 20.74 292 0 292 C0 195.64 0 99.28 0 0 Z M61 52 C61 77.74 61 103.48 61 130 C75.1 130.06 75.1 130.06 89.21 130.1 C94.97 130.11 100.73 130.12 106.49 130.15 C111.14 130.17 115.79 130.18 120.43 130.19 C122.2 130.19 123.97 130.2 125.73 130.21 C142.51 130.31 158.98 129.69 172.06 117.69 C178.9 109.97 182.59 99.52 182.25 89.23 C180.93 77.33 176.56 68.2 167.26 60.57 C154.2 51.52 140.08 51.71 124.87 51.8 C123.02 51.81 121.17 51.81 119.33 51.81 C114.5 51.82 109.67 51.84 104.84 51.86 C99.03 51.89 93.22 51.9 87.4 51.91 C78.6 51.93 69.8 51.97 61 52 Z " fill="#034158" transform="translate(966,73)"/>
<path d="M0 0 C5.87 1.71 11.16 4.44 16.62 7.12 C56.85 26.65 98.35 43.76 140 60 C140.63 60.28 141.25 60.56 141.9 60.85 C147.2 63.1 151.49 63.26 157.19 62.81 C158.09 62.75 158.99 62.69 159.92 62.64 C162.95 62.44 165.97 62.22 169 62 C171.2 61.85 173.41 61.71 175.61 61.56 C180.44 61.25 185.26 60.92 190.09 60.59 C354.59 49.44 354.59 49.44 417 59 C416.4 64.28 414.67 68.58 412.5 73.38 C411.96 74.56 411.96 74.56 411.42 75.77 C391.34 119.42 356.63 155.1 314 177 C313.34 177.35 312.68 177.7 311.99 178.06 C286.02 191.63 255.5 200.03 226.11 200.2 C224.88 200.21 224.88 200.21 223.63 200.22 C189.56 200.45 189.56 200.45 174 197 C173.05 196.8 172.11 196.59 171.13 196.38 C130.52 187.44 95.03 168.73 65 140 C64.45 139.48 63.9 138.96 63.33 138.43 C27.61 104.7 4.02 56.06 0 7 C-0.03 4.67 -0.03 2.33 0 0 Z " fill="#668233" transform="translate(1,231)"/>
<path d="M0 0 C0.73 -0 1.46 -0 2.21 -0 C42.32 0.06 82.6 11.68 115.31 35.25 C116.62 36.18 117.92 37.11 119.23 38.04 C120.24 38.77 121.26 39.5 122.31 40.25 C120.85 44.58 118.65 47.63 115.81 51.19 C112.2 55.78 108.69 60.42 105.31 65.19 C104.91 65.76 104.5 66.33 104.09 66.92 C103.26 68.08 102.43 69.25 101.61 70.42 C99.31 73.66 97 76.89 94.69 80.12 C93.84 81.31 92.99 82.49 92.15 83.68 C91.54 84.53 90.94 85.38 90.31 86.25 C85.98 84.76 82.52 82.43 78.81 79.81 C49.65 59.92 13.93 47.24 -21.59 53.84 C-32.71 56.14 -43.46 60.48 -50.56 69.69 C-54.14 75.16 -55.24 80.77 -54.69 87.25 C-53.06 94.81 -50.85 100.2 -44.38 104.75 C-35.68 109.84 -25.7 112.2 -15.89 114.12 C-15.04 114.29 -14.19 114.46 -13.32 114.64 C-0.11 117.2 13.19 119.18 26.48 121.25 C54.71 125.65 83.16 130.8 105.31 150.25 C106.47 151.25 106.47 151.25 107.66 152.27 C120.22 163.87 127.47 181.43 128.44 198.42 C129.25 221.98 124.88 243.38 108.81 261.5 C107.32 263.09 105.82 264.67 104.31 266.25 C103.77 266.86 103.23 267.48 102.68 268.11 C80.44 292.48 42.25 298.88 11.01 300.36 C-39.67 302.19 -86.48 282.54 -124.69 250.25 C-123.26 245.99 -121.18 243.19 -118.25 239.81 C-117.34 238.75 -116.44 237.69 -115.53 236.62 C-115.06 236.07 -114.59 235.52 -114.11 234.95 C-111.76 232.14 -109.5 229.26 -107.25 226.38 C-106.8 225.8 -106.35 225.23 -105.89 224.63 C-104.97 223.45 -104.05 222.27 -103.13 221.09 C-100.59 217.85 -98.05 214.61 -95.5 211.38 C-94.57 210.19 -93.64 209.01 -92.71 207.82 C-92.04 206.97 -91.37 206.12 -90.69 205.25 C-86.26 206.68 -83.32 209.12 -79.94 212.19 C-64.24 225.89 -45.55 236.05 -25.69 242.25 C-24.27 242.69 -24.27 242.69 -22.82 243.15 C-0.51 249.4 29.23 250.42 50.04 238.79 C57.38 233.84 64.45 228.27 66.31 219.25 C67.31 209.88 67.39 201.01 61.31 193.25 C46.17 176.6 15.84 176.18 -5.04 172.68 C-9.54 171.92 -14.03 171.15 -18.51 170.38 C-21.78 169.83 -25.06 169.29 -28.33 168.76 C-55.75 164.16 -84.46 155.79 -101.69 132.25 C-113.84 112.19 -117.21 88.72 -111.79 65.83 C-108.12 53.87 -102.9 43.79 -94.69 34.25 C-94.01 33.46 -93.34 32.67 -92.64 31.86 C-75.14 13.01 -49.44 4.82 -24.69 1.25 C-24.04 1.15 -23.39 1.06 -22.72 0.96 C-15.18 -0.04 -7.59 0.01 0 0 Z " fill="#034158" transform="translate(772.6875,68.75)"/>
<path d="M0 0 C-0.61 3.1 -1.58 5.12 -3.45 7.66 C-4.22 8.71 -4.22 8.71 -5 9.79 C-5.56 10.54 -6.11 11.29 -6.69 12.06 C-7.55 13.24 -7.55 13.24 -8.42 14.43 C-9.64 16.1 -10.87 17.76 -12.09 19.42 C-14.01 22.02 -15.93 24.63 -17.84 27.23 C-28.06 41.17 -28.06 41.17 -32 46 C-35.78 44.66 -38.54 42.97 -41.69 40.5 C-69.15 20.19 -105.39 7.8 -139.64 12.82 C-150.79 14.69 -163.42 17.93 -170.72 27.18 C-175.74 34.41 -176.81 40.21 -176 49 C-174.56 55.07 -172.2 59.91 -167.16 63.7 C-154.5 71.33 -139.09 74.08 -124.68 76.28 C-122.57 76.6 -120.47 76.93 -118.37 77.27 C-112.4 78.21 -106.43 79.14 -100.46 80.07 C-28 91.3 -28 91.3 -6.19 120.81 C3.07 135.02 6.58 149.48 6.44 166.31 C6.43 168.22 6.43 168.22 6.41 170.17 C6.03 191.31 -1.43 207.95 -15 224 C-15.56 224.67 -16.12 225.33 -16.7 226.02 C-38.37 249.43 -73.76 258.21 -104.46 259.87 C-105.63 259.91 -106.8 259.96 -108 260 C-109.95 260.08 -109.95 260.08 -111.95 260.16 C-161.58 261.51 -209.07 242.64 -246 210 C-245.41 206.93 -244.53 205.09 -242.52 202.71 C-241.74 201.77 -241.74 201.77 -240.95 200.82 C-240.39 200.16 -239.83 199.5 -239.25 198.81 C-233.85 192.31 -228.65 185.7 -223.58 178.94 C-219.93 174.1 -216.05 169.52 -212 165 C-208.69 166.55 -206.09 168.49 -203.28 170.83 C-184.54 186.5 -163.73 198.07 -140 204 C-139.06 204.23 -138.12 204.47 -137.16 204.71 C-116.12 209.19 -88.75 208.84 -69.96 197.34 C-62.96 192.56 -58.03 187.35 -55.39 179.08 C-53.8 170.57 -54.64 162.51 -59 155 C-65.61 145.5 -77.23 142.2 -87.96 139.66 C-89.3 139.34 -89.3 139.34 -90.67 139.02 C-105.7 135.58 -121.01 133.34 -136.23 130.88 C-167.93 125.73 -200.27 120.09 -222 94 C-235.25 75.27 -238.25 52.5 -234.43 30.18 C-230.49 10.35 -218.76 -7.62 -202 -19 C-186.55 -28.77 -170.88 -34.44 -153 -38 C-151.13 -38.37 -151.13 -38.37 -149.22 -38.75 C-98.84 -46.71 -39.39 -33.2 0 0 Z " fill="#034158" transform="translate(1500,109)"/>
<path d="M0 0 C20.46 0 40.92 0 62 0 C62 96.36 62 192.72 62 292 C41.54 292 21.08 292 0 292 C0 195.64 0 99.28 0 0 Z " fill="#034158" transform="translate(528,73)"/>
<path d="M0 0 C11.05 -1.06 11.05 -1.06 15.01 1.74 C16.77 3.95 17.99 6.12 19.23 8.66 C19.95 9.95 19.95 9.95 20.68 11.28 C21.66 13.05 22.61 14.84 23.53 16.64 C24.74 18.98 26 21.26 27.32 23.53 C37.82 41.94 44.13 62.43 49.02 82.96 C49.27 83.97 49.27 83.97 49.51 85.01 C49.94 87.76 49.91 90.44 49.86 93.22 C41.22 93.33 32.66 93.03 24.05 92.47 C23.39 92.43 22.74 92.39 22.06 92.34 C3.94 91.15 -14.1 89.21 -32.14 87.22 C-33.46 87.08 -33.46 87.08 -34.81 86.93 C-65.74 83.52 -96.53 79.45 -127.27 74.53 C-128.53 74.33 -129.8 74.13 -131.11 73.92 C-132.3 73.73 -133.49 73.53 -134.71 73.33 C-135.74 73.17 -136.77 73 -137.83 72.83 C-140.41 72.36 -142.93 71.82 -145.49 71.23 C-149.98 70.22 -154.48 69.55 -159.05 68.92 C-171.67 67.1 -184.14 64.56 -196.64 62.03 C-197.83 61.79 -199.03 61.55 -200.26 61.3 C-214.92 58.35 -229.58 55.36 -244.19 52.17 C-245.73 51.83 -247.28 51.49 -248.82 51.16 C-250.92 50.71 -253.01 50.25 -255.1 49.78 C-256.83 49.4 -256.83 49.4 -258.59 49.01 C-259.43 48.75 -260.27 48.49 -261.14 48.22 C-261.47 47.56 -261.8 46.9 -262.14 46.22 C-237.69 40.06 -213.1 34.73 -188.39 29.68 C-185.35 29.06 -182.3 28.42 -179.25 27.79 C-164.49 24.74 -149.65 22.17 -134.79 19.63 C-133.95 19.49 -133.11 19.34 -132.24 19.19 C-130.66 18.92 -129.09 18.65 -127.51 18.39 C-124.03 17.79 -120.61 17.11 -117.2 16.21 C-112.71 15.05 -108.18 14.42 -103.59 13.81 C-101.72 13.55 -99.85 13.29 -97.98 13.03 C-97.02 12.9 -96.05 12.76 -95.06 12.63 C-90.31 11.97 -85.56 11.27 -80.81 10.57 C-61.6 7.78 -42.39 5.02 -23.13 2.61 C-21.41 2.4 -19.7 2.18 -18 1.96 C-12 1.19 -6.01 0.62 0 0 Z " fill="#034158" transform="translate(379.14031982421875,88.77926635742188)"/>
<path d="M0 0 C-0.6 5.28 -2.33 9.58 -4.5 14.38 C-4.86 15.16 -5.21 15.95 -5.58 16.77 C-13.73 34.48 -24.3 50.8 -37 65.61 C-39.03 67.96 -39.03 67.96 -40.72 70.52 C-42.37 72.81 -43.69 74.38 -46 76 C-48.26 76 -48.26 76 -50.84 75.43 C-51.81 75.22 -52.79 75 -53.79 74.79 C-54.85 74.53 -55.91 74.27 -57 74 C-58.1 73.73 -59.2 73.46 -60.34 73.19 C-63.98 72.26 -67.62 71.29 -71.25 70.31 C-71.9 70.14 -72.56 69.96 -73.23 69.78 C-82.74 67.23 -92.17 64.5 -101.57 61.58 C-109.63 59.08 -117.74 56.8 -125.88 54.57 C-142.92 49.88 -159.67 44.2 -176.44 38.62 C-177.62 38.23 -178.8 37.84 -180.01 37.44 C-202.17 30.05 -224.14 22.23 -246 14 C-246.64 13.76 -247.27 13.52 -247.93 13.27 C-254.3 10.88 -260.66 8.46 -267 6 C-267 5.67 -267 5.34 -267 5 C-251.1 3.14 -235.16 2.01 -219.19 1 C-218.17 0.94 -218.17 0.94 -217.13 0.87 C-59.31 -9.09 -59.31 -9.09 0 0 Z " fill="#2DA1B3" transform="translate(418,290)"/>
<path d="M0 0 C5.87 1.71 11.16 4.44 16.62 7.12 C59.32 27.84 103.47 46.6 148 63 C148 63.66 148 64.32 148 65 C147.23 65.07 146.46 65.14 145.67 65.21 C135.77 66.11 125.89 67.05 116 68 C115.27 68.07 114.53 68.14 113.77 68.21 C90.1 70.48 66.55 73.44 43 76.71 C41.91 76.86 40.82 77.02 39.69 77.17 C37.64 77.46 35.58 77.74 33.52 78.03 C32.6 78.16 31.69 78.29 30.74 78.42 C29.54 78.59 29.54 78.59 28.32 78.76 C25.86 79.01 23.47 79.04 21 79 C8.17 55.8 -0.37 26.65 0 0 Z " fill="#044258" transform="translate(1,231)"/>
<path d="M0 0 C-2.68 12.6 -5.57 24.89 -10 37 C-11.17 36.85 -12.34 36.69 -13.54 36.53 C-87.15 27.37 -165.55 33.68 -239.23 38.68 C-240.51 38.77 -241.79 38.85 -243.12 38.94 C-245.51 39.11 -247.9 39.27 -250.3 39.44 C-251.36 39.51 -252.42 39.59 -253.52 39.66 C-254.44 39.73 -255.36 39.79 -256.3 39.86 C-259.21 40.01 -262.09 40.02 -265 40 C-261.82 37.88 -259.78 37.38 -256.07 36.63 C-254.85 36.38 -253.62 36.13 -252.36 35.87 C-251.02 35.6 -249.68 35.33 -248.34 35.07 C-246.95 34.79 -245.56 34.5 -244.18 34.22 C-241.26 33.63 -238.34 33.04 -235.42 32.46 C-231.73 31.72 -228.04 30.98 -224.35 30.23 C-210.84 27.48 -197.33 24.75 -183.7 22.59 C-180.1 22.02 -176.51 21.38 -172.93 20.72 C-161.09 18.54 -149.29 16.48 -137.34 15.08 C-132.64 14.51 -127.98 13.83 -123.32 13.01 C-110.81 10.82 -98.21 9.39 -85.6 7.95 C-81.73 7.51 -77.87 7.06 -74 6.61 C-61.06 5.11 -48.12 3.67 -35.17 2.32 C-33.39 2.14 -33.39 2.14 -31.58 1.95 C-21.07 0.87 -10.57 -0.08 0 0 Z " fill="#FDFEFE" transform="translate(429,254)"/>
<path d="M0 0 C5.24 0.77 10.31 2.01 15.44 3.31 C16.24 3.51 17.04 3.71 17.87 3.92 C22.84 5.17 27.8 6.48 32.76 7.81 C42.96 10.54 53.2 13.14 63.44 15.75 C65.44 16.26 67.44 16.77 69.45 17.29 C74.3 18.52 79.15 19.76 84 21 C83.5 22.49 83.5 22.49 83 24 C80.63 24.92 80.63 24.92 77.42 25.69 C76.22 25.99 75.01 26.29 73.77 26.6 C72.79 26.83 72.79 26.83 71.79 27.07 C69.01 27.74 66.23 28.44 63.45 29.13 C61.96 29.5 60.48 29.87 58.99 30.24 C50.22 32.43 41.48 34.77 32.75 37.12 C31.56 37.44 31.56 37.44 30.35 37.77 C20.06 40.55 9.85 43.51 -0.29 46.81 C-14.72 51.43 -14.72 51.43 -19 50 C-14.17 32.81 -8.61 15.73 0 0 Z " fill="#FDFEFE" transform="translate(25,114)"/>
<path d="M0 0 C4.81 -0.08 9.61 -0.16 14.56 -0.25 C16.06 -0.29 17.57 -0.32 19.12 -0.36 C31.42 -0.46 31.42 -0.46 37 4 C40.44 8.01 41.29 12.81 41 18 C39.76 22.03 37.96 25.07 34.94 28 C33 29 33 29 30 29 C30.33 29.66 30.67 30.31 31.01 30.99 C32.51 33.95 34.01 36.91 35.5 39.88 C36.02 40.91 36.55 41.94 37.09 43 C37.59 43.99 38.08 44.98 38.59 45.99 C39.05 46.9 39.52 47.81 39.99 48.75 C41 51 41 51 41 53 C38.36 53 35.72 53 33 53 C31.33 49.71 29.66 46.42 28 43.12 C27.52 42.19 27.05 41.25 26.55 40.29 C25.88 38.94 25.88 38.94 25.19 37.57 C24.77 36.74 24.35 35.92 23.92 35.06 C23 33 23 33 23 31 C17.72 31 12.44 31 7 31 C7 38.26 7 45.52 7 53 C4.69 53 2.38 53 0 53 C0 35.51 0 18.02 0 0 Z M7 6 C7 12.27 7 18.54 7 25 C11.27 25.09 11.27 25.09 15.62 25.19 C16.51 25.21 17.4 25.24 18.31 25.27 C23.3 25.32 26.68 24.78 31 22 C33.42 19.11 34.01 17.71 33.94 13.94 C32.87 10.6 31.68 9.2 29 7 C26.6 5.8 25.11 5.89 22.43 5.9 C21.09 5.91 21.09 5.91 19.71 5.91 C18.78 5.92 17.84 5.93 16.88 5.94 C15.46 5.94 15.46 5.94 14.01 5.95 C11.67 5.96 9.34 5.98 7 6 Z " fill="#034158" transform="translate(528,531)"/>
<path d="M0 0 C0.33 -0.33 0.66 -0.66 1 -1 C3.33 -1.04 5.67 -1.04 8 -1 C8.1 4.98 8.17 10.95 8.22 16.93 C8.24 18.96 8.27 20.99 8.3 23.02 C8.35 25.95 8.37 28.88 8.39 31.81 C8.41 32.71 8.43 33.61 8.45 34.54 C8.46 40.45 7.5 45.12 4 50 C-2.08 54.26 -8.87 53.63 -16 53 C-18.93 52.26 -21.26 51.31 -24 50 C-23.67 48.35 -23.34 46.7 -23 45 C-19.28 43.76 -18.52 44.56 -15 46 C-10.14 46.59 -5.61 46.94 -1.31 44.44 C0.44 41.18 0.28 38.64 0 35 C-0.53 35.24 -1.07 35.48 -1.62 35.73 C-7.83 38.2 -12.73 38.57 -19 36 C-24.86 32.08 -28.33 28.28 -29.75 21.31 C-30.39 14.85 -29.36 9.25 -25.25 4.12 C-18.26 -3.1 -9.07 -4.11 0 0 Z M-20 8 C-22.92 12.38 -23.56 15.78 -23 21 C-21.27 25.65 -19.24 28.4 -15 31 C-9.21 32.61 -6.12 31.71 -1 29 C2.22 25.78 1.37 21.94 1.38 17.56 C1.4 16.69 1.42 15.82 1.45 14.92 C1.61 9.99 1.61 9.99 -0.84 5.96 C-8.03 2.76 -14 2.7 -20 8 Z " fill="#034158" transform="translate(892,547)"/>
<path d="M0 0 C0.99 0.66 1.98 1.32 3 2 C2.75 3.88 2.75 3.88 2 6 C0.23 7.28 0.23 7.28 -2 8 C-4.16 7.1 -4.16 7.1 -6.5 5.62 C-12.32 2.48 -17.48 1.98 -24 3 C-27.35 4.29 -27.35 4.29 -29 7 C-29.83 10.54 -29.83 10.54 -29 14 C-24.19 17.94 -17.98 18.35 -12.04 19.37 C-5.9 20.53 -1.56 22.3 2.85 26.95 C5 30.78 4.58 34.75 4 39 C2.66 43.23 0.34 46.07 -3.44 48.38 C-11.37 52 -19.53 52.05 -27.71 49.07 C-31.78 47.17 -35.39 44.64 -39 42 C-38.75 40.12 -38.75 40.12 -38 38 C-35.94 36.75 -35.94 36.75 -34 36 C-33.5 36.41 -33.01 36.82 -32.5 37.24 C-26.72 41.82 -21.93 44.39 -14.38 43.81 C-10.67 43.28 -7.99 42.34 -5 40 C-3.46 36.92 -3.7 34.39 -4 31 C-6.77 28.33 -9.27 27.49 -12.99 26.79 C-14.42 26.5 -14.42 26.5 -15.88 26.2 C-17.87 25.82 -19.86 25.44 -21.85 25.07 C-27.94 23.82 -31.66 22.52 -36 18 C-37.86 14.28 -37.43 10.06 -37 6 C-34.94 1.36 -32.17 -1.27 -27.6 -3.3 C-18.18 -5.83 -8.5 -4.66 0 0 Z " fill="#034158" transform="translate(1074,444)"/>
<path d="M0 0 C0.99 0.66 1.98 1.32 3 2 C2.67 3.65 2.34 5.3 2 7 C-0.41 7.85 -1.6 8.15 -4.04 7.26 C-4.7 6.88 -5.37 6.51 -6.06 6.12 C-11.78 2.98 -16.53 2.45 -23 3 C-26.11 3.83 -26.11 3.83 -28 6 C-29.08 9.46 -29.08 9.46 -29 13 C-27.36 16.12 -27.36 16.12 -24.85 16.74 C-23.98 16.9 -23.1 17.07 -22.2 17.25 C-21.24 17.44 -20.29 17.64 -19.3 17.85 C-17.28 18.24 -15.27 18.63 -13.25 19.02 C-6.48 20.41 -2.06 21.86 2.84 26.89 C5.24 31.27 4.76 36.19 4 41 C1.93 45.34 -1.3 47.96 -5.62 49.94 C-13.77 52.43 -22.02 51.75 -29.73 48.29 C-33.28 46.27 -36.05 43.82 -39 41 C-36.53 38.52 -36.53 38.52 -34 36 C-33.49 36.41 -32.98 36.82 -32.46 37.24 C-26.55 41.87 -21.6 44.48 -13.96 44.25 C-9.59 43.69 -6.83 41.96 -4 38.69 C-2.76 35.98 -2.76 35.98 -3.38 32.88 C-5.49 29.14 -8.09 28.28 -12 27 C-15.35 26.23 -18.73 25.75 -22.13 25.27 C-27.96 24.32 -32.13 22.31 -35.88 17.69 C-37.81 13.07 -37.54 9.46 -35.81 4.81 C-27.72 -7.74 -11.87 -5.66 0 0 Z " fill="#034158" transform="translate(1098,534)"/>
<path d="M0 0 C0 18.15 0 36.3 0 55 C-1.98 55 -3.96 55 -6 55 C-6.33 54.34 -6.66 53.68 -7 53 C-7.99 53.5 -8.98 53.99 -10 54.5 C-14.76 56.5 -19.15 56.9 -24.07 55.34 C-29.25 53.06 -32.86 49.69 -36 45 C-38.04 38.88 -38.09 31.51 -35.44 25.56 C-32.58 20.66 -28.31 17.77 -23 16 C-20.77 15.8 -20.77 15.8 -18.25 15.75 C-17.43 15.72 -16.61 15.7 -15.77 15.67 C-13 16 -13 16 -6 19 C-6 13.06 -6 7.12 -6 1 C-1 0 -1 0 0 0 Z M-28.25 27.19 C-30.45 30.73 -31.2 33.88 -31 38 C-29.46 43.14 -27.72 46.33 -23 49 C-18.39 50.23 -15.05 50.4 -10.56 48.69 C-7.97 47.1 -7.97 47.1 -6 45 C-5.5 42.06 -5.58 39.1 -5.56 36.12 C-5.53 35.31 -5.5 34.49 -5.46 33.65 C-5.39 28.53 -5.39 28.53 -8.4 24.49 C-16 20.13 -22.07 21.18 -28.25 27.19 Z " fill="#034158" transform="translate(661,529)"/>
<path d="M0 0 C4.95 2.78 7.45 5.89 9.59 11.11 C10.09 16.06 10.09 16.06 10.59 21.11 C0.36 21.11 -9.87 21.11 -20.41 21.11 C-17.45 27.33 -17.45 27.33 -12.41 31.11 C-5.99 32.69 -2.39 31.78 3.59 29.11 C4.91 30.76 6.23 32.41 7.59 34.11 C1.28 37.88 -2.87 39.72 -10.41 39.11 C-17.14 37.27 -21.62 35.03 -25.41 29.11 C-28.08 23.38 -28.49 17.51 -26.57 11.49 C-24.3 6.37 -21.8 2.55 -16.78 -0.11 C-11.24 -1.93 -5.49 -2.02 0 0 Z M-19.41 11.11 C-19.74 12.43 -20.07 13.75 -20.41 15.11 C-12.49 15.11 -4.57 15.11 3.59 15.11 C0.66 8.88 0.66 8.88 -4.41 5.11 C-11.15 4.02 -15.13 5.7 -19.41 11.11 Z " fill="#034158" transform="translate(1145.40625,455.88671875)"/>
<path d="M0 0 C4.91 2.32 7.81 5.72 11 10 C12 13 12 13 12 22 C2.1 22 -7.8 22 -18 22 C-15.05 28.22 -15.05 28.22 -10 32 C-3.58 33.58 0.02 32.67 6 30 C7.32 31.65 8.64 33.3 10 35 C3.65 38.79 -0.43 40.5 -8 40 C-14.17 38.41 -19.03 35.82 -22.75 30.5 C-25.58 24.83 -25.91 18.76 -24.42 12.62 C-22.42 7.24 -19.57 3.96 -14.64 1.04 C-9.77 -0.88 -5.11 -0.85 0 0 Z M-15 9 C-17.36 12.21 -17.36 12.21 -18 16 C-10.08 16 -2.16 16 6 16 C3.07 9.77 3.07 9.77 -2 6 C-7.02 5.09 -11 5.68 -15 9 Z " fill="#034158" transform="translate(1221,455)"/>
<path d="M0 0 C4.91 2.32 7.81 5.72 11 10 C12 13 12 13 12 22 C2.1 22 -7.8 22 -18 22 C-15.05 28.22 -15.05 28.22 -10 32 C-3.58 33.58 0.02 32.67 6 30 C7.32 31.65 8.64 33.3 10 35 C3.65 38.79 -0.43 40.5 -8 40 C-14.17 38.41 -19.03 35.82 -22.75 30.5 C-25.58 24.83 -25.91 18.76 -24.42 12.62 C-22.42 7.24 -19.57 3.96 -14.64 1.04 C-9.77 -0.88 -5.11 -0.85 0 0 Z M-15 9 C-17.36 12.21 -17.36 12.21 -18 16 C-10.08 16 -2.16 16 6 16 C3.07 9.77 3.07 9.77 -2 6 C-7.02 5.09 -11 5.68 -15 9 Z " fill="#034158" transform="translate(651,455)"/>
<path d="M0 0 C5.04 2.95 8.32 6.5 10.46 12.03 C10.82 15.03 10.71 18.07 10.71 21.09 C0.81 21.42 -9.09 21.75 -19.29 22.09 C-16.08 28.63 -16.08 28.63 -10.29 32.09 C-5.79 32.79 -2.3 32.24 1.71 30.09 C3.83 30.22 3.83 30.22 5.71 31.09 C6.82 33.15 6.82 33.15 7.71 35.09 C0.63 38.4 -5.69 40.83 -13.42 38.43 C-18.57 36.18 -22.17 32.75 -25.29 28.09 C-27.21 22.34 -27.48 15.35 -25.39 9.6 C-20.14 0.69 -9.95 -3.93 0 0 Z M-17.29 9.09 C-18.28 11.4 -19.27 13.71 -20.29 16.09 C-12.37 16.09 -4.45 16.09 3.71 16.09 C2.63 10.69 1.69 9.59 -2.29 6.09 C-7.93 3.28 -12.86 5.17 -17.29 9.09 Z " fill="#034158" transform="translate(1255.29296875,545.90625)"/>
<path d="M0 0 C5.04 2.95 8.32 6.5 10.46 12.03 C10.82 15.03 10.71 18.07 10.71 21.09 C0.81 21.42 -9.09 21.75 -19.29 22.09 C-16.08 28.63 -16.08 28.63 -10.29 32.09 C-5.79 32.79 -2.3 32.24 1.71 30.09 C3.83 30.22 3.83 30.22 5.71 31.09 C6.82 33.15 6.82 33.15 7.71 35.09 C0.63 38.4 -5.69 40.83 -13.42 38.43 C-18.57 36.18 -22.17 32.75 -25.29 28.09 C-27.21 22.34 -27.48 15.35 -25.39 9.6 C-20.14 0.69 -9.95 -3.93 0 0 Z M-17.29 9.09 C-18.28 11.4 -19.27 13.71 -20.29 16.09 C-12.37 16.09 -4.45 16.09 3.71 16.09 C2.63 10.69 1.69 9.59 -2.29 6.09 C-7.93 3.28 -12.86 5.17 -17.29 9.09 Z " fill="#034158" transform="translate(939.29296875,545.90625)"/>
<path d="M0 0 C5.29 3.9 9.28 8.36 10.62 14.94 C11.19 22.02 9.82 26.71 5.75 32.69 C1.31 37.39 -2.81 38.72 -9.06 39.25 C-15.13 39.16 -20.37 36.84 -24.75 32.69 C-28.53 26.29 -30.5 20.48 -28.98 12.97 C-27.21 6.99 -23.41 3.44 -18.38 -0.06 C-12.53 -2.01 -5.85 -1.84 0 0 Z M-21.25 11.12 C-22.85 15.14 -23.06 18.68 -22.38 22.94 C-20.36 26.81 -18.25 29.84 -14.38 31.94 C-10.34 32.98 -8.12 33.21 -4.19 31.75 C-0.31 29.25 2.15 27.37 3.62 22.94 C4.17 18.25 4.07 14.83 1.94 10.56 C-1.66 6.47 -3.84 5.11 -9.31 4.5 C-14.61 4.72 -17.85 7.16 -21.25 11.12 Z " fill="#034158" transform="translate(880.375,456.0625)"/>
<path d="M0 0 C2.79 2.23 3.64 3.01 4.81 6.25 C5.04 9.55 5.04 9.55 5.01 13.42 C5 14.1 5 14.79 5 15.49 C4.99 17.66 4.96 19.83 4.94 22 C4.93 23.48 4.92 24.95 4.91 26.43 C4.89 30.03 4.85 33.64 4.81 37.25 C2.83 37.25 0.85 37.25 -1.19 37.25 C-1.52 36.59 -1.85 35.93 -2.19 35.25 C-2.97 35.75 -3.75 36.24 -4.56 36.75 C-9.76 38.9 -14.95 39.46 -20.32 37.45 C-23.46 35.75 -25.19 34.24 -27.19 31.25 C-27.73 27.86 -27.72 24.64 -27.19 21.25 C-24.36 17.37 -21.66 15.74 -17.19 14.25 C-14.47 13.98 -14.47 13.98 -11.69 14 C-10.77 13.99 -9.85 13.99 -8.91 13.98 C-6.01 14.27 -3.82 15.05 -1.19 16.25 C-1.44 14.79 -1.72 13.33 -2 11.88 C-2.15 11.06 -2.3 10.25 -2.46 9.41 C-3.06 6.89 -3.06 6.89 -6.19 5.25 C-12.15 4.54 -17.55 5.29 -23.19 7.25 C-25.19 4.25 -25.19 4.25 -25.19 1.25 C-17.52 -2.36 -7.84 -4.15 0 0 Z M-20.19 22.25 C-21.43 25.15 -21.43 25.15 -21.19 28.25 C-19.21 31.18 -17.75 32.08 -14.38 33.12 C-9.85 33.3 -6.08 32.47 -2.25 30 C-0.69 27.42 -0.99 25.19 -1.19 22.25 C-7.65 19.09 -14.16 16.93 -20.19 22.25 Z " fill="#034158" transform="translate(606.1875,546.75)"/>
<path d="M0 0 C4.95 2.9 8.33 6.65 10 12.19 C11.24 18.51 10.67 24.07 7.44 29.69 C4.38 34.14 0.75 36.67 -4.38 38.38 C-11.22 39.12 -16.72 38.47 -22.38 34.38 C-27.3 29.8 -29.44 25.2 -29.75 18.56 C-29.6 12.46 -27.9 8.01 -23.66 3.58 C-16.97 -2.38 -8.36 -3.84 0 0 Z M-21.25 10.5 C-22.94 14.82 -23.03 18.8 -22.38 23.38 C-20.6 27.14 -19.04 28.89 -15.69 31.31 C-11.29 32.72 -7.76 32.95 -3.38 31.38 C-0.33 28.83 1.86 25.91 3.62 22.38 C3.98 17.03 4.12 13.68 0.62 9.38 C-2.5 6.11 -4.83 4.06 -9.38 3.81 C-14.58 4.17 -17.85 6.65 -21.25 10.5 Z " fill="#034158" transform="translate(1142.375,546.625)"/>
<path d="M0 0 C4.93 2.88 7.75 6.31 10 11.62 C11.25 19.14 10.5 25.36 6.09 31.68 C2.71 35.59 -1.43 38.06 -6.57 38.61 C-13.48 38.82 -18.74 37.76 -23.91 32.95 C-28.64 27.61 -29.86 22.9 -29.68 15.93 C-28.86 9.07 -25.28 4.77 -20.06 0.5 C-14.47 -3.24 -5.92 -2.72 0 0 Z M-21.25 10.5 C-22.94 14.82 -23.03 18.8 -22.38 23.38 C-20.6 27.14 -19.04 28.89 -15.69 31.31 C-11.29 32.72 -7.76 32.95 -3.38 31.38 C-0.33 28.83 1.86 25.91 3.62 22.38 C4.17 15.95 3.43 12.62 -0.38 7.38 C-3.79 4.43 -6.87 3.84 -11.38 4.02 C-15.71 4.79 -18.43 7.3 -21.25 10.5 Z " fill="#034158" transform="translate(724.375,546.625)"/>
<path d="M0 0 C1.27 -0.03 2.54 -0.06 3.84 -0.09 C8.15 0.46 10.22 1.55 13.5 4.38 C15.62 8.43 15.73 11.89 15.7 16.43 C15.69 17.08 15.69 17.74 15.69 18.42 C15.68 20.51 15.65 22.6 15.62 24.69 C15.61 26.11 15.61 27.53 15.6 28.96 C15.58 32.43 15.54 35.9 15.5 39.38 C13.52 39.38 11.54 39.38 9.5 39.38 C9.17 38.72 8.84 38.06 8.5 37.38 C7.39 37.89 6.27 38.41 5.12 38.94 C-1.22 41.3 -6.9 40.54 -13 37.81 C-16.27 34.62 -17.39 31.94 -17.5 27.38 C-16.14 22.76 -14.75 19.77 -10.5 17.38 C-7.29 16.31 -4.93 16.24 -1.56 16.25 C-0.52 16.25 0.52 16.24 1.59 16.24 C4.08 16.36 6.13 16.66 8.5 17.38 C8.13 12.73 8.13 12.73 6.38 8.5 C2.61 6.24 -0.93 6.02 -5.18 6.99 C-7.64 7.73 -10.08 8.51 -12.5 9.38 C-14.5 6.38 -14.5 6.38 -14.5 4.31 C-13.5 2.38 -13.5 2.38 -10.91 1.28 C-7.16 0.28 -3.87 0.04 0 0 Z M-10.5 25.38 C-11.33 27.88 -11.33 27.88 -10.5 30.38 C-8.36 32.93 -6.68 34.16 -3.38 34.76 C0.74 34.96 3.27 34.48 7.06 32.75 C9.83 30.56 9.83 30.56 9.88 27.12 C9.75 26.22 9.63 25.31 9.5 24.38 C2.9 20.32 -5.05 18.87 -10.5 25.38 Z " fill="#034158" transform="translate(1343.5,454.625)"/>
<path d="M0 0 C2.65 2.22 3.51 3.07 4.66 6.22 C4.89 9.52 4.89 9.52 4.86 13.39 C4.85 14.08 4.85 14.76 4.85 15.46 C4.84 17.63 4.81 19.8 4.79 21.97 C4.78 23.45 4.77 24.92 4.76 26.4 C4.74 30.01 4.7 33.61 4.66 37.22 C2.68 37.22 0.7 37.22 -1.34 37.22 C-1.67 36.56 -2 35.9 -2.34 35.22 C-3.45 35.74 -4.57 36.25 -5.71 36.79 C-10.74 38.67 -15.15 38.4 -20.34 37.22 C-23.99 35.55 -25.1 34.59 -27.34 31.22 C-28.03 26.45 -28.03 22.46 -25.65 18.22 C-21.29 14.45 -17.38 13.96 -11.71 14.04 C-10.02 14.04 -10.02 14.04 -8.3 14.05 C-5.34 14.22 -5.34 14.22 -2.34 15.22 C-2.46 13.94 -2.59 12.67 -2.71 11.35 C-2.78 10.63 -2.85 9.91 -2.93 9.17 C-3.2 7 -3.2 7 -5.34 5.22 C-12.08 3.66 -16.91 4.89 -23.34 7.22 C-25.34 4.22 -25.34 4.22 -25.34 1.22 C-18.01 -3.07 -7.56 -4.03 0 0 Z M-19.46 21.41 C-21.57 24.02 -21.57 24.02 -21.4 26.85 C-20.05 29.86 -19.35 30.79 -16.34 32.22 C-11.58 32.96 -8.17 32.6 -3.78 30.6 C-1.01 28.41 -1.01 28.41 -0.96 24.97 C-1.09 24.07 -1.21 23.16 -1.34 22.22 C-7.44 18.47 -13.43 17.18 -19.46 21.41 Z " fill="#034158" transform="translate(976.33984375,456.77734375)"/>
<path d="M0 0 C5.23 3.21 8.72 6.94 10.29 12.94 C11.27 20.04 10.6 26.09 6.29 31.94 C1.95 36.71 -2.74 38.67 -9.09 39.25 C-15.88 38.67 -20.07 37.04 -24.65 31.88 C-29.75 25.65 -29.34 19.85 -28.71 11.94 C-27.1 6.5 -23.17 3.17 -18.71 -0.06 C-12.78 -2.04 -5.87 -2.29 0 0 Z M-21.59 11.75 C-23.32 16.66 -23.35 20.25 -21.53 25.13 C-19.18 28.77 -17.07 31.17 -12.86 32.55 C-9.04 33.29 -6.38 33.12 -2.9 31.32 C1.21 28.25 2.72 25.95 4.1 21.07 C4.37 16.44 3.81 12.9 0.91 9.16 C-2.25 6.05 -4.81 4.54 -9.28 4.32 C-14.98 4.74 -18.41 6.99 -21.59 11.75 Z " fill="#034158" transform="translate(1273.71484375,456.05859375)"/>
<path d="M0 0 C2.65 1.7 4.09 3.58 5.84 6.2 C6.01 8.67 6.07 11.03 6.03 13.5 C6.03 14.2 6.03 14.91 6.02 15.64 C6.01 17.89 5.99 20.14 5.96 22.39 C5.95 23.92 5.94 25.45 5.93 26.97 C5.91 30.72 5.88 34.46 5.84 38.2 C3.86 38.2 1.88 38.2 -0.16 38.2 C-0.16 37.54 -0.16 36.88 -0.16 36.2 C-1.34 36.7 -2.52 37.19 -3.73 37.7 C-9.17 39.72 -13.28 39.81 -18.85 38.02 C-22.46 36.04 -24.17 34.79 -26.16 31.2 C-26.87 27.24 -26.53 24.12 -25.04 20.39 C-22.49 17.41 -20.94 16.44 -17.16 15.2 C-11.76 14.84 -6.35 14.48 -1.16 16.2 C-0.95 13.08 -0.91 10.79 -2.16 7.89 C-5.22 5.31 -8.3 5.01 -12.16 5.2 C-15.59 5.97 -18.87 7.01 -22.16 8.2 C-22.82 6.22 -23.48 4.24 -24.16 2.2 C-16.88 -1.29 -7.8 -2.87 0 0 Z M-19.16 23.2 C-20.5 25.54 -20.5 25.54 -20.16 28.2 C-18.4 31.22 -18.4 31.22 -15.16 33.2 C-10.72 34.06 -7.24 33.72 -3.16 31.77 C-0.35 29.76 -0.35 29.76 0.21 26.33 C0.16 23.12 0.16 23.12 -2.1 21.33 C-7.91 19.19 -14.34 18.83 -19.16 23.2 Z " fill="#034158" transform="translate(779.1640625,455.796875)"/>
<path d="M0 0 C2.64 0 5.28 0 8 0 C11.63 8.91 15.26 17.82 19 27 C23.9 17.23 23.9 17.23 28.31 7.31 C30.9 1.1 30.9 1.1 32 0 C34.33 -0.04 36.67 -0.04 39 0 C36.52 8.23 33.07 15.98 29.58 23.82 C28.56 26.12 27.55 28.43 26.54 30.74 C25.88 32.22 25.22 33.71 24.57 35.2 C24.27 35.87 23.97 36.55 23.66 37.25 C17.58 50.9 17.58 50.9 12 54 C8.97 54.31 6.04 54.24 3 54 C3 52.02 3 50.04 3 48 C4.24 47.86 5.47 47.71 6.75 47.56 C9.46 46.88 10.67 46.43 12.39 44.19 C14.34 40.06 15.51 37.15 14.08 32.69 C13.45 31.21 12.8 29.74 12.11 28.28 C11.77 27.5 11.43 26.71 11.08 25.91 C10 23.42 8.88 20.96 7.75 18.5 C7.01 16.82 6.27 15.13 5.53 13.45 C4.18 10.38 2.82 7.32 1.44 4.28 C0 1 0 1 0 0 Z " fill="#034158" transform="translate(1308,546)"/>
<path d="M0 0 C2.64 0 5.28 0 8 0 C11.63 8.91 15.26 17.82 19 27 C22.18 20.64 25.17 14.44 27.81 7.88 C28.12 7.11 28.44 6.34 28.76 5.55 C29.51 3.7 30.25 1.85 31 0 C33.64 0 36.28 0 39 0 C35.46 9.53 31.57 18.87 27.49 28.18 C26.49 30.45 25.51 32.74 24.53 35.02 C23.88 36.49 23.24 37.96 22.59 39.43 C22.31 40.11 22.02 40.78 21.73 41.47 C19.58 46.3 16.91 51.55 12 54 C10.46 54.07 8.92 54.08 7.38 54.06 C6.15 54.05 6.15 54.05 4.9 54.04 C4.27 54.02 3.65 54.01 3 54 C3 52.02 3 50.04 3 48 C4.26 47.79 5.52 47.59 6.81 47.38 C10.2 46.52 10.83 46.22 13.06 43.31 C14.88 36.89 12.57 31.29 10.06 25.35 C9.63 24.3 9.63 24.3 9.19 23.24 C8.28 21.03 7.36 18.83 6.44 16.62 C5.51 14.4 4.59 12.18 3.68 9.95 C3.11 8.57 2.53 7.19 1.96 5.81 C0 1.11 0 1.11 0 0 Z " fill="#034158" transform="translate(992,546)"/>
<path d="M0 0 C2.31 0 4.62 0 7 0 C7 0.79 7.01 1.58 7.01 2.4 C7.05 6 7.12 9.59 7.19 13.19 C7.2 15.06 7.2 15.06 7.21 16.96 C7.08 24.21 7.08 24.21 10.33 30.33 C13.86 32.53 15.91 32.58 20 32 C22.76 31 22.76 31 25 29 C25.78 25.92 25.78 25.92 25.71 22.36 C25.74 21.06 25.77 19.77 25.79 18.43 C25.8 17.06 25.81 15.68 25.81 14.31 C25.84 12.93 25.86 11.55 25.89 10.16 C25.95 6.77 25.98 3.39 26 0 C28.31 0 30.62 0 33 0 C33 12.54 33 25.08 33 38 C30.69 38 28.38 38 26 38 C26 37.34 26 36.68 26 36 C25.2 36.5 24.39 36.99 23.56 37.5 C18.02 39.83 13.34 39.84 7.69 37.81 C4.17 35.44 1.89 32.79 0 29 C-0.09 26.82 -0.11 24.64 -0.1 22.46 C-0.09 21.16 -0.09 19.86 -0.09 18.52 C-0.08 17.14 -0.07 15.76 -0.06 14.38 C-0.06 12.99 -0.05 11.6 -0.05 10.21 C-0.04 6.81 -0.02 3.4 0 0 Z " fill="#034158" transform="translate(787,546)"/>
<path d="M0 0 C2.31 0 4.62 0 7 0 C7.33 0.66 7.66 1.32 8 2 C8.54 1.68 9.08 1.35 9.63 1.02 C12.53 -0.23 14.78 -0.3 17.94 -0.31 C18.96 -0.33 19.98 -0.35 21.03 -0.36 C25.62 0.2 29.06 2.47 32 6 C33.16 9.48 33.11 12.19 33.1 15.86 C33.1 16.52 33.09 17.18 33.09 17.86 C33.09 19.97 33.08 22.08 33.06 24.19 C33.06 25.62 33.05 27.05 33.05 28.48 C33.04 31.99 33.02 35.49 33 39 C31.02 39 29.04 39 27 39 C26.99 38.24 26.97 37.48 26.96 36.69 C26.88 33.23 26.78 29.77 26.69 26.31 C26.66 25.11 26.64 23.92 26.62 22.68 C26.58 21.52 26.55 20.37 26.51 19.18 C26.49 18.11 26.46 17.05 26.43 15.95 C25.94 12.6 25.04 10.69 23 8 C19.82 6.53 17.51 5.63 14.02 6.48 C10.32 7.94 10.32 7.94 8 11 C7.85 13.1 7.75 15.21 7.68 17.32 C7.64 18.58 7.6 19.83 7.56 21.13 C7.52 22.45 7.48 23.77 7.44 25.12 C7.39 26.46 7.35 27.8 7.31 29.14 C7.2 32.43 7.1 35.71 7 39 C4.69 39 2.38 39 0 39 C0 26.13 0 13.26 0 0 Z " fill="#034158" transform="translate(550,455)"/>
<path d="M0 0 C1.98 0 3.96 0 6 0 C6.33 0.99 6.66 1.98 7 3 C8.05 2.27 8.05 2.27 9.13 1.53 C13.92 -1.02 18.7 -0.63 24 0 C28.47 1.96 30.56 4.1 32.4 8.62 C33.77 14.08 33.3 19.85 33.19 25.44 C33.17 27.39 33.17 27.39 33.15 29.39 C33.11 32.59 33.06 35.8 33 39 C30.69 39 28.38 39 26 39 C25.99 38.17 25.98 37.35 25.97 36.49 C25.92 32.74 25.83 29 25.75 25.25 C25.74 23.95 25.72 22.65 25.71 21.3 C25.67 20.05 25.64 18.8 25.61 17.52 C25.59 16.36 25.57 15.21 25.55 14.02 C24.89 10.41 23.86 9.24 21 7 C17.4 5.54 16.03 5.99 12.31 7.31 C9.02 8.78 9.02 8.78 7 11 C6.63 13.91 6.63 13.91 6.59 17.32 C6.55 18.58 6.51 19.83 6.47 21.13 C6.42 23.11 6.42 23.11 6.38 25.12 C6.34 26.46 6.3 27.8 6.26 29.14 C6.16 32.43 6.08 35.71 6 39 C4.02 39 2.04 39 0 39 C0 26.13 0 13.26 0 0 Z " fill="#034158" transform="translate(708,455)"/>
<path d="M0 0 C1.07 0.66 2.14 1.32 3.25 2 C3.25 5 3.25 5 1.75 6.69 C1.25 7.12 0.76 7.55 0.25 8 C-0.39 7.7 -1.03 7.4 -1.69 7.09 C-7.23 4.65 -10.85 3.28 -16.75 5 C-17.41 5.66 -18.07 6.32 -18.75 7 C-18.43 9.6 -18.43 9.6 -17.75 12 C-16.89 12.18 -16.04 12.36 -15.15 12.55 C0.39 15.97 0.39 15.97 4.25 20.19 C5.6 24 5.51 27.21 4.25 31 C1.39 34.65 -1.23 36.9 -5.75 38 C-12.8 38.82 -19.7 37.96 -25.75 34 C-26.53 31.86 -26.53 31.86 -26.75 30 C-25.43 29.01 -24.11 28.02 -22.75 27 C-21.88 27.64 -21.02 28.28 -20.12 28.94 C-15.29 31.89 -12.46 32.39 -6.94 31.12 C-3.93 30.32 -3.93 30.32 -2.75 29 C-2.42 26.54 -2.42 26.54 -2.75 24 C-6.65 21.4 -10.58 21.04 -15.12 20.41 C-20.12 19.56 -22.67 18.01 -25.75 14 C-26.6 10.91 -26.36 8.13 -25.75 5 C-20.65 -3.88 -8.51 -4.28 0 0 Z " fill="#034158" transform="translate(770.75,547)"/>
<path d="M0 0 C1.98 0 3.96 0 6 0 C6 0.99 6 1.98 6 3 C6.69 2.52 7.39 2.03 8.1 1.54 C13.18 -1.15 18.41 -0.83 24 0 C27.15 1.44 29.2 3.03 31 6 C33.39 12.97 33.23 19.69 33.12 27 C33.12 28.16 33.11 29.31 33.1 30.5 C33.07 33.34 33.04 36.17 33 39 C30.69 39 28.38 39 26 39 C25.99 38.21 25.98 37.42 25.97 36.6 C25.92 33 25.83 29.41 25.75 25.81 C25.74 24.57 25.72 23.32 25.71 22.04 C25.67 20.84 25.64 19.63 25.61 18.39 C25.59 17.29 25.57 16.18 25.55 15.05 C24.88 11.35 23.6 9.66 21 7 C17.82 5.74 16.21 5.95 12.88 6.75 C10.04 7.98 8.81 8.56 7 11 C6.49 14 6.49 14 6.49 17.42 C6.44 19.3 6.44 19.3 6.38 21.22 C6.36 22.53 6.34 23.84 6.31 25.19 C6.28 26.52 6.24 27.86 6.21 29.19 C6.13 32.46 6.06 35.73 6 39 C4.02 39 2.04 39 0 39 C0 26.13 0 13.26 0 0 Z " fill="#034158" transform="translate(904,455)"/>
<path d="M0 0 C2.43 1.27 3.15 1.75 4.02 4.39 C4.12 5 4.21 5.62 4.31 6.25 C2.99 7.24 1.67 8.23 0.31 9.25 C-0.7 8.59 -1.71 7.93 -2.75 7.25 C-6.53 5.1 -9.31 4.68 -13.69 5.25 C-18.24 7.15 -20.46 9.89 -22.69 14.25 C-23.55 18.64 -23.03 21.55 -21.06 25.56 C-18.35 28.63 -16.58 29.98 -12.69 31.25 C-8.77 31.36 -5.56 30.79 -2.19 28.69 C-1.69 28.21 -1.2 27.74 -0.69 27.25 C1.25 28 1.25 28 3.31 29.25 C3.94 31.33 3.94 31.33 4.31 33.25 C-2.01 36.95 -7.27 39.52 -14.69 38.25 C-20.56 36.29 -25.02 33.81 -28.44 28.56 C-30.99 21.79 -31.33 16.13 -28.7 9.32 C-26.61 5.05 -24 2.21 -20.12 -0.62 C-13.5 -2.79 -6.42 -2.92 0 0 Z " fill="#034158" transform="translate(1193.6875,546.75)"/>
<path d="M0 0 C0.78 0.54 1.57 1.07 2.38 1.62 C3.37 2.29 4.36 2.94 5.38 3.62 C4.01 6.79 3.39 7.62 0.38 9.62 C-0.43 8.96 -1.23 8.31 -2.06 7.62 C-5.48 5.37 -8.38 4.98 -12.44 5.17 C-16.31 5.97 -17.97 7.71 -20.62 10.62 C-23.08 14.46 -22.85 18.09 -22.23 22.47 C-21.02 26.79 -17.99 28.75 -14.38 31.06 C-10.27 31.9 -6.55 31.01 -2.62 29.62 C-1.96 28.96 -1.31 28.31 -0.62 27.62 C0.37 27.62 1.36 27.62 2.38 27.62 C3.04 29.27 3.69 30.93 4.38 32.62 C-0.05 36.65 -4.03 38.57 -10.09 38.66 C-16.42 38.27 -20.55 36.82 -25.06 32.13 C-29.88 26.63 -30.03 22.01 -29.97 14.93 C-29.33 8.78 -26.41 5.28 -22 1.19 C-15.79 -2.9 -6.77 -2.57 0 0 Z " fill="#034158" transform="translate(1501.625,456.375)"/>
<path d="M0 0 C2.31 1.62 2.31 1.62 4.31 3.62 C4.12 5.62 4.12 5.62 3.31 7.62 C2.32 8.29 1.33 8.94 0.31 9.62 C-0.49 8.96 -1.3 8.31 -2.12 7.62 C-6.17 4.92 -9.98 5.06 -14.69 5.62 C-17.6 6.14 -17.6 6.14 -19.69 7.62 C-21 10.07 -21 10.07 -21.69 12.62 C-22.02 13.29 -22.35 13.94 -22.69 14.62 C-23.17 19.57 -22.67 22.98 -20.01 27.11 C-17.55 29.94 -15.29 30.74 -11.69 31.62 C-6.94 31.21 -2.88 29.85 1.31 27.62 C2.3 28.62 3.29 29.61 4.31 30.62 C3.36 33.13 2.41 34.54 0.38 36.31 C-5.37 38.77 -11.89 39.52 -17.94 37.69 C-22.63 35.61 -25.8 31.77 -28.69 27.62 C-30.56 22.02 -30.74 15.07 -29 9.39 C-23.17 -1.56 -11.19 -4.17 0 0 Z " fill="#034158" transform="translate(1401.6875,456.375)"/>
<path d="M0 0 C0 3.63 0 7.26 0 11 C3.63 11 7.26 11 11 11 C11 12.98 11 14.96 11 17 C7.37 17 3.74 17 0 17 C0.33 25.58 0.66 34.16 1 43 C7.32 44.07 7.32 44.07 11 44 C11 45.98 11 47.96 11 50 C6.12 51.63 1.77 51.81 -2.88 49.69 C-5 48 -5 48 -7 45 C-7.23 42.09 -7.23 42.09 -7.2 38.58 C-7.19 36.7 -7.19 36.7 -7.18 34.78 C-7.16 33.47 -7.14 32.16 -7.12 30.81 C-7.11 29.48 -7.11 28.14 -7.1 26.81 C-7.07 23.54 -7.04 20.27 -7 17 C-9.64 17 -12.28 17 -15 17 C-15 15.02 -15 13.04 -15 11 C-12.36 11 -9.72 11 -7 11 C-7 8.03 -7 5.06 -7 2 C-2.25 0 -2.25 0 0 0 Z " fill="#034158" transform="translate(1100,444)"/>
<path d="M0 0 C0 3.63 0 7.26 0 11 C3.63 11 7.26 11 11 11 C11 12.98 11 14.96 11 17 C7.37 17 3.74 17 0 17 C0.33 25.58 0.66 34.16 1 43 C7.32 44.07 7.32 44.07 11 44 C11 45.98 11 47.96 11 50 C6.14 51.62 1.79 51.78 -2.88 49.75 C-5.2 47.84 -5.93 46.78 -7 44 C-7.23 41.07 -7.23 41.07 -7.2 37.7 C-7.19 35.9 -7.19 35.9 -7.18 34.05 C-7.16 32.8 -7.14 31.54 -7.12 30.25 C-7.12 28.98 -7.11 27.71 -7.1 26.4 C-7.07 23.27 -7.04 20.13 -7 17 C-9.64 17 -12.28 17 -15 17 C-15 15.02 -15 13.04 -15 11 C-12.36 11 -9.72 11 -7 11 C-7 8.03 -7 5.06 -7 2 C-2.25 0 -2.25 0 0 0 Z " fill="#034158" transform="translate(1306,444)"/>
<path d="M0 0 C0 3.63 0 7.26 0 11 C3.63 11 7.26 11 11 11 C11 12.98 11 14.96 11 17 C7.37 17 3.74 17 0 17 C0.33 25.91 0.66 34.82 1 44 C4.3 44 7.6 44 11 44 C11 45.98 11 47.96 11 50 C6.24 51.59 2.41 51.51 -2.31 49.81 C-5.49 47.67 -5.9 46.6 -7 43 C-7.23 40.05 -7.23 40.05 -7.2 36.82 C-7.19 35.67 -7.18 34.51 -7.18 33.32 C-7.16 32.12 -7.14 30.92 -7.12 29.69 C-7.12 28.47 -7.11 27.25 -7.1 26 C-7.07 23 -7.04 20 -7 17 C-9.64 17 -12.28 17 -15 17 C-15 15.02 -15 13.04 -15 11 C-12.36 11 -9.72 11 -7 11 C-7 8.03 -7 5.06 -7 2 C-2.25 0 -2.25 0 0 0 Z " fill="#034158" transform="translate(810,444)"/>
<path d="M0 0 C0 3.63 0 7.26 0 11 C3.96 11 7.92 11 12 11 C12 12.98 12 14.96 12 17 C8.04 17 4.08 17 0 17 C0.11 21.13 0.24 25.25 0.38 29.38 C0.41 30.55 0.44 31.73 0.47 32.94 C0.51 34.06 0.55 35.18 0.59 36.34 C0.62 37.37 0.65 38.41 0.68 39.48 C0.76 42.17 0.76 42.17 3 44 C5.21 44.24 5.21 44.24 7.62 44.12 C8.44 44.11 9.26 44.09 10.1 44.07 C10.73 44.05 11.35 44.02 12 44 C12 45.98 12 47.96 12 50 C7.3 51.57 2.84 51.52 -1.88 50.19 C-4 49 -4 49 -6 46 C-6.23 43 -6.23 43 -6.2 39.36 C-6.19 37.42 -6.19 37.42 -6.18 35.43 C-6.16 34.06 -6.14 32.68 -6.12 31.31 C-6.11 29.93 -6.11 28.55 -6.1 27.16 C-6.07 23.77 -6.04 20.39 -6 17 C-8.64 17 -11.28 17 -14 17 C-14 15.02 -14 13.04 -14 11 C-11.36 11 -8.72 11 -6 11 C-6 8.03 -6 5.06 -6 2 C-1.12 0 -1.12 0 0 0 Z " fill="#034158" transform="translate(1430,444)"/>
<path d="M0 0 C0 3.63 0 7.26 0 11 C3.96 11 7.92 11 12 11 C12 12.98 12 14.96 12 17 C8.04 17 4.08 17 0 17 C0.11 20.94 0.24 24.88 0.38 28.81 C0.41 29.93 0.44 31.05 0.47 32.21 C0.51 33.28 0.55 34.35 0.59 35.46 C0.62 36.45 0.65 37.44 0.68 38.46 C0.84 41.24 0.84 41.24 3 44 C5.21 44.36 5.21 44.36 7.62 44.19 C8.85 44.15 8.85 44.15 10.1 44.11 C11.04 44.05 11.04 44.05 12 44 C12 45.98 12 47.96 12 50 C7.12 51.63 2.77 51.81 -1.88 49.69 C-4 48 -4 48 -6 45 C-6.23 42.09 -6.23 42.09 -6.2 38.58 C-6.19 36.7 -6.19 36.7 -6.18 34.78 C-6.16 33.47 -6.14 32.16 -6.12 30.81 C-6.11 29.48 -6.11 28.14 -6.1 26.81 C-6.07 23.54 -6.04 20.27 -6 17 C-8.64 17 -11.28 17 -14 17 C-14 15.02 -14 13.04 -14 11 C-11.36 11 -8.72 11 -6 11 C-6 8.03 -6 5.06 -6 2 C-1.12 0 -1.12 0 0 0 Z " fill="#034158" transform="translate(607,444)"/>
<path d="M0 0 C0 3.63 0 7.26 0 11 C3.96 11 7.92 11 12 11 C12 12.65 12 14.3 12 16 C8.04 16 4.08 16 0 16 C0.33 24.91 0.66 33.82 1 43 C4.3 43 7.6 43 11 43 C11.04 45 11.04 47 11 49 C9.36 50.64 7.5 50.21 5.25 50.25 C1.02 50.21 -1.66 49.8 -5 47 C-6.44 44.13 -6.11 41.66 -6.1 38.46 C-6.09 36.51 -6.09 36.51 -6.09 34.52 C-6.08 33.14 -6.07 31.76 -6.06 30.38 C-6.06 28.99 -6.05 27.6 -6.05 26.21 C-6.04 22.81 -6.02 19.4 -6 16 C-8.64 16 -11.28 16 -14 16 C-14 14.35 -14 12.7 -14 11 C-11.36 11 -8.72 11 -6 11 C-6 7.7 -6 4.4 -6 1 C-4 0 -4 0 0 0 Z " fill="#034158" transform="translate(1288,535)"/>
<path d="M0 0 C2.31 0 4.62 0 7 0 C7 17.82 7 35.64 7 54 C4.69 54 2.38 54 0 54 C0 36.18 0 18.36 0 0 Z " fill="#034158" transform="translate(528,440)"/>
<path d="M0 0 C2.31 0 4.62 0 7 0 C7.33 0.66 7.66 1.32 8 2 C8.99 1.34 9.98 0.68 11 0 C13.48 -0.2 13.48 -0.2 16.19 -0.12 C17.09 -0.11 17.99 -0.09 18.92 -0.07 C19.61 -0.05 20.29 -0.02 21 0 C21 1.98 21 3.96 21 6 C20.4 6.03 19.79 6.05 19.17 6.08 C18.37 6.13 17.57 6.19 16.75 6.25 C15.96 6.3 15.17 6.34 14.36 6.39 C11.17 7.21 10.05 8.43 8 11 C7.36 14.08 7.36 14.08 7.39 17.52 C7.36 18.77 7.33 20.02 7.29 21.3 C7.27 23.26 7.27 23.26 7.25 25.25 C7.22 26.57 7.19 27.88 7.16 29.24 C7.09 32.49 7.04 35.75 7 39 C4.69 39 2.38 39 0 39 C0 26.13 0 13.26 0 0 Z " fill="#034158" transform="translate(1168,455)"/>
<path d="M0 0 C2.31 0 4.62 0 7 0 C7.33 0.66 7.66 1.32 8 2 C8.99 1.34 9.98 0.68 11 0 C13.48 -0.2 13.48 -0.2 16.19 -0.12 C17.09 -0.11 17.99 -0.09 18.92 -0.07 C19.61 -0.05 20.29 -0.02 21 0 C21 1.98 21 3.96 21 6 C20.08 6.09 20.08 6.09 19.14 6.18 C18.33 6.27 17.52 6.35 16.69 6.44 C15.89 6.52 15.09 6.6 14.26 6.68 C11.84 6.95 11.84 6.95 9 8 C7.9 11.3 7.79 13.94 7.68 17.42 C7.64 18.67 7.6 19.93 7.56 21.22 C7.52 22.53 7.48 23.84 7.44 25.19 C7.39 26.52 7.35 27.86 7.31 29.19 C7.2 32.46 7.1 35.73 7 39 C4.69 39 2.38 39 0 39 C0 26.13 0 13.26 0 0 Z " fill="#034158" transform="translate(676,455)"/>
<path d="M0 0 C0 18.15 0 36.3 0 55 C-1.98 55 -3.96 55 -6 55 C-6 37.18 -6 19.36 -6 1 C-3 0 -3 0 0 0 Z " fill="#034158" transform="translate(1002,439)"/>
<path d="M0 0 C0 1.98 0 3.96 0 6 C-1.03 6.13 -1.03 6.13 -2.08 6.26 C-3.43 6.47 -3.43 6.47 -4.81 6.69 C-5.71 6.82 -6.6 6.94 -7.52 7.07 C-10.89 8.33 -11.44 9.8 -13 13 C-13.5 15.99 -13.5 15.99 -13.51 19.18 C-13.55 20.33 -13.58 21.49 -13.62 22.68 C-13.64 23.88 -13.66 25.08 -13.69 26.31 C-13.72 27.53 -13.76 28.75 -13.79 30 C-13.87 33 -13.94 36 -14 39 C-15.98 39 -17.96 39 -20 39 C-20 26.46 -20 13.92 -20 1 C-18.02 1 -16.04 1 -14 1 C-13.67 1.66 -13.34 2.32 -13 3 C-12.53 2.5 -12.05 2.01 -11.56 1.5 C-7.8 -0.7 -4.27 -0.25 0 0 Z " fill="#034158" transform="translate(855,545)"/>
<path d="M0 0 C0 1.98 0 3.96 0 6 C-0.69 6.1 -1.37 6.2 -2.08 6.3 C-2.98 6.45 -3.88 6.6 -4.81 6.75 C-5.71 6.89 -6.6 7.03 -7.52 7.17 C-10.65 8.22 -11.34 9.17 -13 12 C-13.5 14.99 -13.5 14.99 -13.51 18.3 C-13.56 20.1 -13.56 20.1 -13.62 21.95 C-13.64 23.2 -13.66 24.46 -13.69 25.75 C-13.72 27.02 -13.76 28.29 -13.79 29.6 C-13.87 32.73 -13.94 35.87 -14 39 C-15.98 39 -17.96 39 -20 39 C-20 26.46 -20 13.92 -20 1 C-18.02 1 -16.04 1 -14 1 C-13.67 1.66 -13.34 2.32 -13 3 C-12.53 2.5 -12.05 2.01 -11.56 1.5 C-7.8 -0.7 -4.27 -0.25 0 0 Z " fill="#034158" transform="translate(983,545)"/>
<path d="M0 0 C2.31 0 4.62 0 7 0 C7 12.87 7 25.74 7 39 C4.69 39 2.38 39 0 39 C0 26.13 0 13.26 0 0 Z " fill="#034158" transform="translate(832,455)"/>
<path d="M0 0 C2.31 0 4.62 0 7 0 C7 12.54 7 25.08 7 38 C4.69 38 2.38 38 0 38 C0 25.46 0 12.92 0 0 Z " fill="#034158" transform="translate(676,546)"/>
<path d="M0 0 C1.98 0 3.96 0 6 0 C6 12.87 6 25.74 6 39 C4.02 39 2.04 39 0 39 C0 26.13 0 13.26 0 0 Z " fill="#034158" transform="translate(1453,455)"/>
<path d="M0 0 C1.98 0 3.96 0 6 0 C6 12.54 6 25.08 6 38 C4.02 38 2.04 38 0 38 C0 25.46 0 12.92 0 0 Z " fill="#034158" transform="translate(1210,546)"/>
<path d="M0 0 C2.56 0.19 2.56 0.19 4.56 2.19 C4.01 6.74 4.01 6.74 2.56 8.19 C0.12 8.38 0.12 8.38 -2.44 8.19 C-3.1 7.53 -3.76 6.87 -4.44 6.19 C-3.72 0.29 -3.72 0.29 0 0 Z " fill="#034158" transform="translate(835.4375,440.8125)"/>
<path d="M0 0 C2.56 0.19 2.56 0.19 4.56 2.19 C4.75 4.75 4.75 4.75 4.56 7.19 C3.56 8.19 3.56 8.19 0.56 8.31 C-2.44 8.19 -2.44 8.19 -3.44 7.19 C-3.56 4.19 -3.56 4.19 -3.44 1.19 C-2.44 0.19 -2.44 0.19 0 0 Z " fill="#034158" transform="translate(1212.4375,530.8125)"/>
<path d="M0 0 C1.21 0.03 1.21 0.03 2.44 0.06 C3.56 2.38 3.56 2.38 4.44 5.06 C3.45 6.55 3.45 6.55 2.44 8.06 C-0.06 8.38 -0.06 8.38 -2.56 8.06 C-3.22 7.4 -3.88 6.74 -4.56 6.06 C-3.83 0.09 -3.83 0.09 0 0 Z " fill="#034158" transform="translate(679.5625,530.9375)"/>
<path d="M0 0 C3 0.12 3 0.12 4 1.12 C4.19 3.56 4.19 3.56 4 6.12 C2 8.12 2 8.12 -0.56 8.31 C-3 8.12 -3 8.12 -4 7.12 C-4.12 4.12 -4.12 4.12 -4 1.12 C-3 0.12 -3 0.12 0 0 Z " fill="#034158" transform="translate(1456,440.875)"/>
</svg>
