<svg xmlns="http://www.w3.org/2000/svg" xmlns:xlink="http://www.w3.org/1999/xlink" version="1.1" id="layer" x="0px" y="0px" viewBox="-29 166 497.0000305175781 219.39999389648438" style="enable-background:new -153 -46 652 652;" xml:space="preserve">
<polygon points="-46.6,199.3 -98.3,199.3 -98.3,259.2 -54.1,259.2 -54.1,289.5 -98.3,289.5 -98.3,352.7 -46.6,352.7 -46.6,383.1   -132,383.1 -132,168.9 -46.6,168.9 "/>
<g>
	<path d="M65.7,179.5c11.2,10.9,15.1,26.2,15.1,46.8H47c0-9.7-0.6-17.2-5.1-22.9c-3-3.9-7.8-6.3-15.1-6.3c-6.9,0-11.2,2.4-14.5,6   c-3.9,4.5-5.7,11.8-5.7,21.1c0,17.5,2.7,22.9,17.8,29l25.3,10.3c25.6,10.6,32.6,24.1,32.6,60.3c0,22-3,36.8-13.9,47.4   c-8.7,8.4-22.9,14.2-41.9,14.2c-18.7,0-32.6-5.1-41.6-14.2C-25.4,360.7-29,347.5-29,324.9H4.7c0,11.5,1.2,18.7,6,24.1   c3,3.3,8.1,5.7,15.7,5.7c7.8,0,13-2.1,16.3-6c4.5-5.1,5.7-12.4,5.7-23.8c0-22.9-3.6-28.7-20.2-35.3L2.6,279   c-21.7-9-29.9-20.8-29.9-54c0-19.3,5.7-35,17.5-45.5c9.3-8.1,21.4-13,36.8-13C44.3,166.5,56.9,171,65.7,179.5"/>
	<path d="M258.4,197.6v61.8h20.7c18,0,20.7-14.2,20.7-30.9c0-16.7-2.7-30.9-20.7-30.9H258.4z M278.8,168.9   c39.1,0,54.7,17.9,54.7,59.6c0,25-5.4,42.8-25,52.8l21,59H295l-17.6-52.2h-18.9v52.2h-33.7V168.9H278.8z"/>
	<path d="M427,306.8c6.3-9.8,7.2-14.8,7.2-52.1c0-37.3-0.9-42.4-7.2-52.1c-3-4.6-8.1-7.7-16.3-7.7c-8.1,0-13,3.1-16,7.7   c-6.3,9.7-7.5,14.8-7.5,52.1c0,37.3,1.2,42.4,7.5,52.1c3,4.6,7.8,7.7,16,7.7C418.8,314.6,424,311.4,427,306.8 M369.1,326.1   c-14.2-16.3-15.7-28-15.7-71.3c0-43.2,1.5-55,15.7-71.3c8.7-10,21.7-17.5,41.6-17.5c19.9,0,32.9,7.5,41.6,17.5   c14.5,16.1,15.7,28.4,15.7,71.3c0,43.3-1.2,55.3-15.7,71.3c-8.7,10-21.7,17.5-41.6,17.5C390.8,343.5,377.8,336.1,369.1,326.1"/>
</g>
<polygon points="202.9,199.3 166.9,199.3 166.9,383.1 133.2,383.1 133.2,199.3 97.4,199.3 97.4,168.9 202.9,168.9 "/>
<g>
	<path d="M458.5,383.4h-229c-5.3,0-9.5-4.3-9.5-9.5c0-5.3,4.3-9.5,9.5-9.5h229c5.3,0,9.5,4.3,9.5,9.5   C468,379.2,463.7,383.4,458.5,383.4"/>
</g>
</svg>